{
.appVersion = "3306";
classes = (
{
automatic = 1;

glyphs = (
{
glyphname = A;
lastChange = "2025-09-10 23:55:20 +0000";
layers = (
{
anchors = (
{
name = Bottom;
position = "{340, 0}";
},
{
name = Greek;
position = "{134, 558}";
},
{
name = Ogonek;
position = "{605, 0}";
},
{
name = Top;
position = "{340, 714}";
}
);
layerId = "FD4D3FDD-DE85-408F-A52A-FF600B1C6101";
paths = (
{
closed = 1;
nodes = (
"40 0 LINE",
"92 0 LINE",
"188 250 LINE",
"492 250 LINE",
"588 0 LINE",
"640 0 LINE",
"366 714 LINE",
"314 714 LINE"
);
},
{
closed = 1;
nodes = (
"340 646 LINE",
"474 298 LINE",
"206 298 LINE"
);
}
);
width = 680;
},
{
anchors = (
{
name = Bottom;
position = "{411, 0}";
},
{
name = Greek;
position = "{94, 558}";
},
{
name = Ogonek;
position = "{700, 0}";
},
{
name = Top;
position = "{406, 714}";
}
);
layerId = m002;
paths = (
{
closed = 1;
nodes = (
"40 0 LINE",
"252 0 LINE",
"288 98 LINE",
"524 98 LINE",
"560 0 LINE",
"772 0 LINE",
"512 714 LINE",
"300 714 LINE"
);
},
{
closed = 1;
nodes = (
"406 423 LINE",
"470 248 LINE",
"342 248 LINE"
);
}
);
width = 812;
}
);
leftKerningGroup = A;
rightKerningGroup = A;
unicode = 0041;
},
{
color = 10;
glyphname = Astroke;
lastChange = "2025-09-10 22:17:01 +0000";
layers = (
{
layerId = "FD4D3FDD-DE85-408F-A52A-FF600B1C6101";
paths = (
{
closed = 1;
nodes = (
"40 0 LINE",
"92 0 LINE",
"188 250 LINE",
"248 250 LINE",
"132 -53 LINE",
"182 -53 LINE",
"298 250 LINE",
"492 250 LINE",
"588 0 LINE",
"640 0 LINE",
"421 571 LINE",
"498 772 LINE",
"448 772 LINE",
"396 636 LINE",
"366 714 LINE",
"314 714 LINE"
);
},
{
closed = 1;
nodes = (
"340 646 LINE",
"370 568 LINE",
"266 298 LINE",
"206 298 LINE"
);
},
{
closed = 1;
nodes = (
"395 503 LINE",
"474 298 LINE",
"316 298 LINE"
);
}
);
width = 680;
},
{
layerId = m002;
paths = (
{
closed = 1;
nodes = (
"40 0 LINE",
"252 0 LINE",
"288 98 LINE",
"316 98 LINE",
"258 -53 LINE",
"308 -53 LINE",
"366 98 LINE",
"524 98 LINE",
"560 0 LINE",
"772 0 LINE",
"556 594 LINE",
"624 772 LINE",
"574 772 LINE",
"531 661 LINE",
"512 714 LINE",
"300 714 LINE"
);
},
{
closed = 1;
nodes = (
"406 423 LINE",
"423 377 LINE",
"373 248 LINE",
"342 248 LINE"
);
},
{
closed = 1;
nodes = (
"447 310 LINE",
"470 248 LINE",
"423 248 LINE"
);
}
);
width = 812;
}
);
leftKerningGroup = A;
leftMetricsKey = A;
rightKerningGroup = A;
rightMetricsKey = A;
unicode = 023A;
},
{
color = 10;
glyphname = AE;
lastChange = "2025-09-10 22:16:59 +0000";
layers = (
{
anchors = (
{
name = Top;
position = "{610, 714}";
}
);
layerId = "FD4D3FDD-DE85-408F-A52A-FF600B1C6101";
paths = (
{
closed = 1;
nodes = (
"40 0 LINE",
"92 0 LINE",
"223 250 LINE",
"478 250 LINE",
"478 0 LINE",
"869 0 LINE",
"869 48 LINE",
"528 48 LINE",
"528 344 LINE",
"848 344 LINE",
"848 392 LINE",
"528 392 LINE",
"528 666 LINE",
"869 666 LINE",
"869 714 LINE",
"414 714 LINE"
);
},
{
closed = 1;
nodes = (
"441 666 LINE",
"478 666 LINE",
"478 298 LINE",
"248 298 LINE"
);
}
);
width = 919;
},
{
anchors = (
{
name = Top;
position = "{690, 714}";
}
);
layerId = m002;
paths = (
{
closed = 1;
nodes = (
"40 0 LINE",
"252 0 LINE",
"324 138 LINE",
"548 138 LINE",
"548 0 LINE",
"1064 0 LINE",
"1064 168 LINE",
"758 168 LINE",
"758 284 LINE",
"1043 284 LINE",
"1043 452 LINE",
"758 452 LINE",
"758 546 LINE",
"1064 546 LINE",
"1064 714 LINE",
"415 714 LINE"
);
},
{
closed = 1;
nodes = (
"539 546 LINE",
"548 546 LINE",
"548 288 LINE",
"403 288 LINE"
);
}
);
width = 1104;
}
);
leftKerningGroup = A;
leftMetricsKey = A;
rightKerningGroup = E;
rightMetricsKey = E;
unicode = 00C6;
},
{
glyphname = B;
lastChange = "2025-09-10 23:55:29 +0000";
layers = (
{
layerId = "FD4D3FDD-DE85-408F-A52A-FF600B1C6101";
paths = (
{
closed = 1;
nodes = (
"330 0 LINE SMOOTH",
"463 0 OFFCURVE",
"542 74 OFFCURVE",
"542 198 CURVE SMOOTH",
"542 298 OFFCURVE",
"486 363 OFFCURVE",
"391 374 CURVE",
"391 376 LINE",
"473 388 OFFCURVE",
"522 443 OFFCURVE",
"522 525 CURVE SMOOTH",
"522 644 OFFCURVE",
"442 714 OFFCURVE",
"307 714 CURVE SMOOTH",
"60 714 LINE",
"60 0 LINE"
);
},
{
closed = 1;
nodes = (
"110 351 LINE",
"318 351 LINE SMOOTH",
"427 351 OFFCURVE",
"492 293 OFFCURVE",
"492 196 CURVE SMOOTH",
"492 103 OFFCURVE",
"431 48 OFFCURVE",
"328 48 CURVE SMOOTH",
"110 48 LINE"
);
},
{
closed = 1;
nodes = (
"110 666 LINE",
"307 666 LINE SMOOTH",
"411 666 OFFCURVE",
"472 614 OFFCURVE",
"472 527 CURVE SMOOTH",
"472 446 OFFCURVE",
"415 398 OFFCURVE",
"318 398 CURVE SMOOTH",
"110 398 LINE"
);
}
);
width = 582;
},
{
layerId = m002;
paths = (
{
closed = 1;
nodes = (
"410 0 LINE SMOOTH",
"581 0 OFFCURVE",
"682 79 OFFCURVE",
"682 212 CURVE SMOOTH",
"682 295 OFFCURVE",
"637 355 OFFCURVE",
"561 374 CURVE",
"561 376 LINE",
"624 395 OFFCURVE",
"662 450 OFFCURVE",
"662 524 CURVE SMOOTH",
"662 643 OFFCURVE",
"562 714 OFFCURVE",
"392 714 CURVE SMOOTH",
"60 714 LINE",
"60 0 LINE"
);
},
{
closed = 1;
nodes = (
"270 294 LINE",
"388 294 LINE SMOOTH",
"435 294 OFFCURVE",
"462 269 OFFCURVE",
"462 228 CURVE SMOOTH",
"462 185 OFFCURVE",
"438 160 OFFCURVE",
"398 160 CURVE SMOOTH",
"270 160 LINE"
);
},
{
closed = 1;
nodes = (
"270 554 LINE",
"382 554 LINE SMOOTH",
"420 554 OFFCURVE",
"442 535 OFFCURVE",
"442 504 CURVE SMOOTH",
"442 473 OFFCURVE",
"422 454 OFFCURVE",
"388 454 CURVE SMOOTH",
"270 454 LINE"
);
}
);
width = 712;
}
);
leftKerningGroup = H;
leftMetricsKey = N;
rightKerningGroup = B;
unicode = 0042;
},
{
glyphname = C;
lastChange = "2025-09-10 23:55:57 +0000";
layers = (
{
anchors = (
{
name = Bottom;
position = "{360, 0}";
},
{
name = Top;
position = "{350, 726}";
}
);
layerId = "FD4D3FDD-DE85-408F-A52A-FF600B1C6101";
paths = (
{
closed = 1;
nodes = (
"562 216 LINE",
"550 107 OFFCURVE",
"468 35 OFFCURVE",
"356 35 CURVE SMOOTH",
"202 35 OFFCURVE",
"100 164 OFFCURVE",
"100 357 CURVE SMOOTH",
"100 550 OFFCURVE",
"200 678 OFFCURVE",
"350 678 CURVE SMOOTH",
"468 678 OFFCURVE",
"556 605 OFFCURVE",
"570 496 CURVE",
"620 496 LINE",
"606 634 OFFCURVE",
"498 726 OFFCURVE",
"350 726 CURVE SMOOTH",
"170 726 OFFCURVE",
"50 578 OFFCURVE",
"50 357 CURVE SMOOTH",
"50 135 OFFCURVE",
"172 -13 OFFCURVE",
"356 -13 CURVE SMOOTH",
"498 -13 OFFCURVE",
"600 79 OFFCURVE",
"612 216 CURVE"
);
}
);
width = 670;
},
{
anchors = (
{
name = Bottom;
position = "{425, 0}";
},
{
name = Top;
position = "{405, 726}";
}
);
layerId = m002;
paths = (
{
closed = 1;
nodes = (
"542 286 LINE",
"533 204 OFFCURVE",
"486 155 OFFCURVE",
"415 155 CURVE SMOOTH",
"318 155 OFFCURVE",
"260 230 OFFCURVE",
"260 357 CURVE SMOOTH",
"260 483 OFFCURVE",
"318 558 OFFCURVE",
"415 558 CURVE SMOOTH",
"488 558 OFFCURVE",
"538 509 OFFCURVE",
"550 426 CURVE",
"770 426 LINE",
"750 615 OFFCURVE",
"614 726 OFFCURVE",
"405 726 CURVE SMOOTH",
"176 726 OFFCURVE",
"40 589 OFFCURVE",
"40 357 CURVE SMOOTH",
"40 124 OFFCURVE",
"179 -13 OFFCURVE",
"415 -13 CURVE SMOOTH",
"615 -13 OFFCURVE",
"744 98 OFFCURVE",
"762 286 CURVE"
);
}
);
width = 810;
}
);
leftKerningGroup = O;
leftMetricsKey = O;
rightKerningGroup = O;
rightMetricsKey = O;
unicode = 0043;
},
{
color = 10;
glyphname = Cstroke;
lastChange = "2025-09-10 22:16:56 +0000";
layers = (
{
layerId = "FD4D3FDD-DE85-408F-A52A-FF600B1C6101";
paths = (
{
closed = 1;
nodes = (
"562 216 LINE",
"550 107 OFFCURVE",
"468 35 OFFCURVE",
"356 35 CURVE SMOOTH",
"312 35 OFFCURVE",
"272 46 OFFCURVE",
"237 65 CURVE",
"462 652 LINE",
"521 622 OFFCURVE",
"561 566 OFFCURVE",
"570 496 CURVE",
"620 496 LINE",
"611 589 OFFCURVE",
"558 661 OFFCURVE",
"480 698 CURVE",
"508 772 LINE",
"458 772 LINE",
"436 715 LINE",
"409 722 OFFCURVE",
"381 726 OFFCURVE",
"350 726 CURVE SMOOTH",
"170 726 OFFCURVE",
"50 578 OFFCURVE",
"50 357 CURVE SMOOTH",
"50 218 OFFCURVE",
"98 107 OFFCURVE",
"179 45 CURVE",
"142 -53 LINE",
"192 -53 LINE",
"220 19 LINE",
"260 -2 OFFCURVE",
"305 -13 OFFCURVE",
"356 -13 CURVE SMOOTH",
"498 -13 OFFCURVE",
"600 79 OFFCURVE",
"612 216 CURVE"
);
},
{
closed = 1;
nodes = (
"100 550 OFFCURVE",
"200 678 OFFCURVE",
"350 678 CURVE SMOOTH",
"374 678 OFFCURVE",
"397 675 OFFCURVE",
"419 669 CURVE",
"198 94 LINE",
"136 150 OFFCURVE",
"100 242 OFFCURVE",
"100 357 CURVE SMOOTH"
);
}
);
width = 670;
},
{
layerId = m002;
paths = (
{
closed = 1;
nodes = (
"542 286 LINE",
"533 204 OFFCURVE",
"486 155 OFFCURVE",
"415 155 CURVE SMOOTH",
"392 155 OFFCURVE",
"371 159 OFFCURVE",
"352 168 CURVE",
"493 534 LINE",
"523 512 OFFCURVE",
"543 475 OFFCURVE",
"550 426 CURVE",
"770 426 LINE",
"755 564 OFFCURVE",
"679 660 OFFCURVE",
"557 702 CURVE",
"584 772 LINE",
"534 772 LINE",
"512 715 LINE",
"479 722 OFFCURVE",
"443 726 OFFCURVE",
"405 726 CURVE SMOOTH",
"176 726 OFFCURVE",
"40 589 OFFCURVE",
"40 357 CURVE SMOOTH",
"40 187 OFFCURVE",
"114 69 OFFCURVE",
"245 17 CURVE",
"218 -53 LINE",
"268 -53 LINE",
"289 2 LINE",
"327 -8 OFFCURVE",
"369 -13 OFFCURVE",
"415 -13 CURVE SMOOTH",
"615 -13 OFFCURVE",
"744 98 OFFCURVE",
"762 286 CURVE"
);
},
{
closed = 1;
nodes = (
"260 483 OFFCURVE",
"318 558 OFFCURVE",
"415 558 CURVE SMOOTH",
"428 558 OFFCURVE",
"439 557 OFFCURVE",
"450 554 CURVE",
"313 195 LINE",
"279 229 OFFCURVE",
"260 285 OFFCURVE",
"260 357 CURVE SMOOTH"
);
}
);
width = 810;
}
);
leftKerningGroup = O;
leftMetricsKey = C;
rightKerningGroup = O;
rightMetricsKey = C;
unicode = 023B;
},
{
glyphname = D;
lastChange = "2025-08-28 14:59:58 +0000";
layers = (
{
anchors = (
{
name = Bottom;
position = "{288, 0}";
},
{
name = Top;
position = "{284, 714}";
}
);
layerId = "FD4D3FDD-DE85-408F-A52A-FF600B1C6101";
paths = (
{
closed = 1;
nodes = (
"284 0 LINE SMOOTH",
"476 0 OFFCURVE",
"604 143 OFFCURVE",
"604 357 CURVE SMOOTH",
"604 571 OFFCURVE",
"476 714 OFFCURVE",
"284 714 CURVE SMOOTH",
"60 714 LINE",
"60 0 LINE"
);
},
{
closed = 1;
nodes = (
"110 666 LINE",
"284 666 LINE SMOOTH",
"446 666 OFFCURVE",
"554 542 OFFCURVE",
"554 356 CURVE SMOOTH",
"554 171 OFFCURVE",
"446 48 OFFCURVE",
"284 48 CURVE SMOOTH",
"110 48 LINE"
);
}
);
width = 654;
},
{
anchors = (
{
name = Bottom;
position = "{388, 0}";
},
{
name = Top;
position = "{384, 714}";
}
);
layerId = m002;
paths = (
{
closed = 1;
nodes = (
"374 0 LINE SMOOTH",
"613 0 OFFCURVE",
"754 133 OFFCURVE",
"754 357 CURVE SMOOTH",
"754 581 OFFCURVE",
"613 714 OFFCURVE",
"374 714 CURVE SMOOTH",
"60 714 LINE",
"60 0 LINE"
);
},
{
closed = 1;
nodes = (
"270 546 LINE",
"374 546 LINE SMOOTH",
"475 546 OFFCURVE",
"534 475 OFFCURVE",
"534 356 CURVE SMOOTH",
"534 238 OFFCURVE",
"475 168 OFFCURVE",
"374 168 CURVE SMOOTH",
"270 168 LINE"
);
}
);
width = 794;
}
);
leftKerningGroup = H;
leftMetricsKey = N;
rightKerningGroup = O;
rightMetricsKey = O;
unicode = 0044;
},
{
color = 10;
glyphname = Eth;
lastChange = "2025-09-10 22:16:54 +0000";
layers = (
{
layerId = "FD4D3FDD-DE85-408F-A52A-FF600B1C6101";
paths = (
{
closed = 1;
nodes = (
"335 0 LINE SMOOTH",
"527 0 OFFCURVE",
"655 143 OFFCURVE",
"655 357 CURVE SMOOTH",
"655 571 OFFCURVE",
"527 714 OFFCURVE",
"335 714 CURVE SMOOTH",
"111 714 LINE",
"111 381 LINE",
"60 386 LINE",
"60 341 LINE",
"111 341 LINE",
"111 0 LINE"
);
},
{
closed = 1;
nodes = (
"161 341 LINE",
"261 341 LINE",
"261 383 LINE",
"161 383 LINE",
"161 666 LINE",
"335 666 LINE SMOOTH",
"497 666 OFFCURVE",
"605 542 OFFCURVE",
"605 356 CURVE SMOOTH",
"605 171 OFFCURVE",
"497 48 OFFCURVE",
"335 48 CURVE SMOOTH",
"161 48 LINE"
);
}
);
width = 705;
},
{
layerId = m002;
paths = (
{
closed = 1;
nodes = (
"421 0 LINE SMOOTH",
"660 0 OFFCURVE",
"801 133 OFFCURVE",
"801 357 CURVE SMOOTH",
"801 581 OFFCURVE",
"660 714 OFFCURVE",
"421 714 CURVE SMOOTH",
"107 714 LINE",
"107 417 LINE",
"60 422 LINE",
"60 299 LINE",
"107 299 LINE",
"107 0 LINE"
);
},
{
closed = 1;
nodes = (
"317 299 LINE",
"424 299 LINE",
"424 419 LINE",
"317 419 LINE",
"317 546 LINE",
"421 546 LINE SMOOTH",
"522 546 OFFCURVE",
"581 475 OFFCURVE",
"581 356 CURVE SMOOTH",
"581 238 OFFCURVE",
"522 168 OFFCURVE",
"421 168 CURVE SMOOTH",
"317 168 LINE"
);
}
);
width = 841;
}
);
leftKerningGroup = H;
leftMetricsKey = D;
rightKerningGroup = O;
rightMetricsKey = D;
unicode = 00D0;
},
{
glyphname = E;
lastChange = "2025-08-28 15:00:01 +0000";
layers = (
{
anchors = (
{
name = Bottom;
position = "{415, 0}";
},
{
name = Dot;
position = "{279, 0}";
},
{
name = Greek;
position = "{-96, 558}";
},
{
name = Top;
position = "{273, 714}";
}
);
layerId = "FD4D3FDD-DE85-408F-A52A-FF600B1C6101";
paths = (
{
closed = 1;
nodes = (
"110 392 LINE",
"110 666 LINE",
"451 666 LINE",
"451 714 LINE",
"60 714 LINE",
"60 0 LINE",
"451 0 LINE",
"451 48 LINE",
"110 48 LINE",
"110 344 LINE",
"430 344 LINE",
"430 392 LINE"
);
}
);
width = 501;
},
{
anchors = (
{
name = Bottom;
position = "{504, 0}";
},
{
name = Dot;
position = "{334, 0}";
},
{
name = Greek;
position = "{-121, 558}";
},
{
name = Top;
position = "{313, 714}";
}
);
layerId = m002;
paths = (
{
closed = 1;
nodes = (
"270 452 LINE",
"270 546 LINE",
"576 546 LINE",
"576 714 LINE",
"60 714 LINE",
"60 0 LINE",
"576 0 LINE",
"576 168 LINE",
"270 168 LINE",
"270 284 LINE",
"555 284 LINE",
"555 452 LINE"
);
}
);
width = 616;
}
);
leftKerningGroup = H;
leftMetricsKey = N;
rightKerningGroup = E;
unicode = 0045;
},
{
color = 10;
glyphname = Eopen;
lastChange = "2025-09-10 22:16:52 +0000";
layers = (
{
layerId = "FD4D3FDD-DE85-408F-A52A-FF600B1C6101";
paths = (
{
closed = 1;
nodes = (
"110 285 OFFCURVE",
"190 348 OFFCURVE",
"311 348 CURVE SMOOTH",
"378 348 LINE",
"378 396 LINE",
"311 396 LINE SMOOTH",
"204 396 OFFCURVE",
"133 454 OFFCURVE",
"133 540 CURVE SMOOTH",
"133 624 OFFCURVE",
"210 680 OFFCURVE",
"325 680 CURVE SMOOTH",
"366 680 OFFCURVE",
"413 672 OFFCURVE",
"441 659 CURVE",
"441 704 LINE",
"413 717 OFFCURVE",
"363 726 OFFCURVE",
"318 726 CURVE SMOOTH",
"177 726 OFFCURVE",
"83 652 OFFCURVE",
"83 540 CURVE SMOOTH",
"83 468 OFFCURVE",
"136 401 OFFCURVE",
"215 373 CURVE",
"215 371 LINE",
"122 354 OFFCURVE",
"60 282 OFFCURVE",
"60 190 CURVE SMOOTH",
"60 68 OFFCURVE",
"162 -13 OFFCURVE",
"315 -13 CURVE SMOOTH",
"367 -13 OFFCURVE",
"417 -4 OFFCURVE",
"438 9 CURVE",
"438 54 LINE",
"414 41 OFFCURVE",
"367 33 OFFCURVE",
"322 33 CURVE SMOOTH",
"195 33 OFFCURVE",
"110 96 OFFCURVE",
"110 190 CURVE SMOOTH"
);
}
);
width = 491;
},
{
layerId = m002;
paths = (
{
closed = 1;
nodes = (
"260 280 OFFCURVE",
"300 307 OFFCURVE",
"369 307 CURVE SMOOTH",
"449 307 LINE",
"449 437 LINE",
"366 437 LINE SMOOTH",
"314 437 OFFCURVE",
"283 457 OFFCURVE",
"283 490 CURVE SMOOTH",
"283 535 OFFCURVE",
"332 561 OFFCURVE",
"414 561 CURVE SMOOTH",
"456 561 OFFCURVE",
"496 550 OFFCURVE",
"522 531 CURVE",
"522 694 LINE",
"481 714 OFFCURVE",
"425 726 OFFCURVE",
"371 726 CURVE SMOOTH",
"190 726 OFFCURVE",
"83 648 OFFCURVE",
"83 517 CURVE SMOOTH",
"83 453 OFFCURVE",
"116 399 OFFCURVE",
"171 373 CURVE",
"171 371 LINE",
"101 346 OFFCURVE",
"60 287 OFFCURVE",
"60 213 CURVE SMOOTH",
"60 71 OFFCURVE",
"184 -13 OFFCURVE",
"394 -13 CURVE SMOOTH",
"441 -13 OFFCURVE",
"492 -5 OFFCURVE",
"532 9 CURVE",
"532 177 LINE",
"501 163 OFFCURVE",
"456 155 OFFCURVE",
"409 155 CURVE SMOOTH",
"315 155 OFFCURVE",
"260 185 OFFCURVE",
"260 235 CURVE SMOOTH"
);
}
);
width = 572;
}
);
leftKerningGroup = O;
leftMetricsKey = E;
rightKerningGroup = E;
rightMetricsKey = E;
unicode = 0190;
},
{
color = 10;
glyphname = Ezh;
lastChange = "2025-09-10 22:16:49 +0000";
layers = (
{
anchors = (
{
name = Top;
position = "{273, 714}";
}
);
layerId = "FD4D3FDD-DE85-408F-A52A-FF600B1C6101";
paths = (
{
closed = 1;
nodes = (
"72 666 LINE",
"421 666 LINE",
"255 469 LINE",
"255 421 LINE",
"290 421 LINE SMOOTH",
"394 421 OFFCURVE",
"456 350 OFFCURVE",
"456 229 CURVE SMOOTH",
"456 107 OFFCURVE",
"391 35 OFFCURVE",
"282 35 CURVE SMOOTH",
"168 35 OFFCURVE",
"100 99 OFFCURVE",
"100 206 CURVE",
"50 206 LINE",
"50 68 OFFCURVE",
"136 -13 OFFCURVE",
"282 -13 CURVE SMOOTH",
"423 -13 OFFCURVE",
"506 77 OFFCURVE",
"506 229 CURVE SMOOTH",
"506 372 OFFCURVE",
"434 459 OFFCURVE",
"311 468 CURVE",
"479 666 LINE",
"479 714 LINE",
"72 714 LINE"
);
}
);
width = 556;
},
{
anchors = (
{
name = Top;
position = "{308, 714}";
}
);
layerId = m002;
paths = (
{
closed = 1;
nodes = (
"62 564 LINE",
"352 564 LINE",
"275 479 LINE",
"275 329 LINE",
"322 329 LINE SMOOTH",
"363 329 OFFCURVE",
"388 295 OFFCURVE",
"388 238 CURVE SMOOTH",
"388 182 OFFCURVE",
"363 149 OFFCURVE",
"322 149 CURVE SMOOTH",
"275 149 OFFCURVE",
"248 178 OFFCURVE",
"248 226 CURVE",
"40 226 LINE",
"40 76 OFFCURVE",
"145 -13 OFFCURVE",
"322 -13 CURVE SMOOTH",
"494 -13 OFFCURVE",
"596 78 OFFCURVE",
"596 232 CURVE SMOOTH",
"596 340 OFFCURVE",
"547 417 OFFCURVE",
"459 454 CURVE",
"569 564 LINE",
"569 714 LINE",
"62 714 LINE"
);
}
);
width = 636;
}
);
leftKerningGroup = three;
leftMetricsKey = O;
rightKerningGroup = O;
rightMetricsKey = O;
unicode = 01B7;
},
{
color = 10;
glyphname = F;
lastChange = "2025-08-28 15:00:05 +0000";
layers = (
{
anchors = (
{
name = Bottom;
position = "{283, 0}";
},
{
name = Top;
position = "{265, 726}";
}
);
layerId = "FD4D3FDD-DE85-408F-A52A-FF600B1C6101";
paths = (
{
closed = 1;
nodes = (
"110 666 LINE",
"454 666 LINE",
"454 714 LINE",
"60 714 LINE",
"60 0 LINE",
"110 0 LINE",
"110 344 LINE",
"431 344 LINE",
"431 392 LINE",
"110 392 LINE"
);
}
);
width = 504;
},
{
anchors = (
{
name = Bottom;
position = "{403, 0}";
},
{
name = Top;
position = "{345, 714}";
}
);
layerId = m002;
paths = (
{
closed = 1;
nodes = (
"270 546 LINE",
"575 546 LINE",
"575 714 LINE",
"60 714 LINE",
"60 0 LINE",
"270 0 LINE",
"270 275 LINE",
"552 275 LINE",
"552 443 LINE",
"270 443 LINE"
);
}
);
width = 615;
}
);
leftKerningGroup = H;
leftMetricsKey = N;
rightKerningGroup = F;
unicode = 0046;
},
{
glyphname = G;
lastChange = "2025-08-28 15:00:09 +0000";
layers = (
{
anchors = (
{
name = Bottom;
position = "{370, 0}";
},
{
name = Top;
position = "{377, 726}";
}
);
layerId = "FD4D3FDD-DE85-408F-A52A-FF600B1C6101";
paths = (
{
closed = 1;
nodes = (
"372 327 LINE",
"372 279 LINE",
"576 279 LINE",
"576 133 LINE",
"540 73 OFFCURVE",
"460 35 OFFCURVE",
"370 35 CURVE SMOOTH",
"208 35 OFFCURVE",
"100 164 OFFCURVE",
"100 357 CURVE SMOOTH",
"100 550 OFFCURVE",
"211 678 OFFCURVE",
"377 678 CURVE SMOOTH",
"496 678 OFFCURVE",
"586 605 OFFCURVE",
"600 496 CURVE",
"650 496 LINE",
"636 634 OFFCURVE",
"527 726 OFFCURVE",
"377 726 CURVE SMOOTH",
"181 726 OFFCURVE",
"50 578 OFFCURVE",
"50 357 CURVE SMOOTH",
"50 135 OFFCURVE",
"178 -13 OFFCURVE",
"370 -13 CURVE SMOOTH",
"446 -13 OFFCURVE",
"527 13 OFFCURVE",
"574 52 CURVE",
"576 52 LINE",
"561 0 LINE",
"626 0 LINE",
"626 327 LINE"
);
}
);
width = 710;
},
{
anchors = (
{
name = Bottom;
position = "{406, 0}";
},
{
name = Top;
position = "{406, 726}";
}
);
layerId = m002;
paths = (
{
closed = 1;
nodes = (
"393 389 LINE",
"393 239 LINE",
"571 239 LINE",
"571 200 LINE",
"548 165 OFFCURVE",
"496 145 OFFCURVE",
"431 145 CURVE SMOOTH",
"324 145 OFFCURVE",
"260 224 OFFCURVE",
"260 357 CURVE SMOOTH",
"260 483 OFFCURVE",
"320 558 OFFCURVE",
"421 558 CURVE SMOOTH",
"493 558 OFFCURVE",
"539 524 OFFCURVE",
"546 466 CURVE",
"766 466 LINE",
"749 629 OFFCURVE",
"615 726 OFFCURVE",
"405 726 CURVE SMOOTH",
"176 726 OFFCURVE",
"40 589 OFFCURVE",
"40 357 CURVE SMOOTH",
"40 124 OFFCURVE",
"170 -13 OFFCURVE",
"389 -13 CURVE SMOOTH",
"463 -13 OFFCURVE",
"529 11 OFFCURVE",
"567 52 CURVE",
"574 52 LINE",
"544 0 LINE",
"752 0 LINE",
"752 389 LINE"
);
}
);
width = 826;
}
);
leftKerningGroup = O;
leftMetricsKey = O;
rightKerningGroup = G;
rightMetricsKey = N;
unicode = 0047;
},
{
color = 10;
glyphname = Glottalstop;
lastChange = "2025-09-10 22:16:40 +0000";
layers = (
{
layerId = "FD4D3FDD-DE85-408F-A52A-FF600B1C6101";
paths = (
{
closed = 1;
nodes = (
"243 0 LINE",
"243 315 OFFCURVE",
"496 285 OFFCURVE",
"496 521 CURVE SMOOTH",
"496 650 OFFCURVE",
"415 726 OFFCURVE",
"278 726 CURVE SMOOTH",
"135 726 OFFCURVE",
"50 649 OFFCURVE",
"50 520 CURVE",
"100 520 LINE",
"100 619 OFFCURVE",
"166 678 OFFCURVE",
"278 678 CURVE SMOOTH",
"384 678 OFFCURVE",
"446 620 OFFCURVE",
"446 521 CURVE SMOOTH",
"446 315 OFFCURVE",
"193 340 OFFCURVE",
"193 0 CURVE"
);
}
);
width = 536;
},
{
layerId = m002;
paths = (
{
closed = 1;
nodes = (
"362 0 LINE",
"362 258 OFFCURVE",
"637 216 OFFCURVE",
"637 475 CURVE SMOOTH",
"637 633 OFFCURVE",
"526 726 OFFCURVE",
"338 726 CURVE SMOOTH",
"151 726 OFFCURVE",
"40 629 OFFCURVE",
"40 465 CURVE",
"260 465 LINE",
"260 523 OFFCURVE",
"289 558 OFFCURVE",
"338 558 CURVE SMOOTH",
"387 558 OFFCURVE",
"416 527 OFFCURVE",
"416 475 CURVE SMOOTH",
"416 303 OFFCURVE",
"152 321 OFFCURVE",
"152 0 CURVE"
);
}
);
width = 677;
}
);
leftKerningGroup = O;
leftMetricsKey = O;
rightKerningGroup = P;
rightMetricsKey = P;
unicode = 0241;
},
{
color = 10;
glyphname = Gstroke;
lastChange = "2025-09-10 22:16:22 +0000";
layers = (
{
layerId = "FD4D3FDD-DE85-408F-A52A-FF600B1C6101";
paths = (
{
closed = 1;
nodes = (
"372 327 LINE",
"372 279 LINE",
"576 279 LINE",
"576 222 LINE",
"476 227 LINE",
"476 182 LINE",
"576 182 LINE",
"576 125 LINE",
"538 66 OFFCURVE",
"461 35 OFFCURVE",
"370 35 CURVE SMOOTH",
"208 35 OFFCURVE",
"100 164 OFFCURVE",
"100 357 CURVE SMOOTH",
"100 550 OFFCURVE",
"211 678 OFFCURVE",
"377 678 CURVE SMOOTH",
"496 678 OFFCURVE",
"586 605 OFFCURVE",
"600 496 CURVE",
"650 496 LINE",
"636 634 OFFCURVE",
"527 726 OFFCURVE",
"377 726 CURVE SMOOTH",
"181 726 OFFCURVE",
"50 578 OFFCURVE",
"50 357 CURVE SMOOTH",
"50 135 OFFCURVE",
"178 -13 OFFCURVE",
"370 -13 CURVE SMOOTH",
"446 -13 OFFCURVE",
"527 13 OFFCURVE",
"574 52 CURVE",
"576 52 LINE",
"561 0 LINE",
"626 0 LINE",
"626 182 LINE",
"676 182 LINE",
"676 224 LINE",
"626 224 LINE",
"626 327 LINE"
);
}
);
width = 736;
},
{
layerId = m002;
paths = (
{
closed = 1;
nodes = (
"393 389 LINE",
"393 239 LINE",
"571 239 LINE",
"571 229 LINE",
"469 234 LINE",
"469 161 LINE",
"507 161 LINE",
"521 161 LINE",
"496 151 OFFCURVE",
"465 145 OFFCURVE",
"431 145 CURVE SMOOTH",
"324 145 OFFCURVE",
"260 224 OFFCURVE",
"260 357 CURVE SMOOTH",
"260 483 OFFCURVE",
"320 558 OFFCURVE",
"421 558 CURVE SMOOTH",
"493 558 OFFCURVE",
"539 524 OFFCURVE",
"546 466 CURVE",
"766 466 LINE",
"749 629 OFFCURVE",
"615 726 OFFCURVE",
"405 726 CURVE SMOOTH",
"176 726 OFFCURVE",
"40 589 OFFCURVE",
"40 357 CURVE SMOOTH",
"40 124 OFFCURVE",
"170 -13 OFFCURVE",
"389 -13 CURVE SMOOTH",
"463 -13 OFFCURVE",
"529 11 OFFCURVE",
"567 52 CURVE",
"574 52 LINE",
"544 0 LINE",
"752 0 LINE",
"752 161 LINE",
"800 161 LINE",
"800 231 LINE",
"752 231 LINE",
"752 389 LINE"
);
}
);
width = 860;
}
);
leftKerningGroup = O;
leftMetricsKey = G;
rightKerningGroup = G;
rightMetricsKey = G;
unicode = 01E4;
},
{
glyphname = H;
lastChange = "2025-08-28 15:00:11 +0000";
layers = (
{
anchors = (
{
name = Bottom;
position = "{322, 0}";
},
{
name = Greek;
position = "{-96, 558}";
},
{
name = Top;
position = "{322, 714}";
}
);
layerId = "FD4D3FDD-DE85-408F-A52A-FF600B1C6101";
paths = (
{
closed = 1;
nodes = (
"534 397 LINE",
"110 397 LINE",
"110 714 LINE",
"60 714 LINE",
"60 0 LINE",
"110 0 LINE",
"110 349 LINE",
"534 349 LINE",
"534 0 LINE",
"584 0 LINE",
"584 714 LINE",
"534 714 LINE"
);
}
);
width = 644;
},
{
anchors = (
{
name = Bottom;
position = "{390, 0}";
},
{
name = Greek;
position = "{-121, 558}";
},
{
name = Top;
position = "{390, 714}";
}
);
layerId = m002;
paths = (
{
closed = 1;
nodes = (
"504 448 LINE",
"270 448 LINE",
"270 714 LINE",
"60 714 LINE",
"60 0 LINE",
"270 0 LINE",
"270 280 LINE",
"504 280 LINE",
"504 0 LINE",
"714 0 LINE",
"714 714 LINE",
"504 714 LINE"
);
}
);
width = 774;
}
);
leftKerningGroup = H;
leftMetricsKey = N;
rightKerningGroup = H;
rightMetricsKey = N;
unicode = 0048;
},
{
color = 10;
glyphname = Hbar;
lastChange = "2025-09-10 22:16:19 +0000";
layers = (
{
layerId = "FD4D3FDD-DE85-408F-A52A-FF600B1C6101";
paths = (
{
closed = 1;
nodes = (
"634 602 LINE",
"210 600 LINE",
"210 714 LINE",
"160 714 LINE",
"160 601 LINE",
"60 605 LINE",
"60 560 LINE",
"160 560 LINE",
"160 0 LINE",
"210 0 LINE",
"210 349 LINE",
"634 349 LINE",
"634 0 LINE",
"684 0 LINE",
"684 560 LINE",
"784 560 LINE",
"784 602 LINE",
"684 602 LINE",
"684 714 LINE",
"634 714 LINE"
);
},
{
closed = 1;
nodes = (
"210 560 LINE",
"634 560 LINE",
"634 397 LINE",
"210 397 LINE"
);
}
);
width = 844;
},
{
layerId = m002;
paths = (
{
closed = 1;
nodes = (
"624 638 LINE",
"320 636 LINE",
"320 714 LINE",
"150 714 LINE",
"150 638 LINE",
"60 641 LINE",
"60 518 LINE",
"150 518 LINE",
"150 0 LINE",
"320 0 LINE",
"320 298 LINE",
"624 298 LINE",
"624 0 LINE",
"794 0 LINE",
"794 518 LINE",
"883 518 LINE",
"883 638 LINE",
"794 638 LINE",
"794 714 LINE",
"624 714 LINE"
);
},
{
closed = 1;
nodes = (
"320 518 LINE",
"624 518 LINE",
"624 448 LINE",
"320 448 LINE"
);
}
);
width = 943;
}
);
leftKerningGroup = T;
leftMetricsKey = N;
rightKerningGroup = T;
rightMetricsKey = N;
unicode = 0126;
},
{
glyphname = I;
lastChange = "2025-08-28 15:00:14 +0000";
layers = (
{
anchors = (
{
name = Bottom;
position = "{85, 0}";
},
{
name = Greek;
position = "{-96, 558}";
},
{
name = Top;
position = "{85, 714}";
}
);
layerId = "FD4D3FDD-DE85-408F-A52A-FF600B1C6101";
paths = (
{
closed = 1;
nodes = (
"60 0 LINE",
"110 0 LINE",
"110 714 LINE",
"60 714 LINE"
);
}
);
width = 170;
},
{
anchors = (
{
name = Bottom;
position = "{165, 0}";
},
{
name = Greek;
position = "{-126, 558}";
},
{
name = Top;
position = "{165, 714}";
}
);
layerId = m002;
paths = (
{
closed = 1;
nodes = (
"60 0 LINE",
"270 0 LINE",
"270 714 LINE",
"60 714 LINE"
);
}
);
width = 330;
}
);
leftKerningGroup = I;
leftMetricsKey = N;
rightKerningGroup = I;
rightMetricsKey = N;
unicode = 0049;
},
{
color = 10;
glyphname = IJ;
lastChange = "2025-09-10 22:16:16 +0000";
layers = (
{
layerId = "FD4D3FDD-DE85-408F-A52A-FF600B1C6101";
paths = (
{
closed = 1;
nodes = (
"60 160 LINE",
"110 160 LINE",
"110 714 LINE",
"60 714 LINE"
);
},
{
closed = 1;
nodes = (
"98 -8 OFFCURVE",
"123 -13 OFFCURVE",
"146 -13 CURVE SMOOTH",
"263 -13 OFFCURVE",
"332 48 OFFCURVE",
"332 152 CURVE SMOOTH",
"332 714 LINE",
"282 714 LINE",
"282 152 LINE SMOOTH",
"282 78 OFFCURVE",
"232 34 OFFCURVE",
"147 34 CURVE SMOOTH",
"120 34 OFFCURVE",
"95 39 OFFCURVE",
"80 48 CURVE",
"80 0 LINE"
);
}
);
width = 392;
},
{
layerId = m002;
paths = (
{
closed = 1;
nodes = (
"60 240 LINE",
"230 240 LINE",
"230 714 LINE",
"60 714 LINE"
);
},
{
closed = 1;
nodes = (
"208 -8 OFFCURVE",
"231 -13 OFFCURVE",
"251 -13 CURVE SMOOTH",
"409 -13 OFFCURVE",
"502 67 OFFCURVE",
"502 202 CURVE SMOOTH",
"502 714 LINE",
"332 714 LINE",
"332 232 LINE SMOOTH",
"332 182 OFFCURVE",
"302 153 OFFCURVE",
"252 153 CURVE SMOOTH",
"229 153 OFFCURVE",
"206 159 OFFCURVE",
"190 168 CURVE",
"190 0 LINE"
);
}
);
width = 562;
}
);
leftKerningGroup = I;
leftMetricsKey = N;
rightKerningGroup = U;
rightMetricsKey = N;
unicode = 0132;
},
{
color = 10;
glyphname = Istroke;
lastChange = "2025-09-10 22:16:14 +0000";
layers = (
{
layerId = "FD4D3FDD-DE85-408F-A52A-FF600B1C6101";
paths = (
{
closed = 1;
nodes = (
"130 382 LINE",
"60 386 LINE",
"60 341 LINE",
"130 341 LINE",
"130 0 LINE",
"180 0 LINE",
"180 341 LINE",
"250 341 LINE",
"250 383 LINE",
"180 383 LINE",
"180 714 LINE",
"130 714 LINE"
);
}
);
width = 310;
},
{
layerId = m002;
paths = (
{
closed = 1;
nodes = (
"136 417 LINE",
"60 422 LINE",
"60 299 LINE",
"136 299 LINE",
"136 0 LINE",
"346 0 LINE",
"346 299 LINE",
"422 299 LINE",
"422 419 LINE",
"346 419 LINE",
"346 714 LINE",
"136 714 LINE"
);
}
);
width = 482;
}
);
leftKerningGroup = Istroke;
leftMetricsKey = N;
rightKerningGroup = Istroke;
rightMetricsKey = N;
unicode = 0197;
},
{
glyphname = J;
lastChange = "2025-08-28 15:00:17 +0000";
layers = (
{
anchors = (
{
name = Bottom;
position = "{69, 0}";
},
{
name = Top;
position = "{247, 714}";
}
);
layerId = "FD4D3FDD-DE85-408F-A52A-FF600B1C6101";
paths = (
{
closed = 1;
nodes = (
"272 714 LINE",
"222 714 LINE",
"222 152 LINE SMOOTH",
"222 78 OFFCURVE",
"176 34 OFFCURVE",
"97 34 CURVE SMOOTH",
"74 34 OFFCURVE",
"53 39 OFFCURVE",
"40 48 CURVE",
"40 0 LINE",
"58 -8 OFFCURVE",
"79 -13 OFFCURVE",
"96 -13 CURVE SMOOTH",
"207 -13 OFFCURVE",
"272 48 OFFCURVE",
"272 152 CURVE SMOOTH"
);
}
);
width = 332;
},
{
anchors = (
{
name = Bottom;
position = "{89, 0}";
},
{
name = Top;
position = "{267, 714}";
}
);
layerId = m002;
paths = (
{
closed = 1;
nodes = (
"372 714 LINE",
"162 714 LINE",
"162 232 LINE SMOOTH",
"162 182 OFFCURVE",
"140 153 OFFCURVE",
"102 153 CURVE SMOOTH",
"80 153 OFFCURVE",
"57 159 OFFCURVE",
"40 168 CURVE",
"40 0 LINE",
"58 -8 OFFCURVE",
"81 -13 OFFCURVE",
"101 -13 CURVE SMOOTH",
"271 -13 OFFCURVE",
"372 67 OFFCURVE",
"372 202 CURVE SMOOTH"
);
}
);
width = 432;
}
);
leftKerningGroup = J;
rightKerningGroup = U;
rightMetricsKey = N;
unicode = 004A;
},
{
glyphname = K;
lastChange = "2025-08-28 15:00:22 +0000";
layers = (
{
anchors = (
{
name = Bottom;
position = "{289, 0}";
},
{
name = Top;
position = "{253, 714}";
}
);
layerId = "FD4D3FDD-DE85-408F-A52A-FF600B1C6101";
paths = (
{
closed = 1;
nodes = (
"60 0 LINE",
"110 0 LINE",
"110 263 LINE",
"246 399 LINE",
"496 0 LINE",
"553 0 LINE",
"282 435 LINE",
"561 714 LINE",
"491 714 LINE",
"112 336 LINE",
"110 336 LINE",
"110 714 LINE",
"60 714 LINE"
);
}
);
width = 601;
},
{
anchors = (
{
name = Bottom;
position = "{406, 0}";
},
{
name = Top;
position = "{370, 714}";
}
);
layerId = m002;
paths = (
{
closed = 1;
nodes = (
"60 0 LINE",
"270 0 LINE",
"270 179 LINE",
"360 271 LINE",
"531 0 LINE",
"777 0 LINE",
"512 428 LINE",
"791 714 LINE",
"514 714 LINE",
"272 471 LINE",
"270 471 LINE",
"270 714 LINE",
"60 714 LINE"
);
}
);
width = 831;
}
);
leftKerningGroup = H;
leftMetricsKey = N;
rightKerningGroup = K;
rightMetricsKey = A;
unicode = 004B;
},
{
glyphname = L;
lastChange = "2025-08-28 15:00:25 +0000";
layers = (
{
anchors = (
{
name = Bottom;
position = "{267, 0}";
},
{
name = Caron;
position = "{255, 548}";
},
{
name = Top;
position = "{86, 714}";
}
);
layerId = "FD4D3FDD-DE85-408F-A52A-FF600B1C6101";
paths = (
{
closed = 1;
nodes = (
"110 48 LINE",
"110 714 LINE",
"60 714 LINE",
"60 0 LINE",
"448 0 LINE",
"448 48 LINE"
);
}
);
width = 488;
},
{
anchors = (
{
name = Bottom;
position = "{337, 0}";
},
{
name = Caron;
position = "{385, 548}";
},
{
name = Top;
position = "{166, 714}";
}
);
layerId = m002;
paths = (
{
closed = 1;
nodes = (
"270 168 LINE",
"270 714 LINE",
"60 714 LINE",
"60 0 LINE",
"558 0 LINE",
"558 168 LINE"
);
}
);
width = 598;
}
);
leftKerningGroup = H;
leftMetricsKey = N;
rightKerningGroup = L;
rightMetricsKey = A;
unicode = 004C;
},
{
color = 10;
glyphname = Lbar;
lastChange = "2025-09-10 22:16:09 +0000";
layers = (
{
layerId = "FD4D3FDD-DE85-408F-A52A-FF600B1C6101";
paths = (
{
closed = 1;
nodes = (
"160 48 LINE",
"160 341 LINE",
"261 341 LINE",
"261 383 LINE",
"160 383 LINE",
"160 714 LINE",
"110 714 LINE",
"110 381 LINE",
"60 386 LINE",
"60 341 LINE",
"110 341 LINE",
"110 0 LINE",
"498 0 LINE",
"498 48 LINE"
);
}
);
width = 538;
},
{
layerId = m002;
paths = (
{
closed = 1;
nodes = (
"317 168 LINE",
"317 299 LINE",
"422 299 LINE",
"422 419 LINE",
"317 419 LINE",
"317 714 LINE",
"107 714 LINE",
"107 417 LINE",
"60 422 LINE",
"60 299 LINE",
"107 299 LINE",
"107 0 LINE",
"605 0 LINE",
"605 168 LINE"
);
}
);
width = 645;
}
);
leftKerningGroup = H;
leftMetricsKey = L;
rightKerningGroup = L;
rightMetricsKey = L;
unicode = 023D;
},
{
color = 10;
glyphname = Lmiddletilde;
lastChange = "2025-09-12 01:01:36 +0000";
layers = (
{
layerId = "FD4D3FDD-DE85-408F-A52A-FF600B1C6101";
paths = (
{
closed = 1;
nodes = (
"572 0 LINE",
"572 48 LINE",
"234 48 LINE",
"234 339 LINE",
"246 335 OFFCURVE",
"258 333 OFFCURVE",
"272 333 CURVE SMOOTH",
"321 333 OFFCURVE",
"354 365 OFFCURVE",
"354 414 CURVE",
"306 414 LINE",
"306 391 OFFCURVE",
"292 376 OFFCURVE",
"272 376 CURVE SMOOTH",
"258 376 OFFCURVE",
"246 379 OFFCURVE",
"234 384 CURVE",
"234 714 LINE",
"184 714 LINE",
"184 405 LINE",
"171 410 OFFCURVE",
"157 413 OFFCURVE",
"142 413 CURVE SMOOTH",
"93 413 OFFCURVE",
"60 381 OFFCURVE",
"60 332 CURVE",
"108 332 LINE",
"108 355 OFFCURVE",
"122 370 OFFCURVE",
"142 370 CURVE SMOOTH",
"156 370 OFFCURVE",
"170 366 OFFCURVE",
"184 360 CURVE",
"184 0 LINE"
);
}
);
width = 612;
},
{
layerId = m002;
paths = (
{
closed = 1;
nodes = (
"693 0 LINE",
"693 168 LINE",
"405 168 LINE",
"405 308 LINE",
"411 308 OFFCURVE",
"419 308 OFFCURVE",
"431 308 CURVE SMOOTH",
"496 308 OFFCURVE",
"541 355 OFFCURVE",
"541 426 CURVE",
"436 426 LINE",
"436 414 OFFCURVE",
"427 406 OFFCURVE",
"413 406 CURVE SMOOTH",
"409 406 OFFCURVE",
"407 406 OFFCURVE",
"405 406 CURVE",
"405 714 LINE",
"195 714 LINE",
"195 428 LINE",
"189 429 OFFCURVE",
"181 430 OFFCURVE",
"172 430 CURVE SMOOTH",
"105 430 OFFCURVE",
"60 383 OFFCURVE",
"60 312 CURVE",
"165 312 LINE",
"165 325 OFFCURVE",
"174 333 OFFCURVE",
"188 333 CURVE SMOOTH",
"191 333 OFFCURVE",
"193 333 OFFCURVE",
"195 333 CURVE",
"195 0 LINE"
);
}
);
width = 733;
}
);
leftKerningGroup = Lmiddletilde;
leftMetricsKey = L;
rightKerningGroup = L;
rightMetricsKey = L;
unicode = 2C62;
},
{
color = 10;
glyphname = Lslash;
lastChange = "2025-09-10 22:15:40 +0000";
layers = (
{
layerId = "FD4D3FDD-DE85-408F-A52A-FF600B1C6101";
paths = (
{
closed = 1;
nodes = (
"181 48 LINE",
"181 404 LINE",
"308 479 LINE",
"308 537 LINE",
"181 462 LINE",
"181 714 LINE",
"131 714 LINE",
"131 432 LINE",
"60 390 LINE",
"60 332 LINE",
"131 374 LINE",
"131 0 LINE",
"519 0 LINE",
"519 48 LINE"
);
}
);
width = 559;
},
{
layerId = m002;
paths = (
{
closed = 1;
nodes = (
"343 168 LINE",
"343 418 LINE",
"428 476 LINE",
"428 612 LINE",
"343 555 LINE",
"343 714 LINE",
"133 714 LINE",
"133 414 LINE",
"60 365 LINE",
"60 227 LINE",
"133 276 LINE",
"133 0 LINE",
"631 0 LINE",
"631 168 LINE"
);
}
);
width = 671;
}
);
leftKerningGroup = H;
leftMetricsKey = N;
rightKerningGroup = L;
rightMetricsKey = A;
unicode = 0141;
},
{
glyphname = M;
lastChange = "2025-08-28 15:00:27 +0000";
layers = (
{
anchors = (
{
name = Bottom;
position = "{390, 0}";
}
);
layerId = "FD4D3FDD-DE85-408F-A52A-FF600B1C6101";
paths = (
{
closed = 1;
nodes = (
"60 0 LINE",
"110 0 LINE",
"110 593 LINE",
"112 593 LINE",
"366 0 LINE",
"414 0 LINE",
"668 593 LINE",
"670 593 LINE",
"670 0 LINE",
"720 0 LINE",
"720 714 LINE",
"663 714 LINE",
"391 79 LINE",
"389 79 LINE",
"117 714 LINE",
"60 714 LINE"
);
}
);
width = 780;
},
{
anchors = (
{
name = Bottom;
position = "{465, 0}";
}
);
layerId = m002;
paths = (
{
closed = 1;
nodes = (
"60 0 LINE",
"270 0 LINE",
"270 323 LINE",
"272 323 LINE",
"400 0 LINE",
"528 0 LINE",
"656 323 LINE",
"658 323 LINE",
"658 0 LINE",
"868 0 LINE",
"868 714 LINE",
"651 714 LINE",
"465 259 LINE",
"463 259 LINE",
"277 714 LINE",
"60 714 LINE"
);
}
);
width = 928;
}
);
leftKerningGroup = H;
leftMetricsKey = N;
rightKerningGroup = H;
rightMetricsKey = N;
unicode = 004D;
},
{
glyphname = N;
lastChange = "2025-08-28 14:59:39 +0000";
layers = (
{
anchors = (
{
name = Bottom;
position = "{321, 0}";
},
{
name = Top;
position = "{326, 714}";
}
);
layerId = "FD4D3FDD-DE85-408F-A52A-FF600B1C6101";
paths = (
{
closed = 1;
nodes = (
"60 714 LINE",
"60 0 LINE",
"110 0 LINE",
"110 626 LINE",
"112 626 LINE",
"535 0 LINE",
"585 0 LINE",
"585 714 LINE",
"535 714 LINE",
"535 88 LINE",
"533 88 LINE",
"110 714 LINE"
);
}
);
width = 645;
},
{
anchors = (
{
name = Bottom;
position = "{421, 0}";
},
{
name = Top;
position = "{426, 714}";
}
);
layerId = m002;
paths = (
{
closed = 1;
nodes = (
"60 714 LINE",
"60 0 LINE",
"270 0 LINE",
"270 379 LINE",
"272 379 LINE",
"545 0 LINE",
"755 0 LINE",
"755 714 LINE",
"545 714 LINE",
"545 335 LINE",
"543 335 LINE",
"270 714 LINE"
);
}
);
width = 815;
}
);
leftKerningGroup = H;
rightKerningGroup = H;
unicode = 004E;
},
{
color = 10;
glyphname = Eng;
lastChange = "2025-09-10 22:15:38 +0000";
layers = (
{
layerId = "FD4D3FDD-DE85-408F-A52A-FF600B1C6101";
paths = (
{
closed = 1;
nodes = (
"60 714 LINE",
"60 0 LINE",
"110 0 LINE",
"110 626 LINE",
"112 626 LINE",
"535 0 LINE",
"535 -68 LINE SMOOTH",
"535 -142 OFFCURVE",
"489 -186 OFFCURVE",
"410 -186 CURVE SMOOTH",
"387 -186 OFFCURVE",
"366 -181 OFFCURVE",
"353 -172 CURVE",
"353 -220 LINE",
"371 -228 OFFCURVE",
"392 -233 OFFCURVE",
"409 -233 CURVE SMOOTH",
"520 -233 OFFCURVE",
"585 -172 OFFCURVE",
"585 -68 CURVE SMOOTH",
"585 714 LINE",
"535 714 LINE",
"535 88 LINE",
"533 88 LINE",
"110 714 LINE"
);
}
);
width = 645;
},
{
layerId = m002;
paths = (
{
closed = 1;
nodes = (
"60 714 LINE",
"60 0 LINE",
"270 0 LINE",
"270 379 LINE",
"272 379 LINE",
"545 1 LINE",
"545 -5 LINE",
"545 -44 OFFCURVE",
"518 -67 OFFCURVE",
"485 -67 CURVE SMOOTH",
"463 -67 OFFCURVE",
"440 -61 OFFCURVE",
"423 -52 CURVE",
"423 -220 LINE",
"441 -228 OFFCURVE",
"464 -233 OFFCURVE",
"484 -233 CURVE SMOOTH",
"654 -233 OFFCURVE",
"755 -153 OFFCURVE",
"755 -18 CURVE SMOOTH",
"755 714 LINE",
"545 714 LINE",
"545 335 LINE",
"543 335 LINE",
"270 714 LINE"
);
}
);
width = 815;
}
);
leftKerningGroup = H;
leftMetricsKey = N;
rightKerningGroup = H;
rightMetricsKey = N;
unicode = 014A;
},
{
glyphname = O;
lastChange = "2025-09-15 16:39:25 +0000";
layers = (
{
anchors = (
{
name = Bottom;
position = "{367, 0}";
},
{
name = Greek;
position = "{-13, 558}";
},
{
name = Top;
position = "{366, 726}";
}
);
layerId = "FD4D3FDD-DE85-408F-A52A-FF600B1C6101";
paths = (
{
closed = 1;
nodes = (
"556 -13 OFFCURVE",
"683 135 OFFCURVE",
"683 356 CURVE SMOOTH",
"683 578 OFFCURVE",
"556 726 OFFCURVE",
"366 726 CURVE SMOOTH",
"176 726 OFFCURVE",
"50 578 OFFCURVE",
"50 356 CURVE SMOOTH",
"50 135 OFFCURVE",
"176 -13 OFFCURVE",
"366 -13 CURVE SMOOTH"
);
},
{
closed = 1;
nodes = (
"100 549 OFFCURVE",
"206 677 OFFCURVE",
"366 677 CURVE SMOOTH",
"526 677 OFFCURVE",
"633 549 OFFCURVE",
"633 356 CURVE SMOOTH",
"633 163 OFFCURVE",
"526 35 OFFCURVE",
"366 35 CURVE SMOOTH",
"206 35 OFFCURVE",
"100 163 OFFCURVE",
"100 356 CURVE SMOOTH"
);
}
);
width = 733;
},
{
anchors = (
{
name = Bottom;
position = "{409, 0}";
},
{
name = Greek;
position = "{-23, 558}";
},
{
name = Top;
position = "{409, 726}";
}
);
layerId = m002;
paths = (
{
closed = 1;
nodes = (
"640 -13 OFFCURVE",
"777 124 OFFCURVE",
"777 356 CURVE SMOOTH",
"777 589 OFFCURVE",
"640 726 OFFCURVE",
"408 726 CURVE SMOOTH",
"177 726 OFFCURVE",
"40 589 OFFCURVE",
"40 356 CURVE SMOOTH",
"40 124 OFFCURVE",
"177 -13 OFFCURVE",
"408 -13 CURVE SMOOTH"
);
},
{
closed = 1;
nodes = (
"260 483 OFFCURVE",
"315 558 OFFCURVE",
"408 558 CURVE SMOOTH",
"502 558 OFFCURVE",
"557 483 OFFCURVE",
"557 356 CURVE SMOOTH",
"557 230 OFFCURVE",
"502 155 OFFCURVE",
"408 155 CURVE SMOOTH",
"315 155 OFFCURVE",
"260 230 OFFCURVE",
"260 356 CURVE SMOOTH"
);
}
);
width = 817;
}
);
leftKerningGroup = O;
rightKerningGroup = O;
unicode = 004F;
},
{
color = 10;
glyphname = Oopen;
lastChange = "2025-09-10 22:15:31 +0000";
layers = (
{
layerId = "FD4D3FDD-DE85-408F-A52A-FF600B1C6101";
paths = (
{
closed = 1;
nodes = (
"50 607 LINE",
"96 650 OFFCURVE",
"177 678 OFFCURVE",
"251 678 CURVE SMOOTH",
"401 678 OFFCURVE",
"501 550 OFFCURVE",
"501 357 CURVE SMOOTH",
"501 164 OFFCURVE",
"399 35 OFFCURVE",
"245 35 CURVE SMOOTH",
"173 35 OFFCURVE",
"95 63 OFFCURVE",
"50 105 CURVE",
"50 49 LINE",
"92 12 OFFCURVE",
"170 -13 OFFCURVE",
"245 -13 CURVE SMOOTH",
"429 -13 OFFCURVE",
"551 135 OFFCURVE",
"551 357 CURVE SMOOTH",
"551 578 OFFCURVE",
"431 726 OFFCURVE",
"251 726 CURVE SMOOTH",
"175 726 OFFCURVE",
"95 702 OFFCURVE",
"50 666 CURVE"
);
}
);
width = 601;
},
{
layerId = m002;
paths = (
{
closed = 1;
nodes = (
"40 506 LINE",
"76 539 OFFCURVE",
"127 558 OFFCURVE",
"176 558 CURVE SMOOTH",
"289 558 OFFCURVE",
"355 483 OFFCURVE",
"355 357 CURVE SMOOTH",
"355 230 OFFCURVE",
"297 155 OFFCURVE",
"200 155 CURVE SMOOTH",
"135 155 OFFCURVE",
"76 174 OFFCURVE",
"40 206 CURVE",
"40 8 LINE",
"86 -5 OFFCURVE",
"145 -13 OFFCURVE",
"200 -13 CURVE SMOOTH",
"436 -13 OFFCURVE",
"575 124 OFFCURVE",
"575 357 CURVE SMOOTH",
"575 589 OFFCURVE",
"432 726 OFFCURVE",
"190 726 CURVE SMOOTH",
"147 726 OFFCURVE",
"92 717 OFFCURVE",
"40 703 CURVE"
);
}
);
width = 615;
}
);
leftKerningGroup = O;
leftMetricsKey = O;
rightKerningGroup = O;
rightMetricsKey = O;
unicode = 0186;
},
{
color = 10;
glyphname = Oslash;
lastChange = "2025-09-10 22:15:27 +0000";
layers = (
{
anchors = (
{
name = Top;
position = "{366, 726}";
}
);
layerId = "FD4D3FDD-DE85-408F-A52A-FF600B1C6101";
paths = (
{
closed = 1;
nodes = (
"556 -13 OFFCURVE",
"683 135 OFFCURVE",
"683 356 CURVE SMOOTH",
"683 512 OFFCURVE",
"620 632 OFFCURVE",
"517 689 CURVE",
"549 778 LINE",
"491 778 LINE",
"467 711 LINE",
"436 721 OFFCURVE",
"402 726 OFFCURVE",
"366 726 CURVE SMOOTH",
"176 726 OFFCURVE",
"50 578 OFFCURVE",
"50 356 CURVE SMOOTH",
"50 200 OFFCURVE",
"113 80 OFFCURVE",
"217 23 CURVE",
"185 -64 LINE",
"243 -64 LINE",
"267 2 LINE",
"297 -8 OFFCURVE",
"331 -13 OFFCURVE",
"366 -13 CURVE SMOOTH"
);
},
{
closed = 1;
nodes = (
"100 616 OFFCURVE",
"292 719 OFFCURVE",
"450 664 CURVE",
"234 70 LINE",
"150 121 OFFCURVE",
"100 223 OFFCURVE",
"100 356 CURVE SMOOTH"
);
},
{
closed = 1;
nodes = (
"499 641 LINE",
"583 590 OFFCURVE",
"633 488 OFFCURVE",
"633 356 CURVE SMOOTH",
"633 90 OFFCURVE",
"433 -5 OFFCURVE",
"284 48 CURVE"
);
}
);
width = 733;
},
{
anchors = (
{
name = Top;
position = "{388, 726}";
}
);
layerId = m002;
paths = (
{
closed = 1;
nodes = (
"597 -13 OFFCURVE",
"737 135 OFFCURVE",
"737 356 CURVE SMOOTH",
"737 495 OFFCURVE",
"682 605 OFFCURVE",
"590 668 CURVE",
"630 778 LINE",
"454 778 LINE",
"434 723 LINE",
"419 725 OFFCURVE",
"404 726 OFFCURVE",
"388 726 CURVE SMOOTH",
"179 726 OFFCURVE",
"40 578 OFFCURVE",
"40 356 CURVE SMOOTH",
"40 217 OFFCURVE",
"95 107 OFFCURVE",
"187 45 CURVE",
"148 -64 LINE",
"324 -64 LINE",
"343 -11 LINE",
"358 -12 OFFCURVE",
"373 -13 OFFCURVE",
"388 -13 CURVE SMOOTH"
);
},
{
closed = 1;
nodes = (
"210 472 OFFCURVE",
"275 551 OFFCURVE",
"374 558 CURVE",
"251 220 LINE",
"225 254 OFFCURVE",
"210 301 OFFCURVE",
"210 356 CURVE SMOOTH"
);
},
{
closed = 1;
nodes = (
"526 492 LINE",
"552 457 OFFCURVE",
"567 411 OFFCURVE",
"567 356 CURVE SMOOTH",
"567 241 OFFCURVE",
"502 163 OFFCURVE",
"404 156 CURVE"
);
}
);
width = 777;
}
);
leftKerningGroup = O;
leftMetricsKey = O;
rightKerningGroup = O;
rightMetricsKey = O;
unicode = 00D8;
},
{
color = 10;
glyphname = OE;
lastChange = "2025-09-10 22:15:24 +0000";
layers = (
{
layerId = "FD4D3FDD-DE85-408F-A52A-FF600B1C6101";
paths = (
{
closed = 1;
nodes = (
"594 392 LINE",
"594 666 LINE",
"935 666 LINE",
"935 714 LINE",
"370 714 LINE SMOOTH",
"178 714 OFFCURVE",
"50 571 OFFCURVE",
"50 357 CURVE SMOOTH",
"50 143 OFFCURVE",
"178 0 OFFCURVE",
"370 0 CURVE SMOOTH",
"935 0 LINE",
"935 48 LINE",
"594 48 LINE",
"594 344 LINE",
"914 344 LINE",
"914 392 LINE"
);
},
{
closed = 1;
nodes = (
"100 542 OFFCURVE",
"208 666 OFFCURVE",
"370 666 CURVE SMOOTH",
"544 666 LINE",
"544 48 LINE",
"370 48 LINE SMOOTH",
"208 48 OFFCURVE",
"100 171 OFFCURVE",
"100 356 CURVE SMOOTH"
);
}
);
width = 985;
},
{
layerId = m002;
paths = (
{
closed = 1;
nodes = (
"684 452 LINE",
"684 546 LINE",
"990 546 LINE",
"990 714 LINE",
"415 714 LINE SMOOTH",
"179 714 OFFCURVE",
"40 581 OFFCURVE",
"40 357 CURVE SMOOTH",
"40 133 OFFCURVE",
"179 0 OFFCURVE",
"415 0 CURVE SMOOTH",
"990 0 LINE",
"990 168 LINE",
"684 168 LINE",
"684 284 LINE",
"969 284 LINE",
"969 452 LINE"
);
},
{
closed = 1;
nodes = (
"260 476 OFFCURVE",
"318 546 OFFCURVE",
"415 546 CURVE SMOOTH",
"474 546 LINE",
"474 168 LINE",
"415 168 LINE SMOOTH",
"318 168 OFFCURVE",
"260 238 OFFCURVE",
"260 357 CURVE SMOOTH"
);
}
);
width = 1030;
}
);
leftKerningGroup = O;
leftMetricsKey = O;
rightKerningGroup = E;
rightMetricsKey = E;
unicode = 0152;
},
{
glyphname = P;
lastChange = "2025-08-28 15:00:41 +0000";
layers = (
{
anchors = (
{
name = Bottom;
position = "{254, 0}";
},
{
name = Top;
position = "{240, 714}";
}
);
layerId = "FD4D3FDD-DE85-408F-A52A-FF600B1C6101";
paths = (
{
closed = 1;
nodes = (
"110 291 LINE",
"298 291 LINE SMOOTH",
"414 291 OFFCURVE",
"492 376 OFFCURVE",
"492 503 CURVE SMOOTH",
"492 630 OFFCURVE",
"410 714 OFFCURVE",
"287 714 CURVE SMOOTH",
"60 714 LINE",
"60 0 LINE",
"110 0 LINE"
);
},
{
closed = 1;
nodes = (
"110 666 LINE",
"287 666 LINE SMOOTH",
"380 666 OFFCURVE",
"442 601 OFFCURVE",
"442 503 CURVE SMOOTH",
"442 404 OFFCURVE",
"384 338 OFFCURVE",
"298 338 CURVE SMOOTH",
"110 338 LINE"
);
}
);
width = 532;
},
{
anchors = (
{
name = Bottom;
position = "{314, 0}";
},
{
name = Top;
position = "{300, 714}";
}
);
layerId = m002;
paths = (
{
closed = 1;
nodes = (
"270 221 LINE",
"388 221 LINE SMOOTH",
"567 221 OFFCURVE",
"672 313 OFFCURVE",
"672 468 CURVE SMOOTH",
"672 623 OFFCURVE",
"562 714 OFFCURVE",
"377 714 CURVE SMOOTH",
"60 714 LINE",
"60 0 LINE",
"270 0 LINE"
);
},
{
closed = 1;
nodes = (
"270 546 LINE",
"377 546 LINE SMOOTH",
"430 546 OFFCURVE",
"462 517 OFFCURVE",
"462 468 CURVE SMOOTH",
"462 418 OFFCURVE",
"435 389 OFFCURVE",
"388 389 CURVE SMOOTH",
"270 389 LINE"
);
}
);
width = 712;
}
);
leftKerningGroup = H;
leftMetricsKey = N;
rightKerningGroup = P;
unicode = 0050;
},
{
color = 10;
glyphname = Thorn;
lastChange = "2025-09-10 22:15:21 +0000";
layers = (
{
layerId = "FD4D3FDD-DE85-408F-A52A-FF600B1C6101";
paths = (
{
closed = 1;
nodes = (
"110 151 LINE",
"308 151 LINE SMOOTH",
"436 151 OFFCURVE",
"512 227 OFFCURVE",
"512 355 CURVE SMOOTH",
"512 493 OFFCURVE",
"432 574 OFFCURVE",
"297 574 CURVE SMOOTH",
"110 574 LINE",
"110 714 LINE",
"60 714 LINE",
"60 0 LINE",
"110 0 LINE"
);
},
{
closed = 1;
nodes = (
"110 526 LINE",
"297 526 LINE SMOOTH",
"401 526 OFFCURVE",
"462 463 OFFCURVE",
"462 357 CURVE SMOOTH",
"462 257 OFFCURVE",
"405 198 OFFCURVE",
"308 198 CURVE SMOOTH",
"110 198 LINE"
);
}
);
width = 552;
},
{
layerId = m002;
paths = (
{
closed = 1;
nodes = (
"270 110 LINE",
"388 110 LINE SMOOTH",
"567 110 OFFCURVE",
"672 202 OFFCURVE",
"672 357 CURVE SMOOTH",
"672 512 OFFCURVE",
"562 603 OFFCURVE",
"377 603 CURVE SMOOTH",
"270 603 LINE",
"270 714 LINE",
"60 714 LINE",
"60 0 LINE",
"270 0 LINE"
);
},
{
closed = 1;
nodes = (
"270 435 LINE",
"377 435 LINE SMOOTH",
"430 435 OFFCURVE",
"462 406 OFFCURVE",
"462 357 CURVE SMOOTH",
"462 307 OFFCURVE",
"435 278 OFFCURVE",
"388 278 CURVE SMOOTH",
"270 278 LINE"
);
}
);
width = 712;
}
);
leftKerningGroup = H;
leftMetricsKey = P;
rightKerningGroup = P;
rightMetricsKey = P;
unicode = 00DE;
},
{
glyphname = Q;
lastChange = "2025-08-28 15:00:38 +0000";
layers = (
{
layerId = "FD4D3FDD-DE85-408F-A52A-FF600B1C6101";
paths = (
{
closed = 1;
nodes = (
"424 -13 OFFCURVE",
"475 -1 OFFCURVE",
"519 21 CURVE",
"562 -54 LINE",
"605 -29 LINE",
"561 48 LINE",
"639 109 OFFCURVE",
"683 215 OFFCURVE",
"683 356 CURVE SMOOTH",
"683 589 OFFCURVE",
"565 726 OFFCURVE",
"366 726 CURVE SMOOTH",
"167 726 OFFCURVE",
"50 589 OFFCURVE",
"50 356 CURVE SMOOTH",
"50 124 OFFCURVE",
"167 -13 OFFCURVE",
"366 -13 CURVE SMOOTH"
);
},
{
closed = 1;
nodes = (
"100 558 OFFCURVE",
"199 678 OFFCURVE",
"366 678 CURVE SMOOTH",
"534 678 OFFCURVE",
"633 558 OFFCURVE",
"633 356 CURVE SMOOTH",
"633 236 OFFCURVE",
"598 146 OFFCURVE",
"535 92 CURVE",
"465 213 LINE",
"422 188 LINE",
"494 64 LINE",
"457 45 OFFCURVE",
"415 35 OFFCURVE",
"366 35 CURVE SMOOTH",
"199 35 OFFCURVE",
"100 154 OFFCURVE",
"100 356 CURVE SMOOTH"
);
}
);
width = 733;
},
{
layerId = m002;
paths = (
{
closed = 1;
nodes = (
"445 -13 OFFCURVE",
"480 -9 OFFCURVE",
"512 -3 CURVE",
"559 -84 LINE",
"689 -9 LINE",
"650 59 LINE",
"732 121 OFFCURVE",
"777 223 OFFCURVE",
"777 356 CURVE SMOOTH",
"777 589 OFFCURVE",
"640 726 OFFCURVE",
"408 726 CURVE SMOOTH",
"177 726 OFFCURVE",
"40 589 OFFCURVE",
"40 356 CURVE SMOOTH",
"40 124 OFFCURVE",
"177 -13 OFFCURVE",
"408 -13 CURVE SMOOTH"
);
},
{
closed = 1;
nodes = (
"250 483 OFFCURVE",
"309 558 OFFCURVE",
"408 558 CURVE SMOOTH",
"508 558 OFFCURVE",
"567 483 OFFCURVE",
"567 356 CURVE SMOOTH",
"567 310 OFFCURVE",
"559 272 OFFCURVE",
"545 241 CURVE",
"519 285 LINE",
"389 210 LINE",
"421 155 LINE",
"416 155 OFFCURVE",
"412 155 OFFCURVE",
"408 155 CURVE",
"309 155 OFFCURVE",
"250 230 OFFCURVE",
"250 356 CURVE SMOOTH"
);
}
);
width = 817;
}
);
leftKerningGroup = O;
leftMetricsKey = O;
rightKerningGroup = O;
rightMetricsKey = O;
unicode = 0051;
},
{
glyphname = R;
lastChange = "2025-08-28 15:00:46 +0000";
layers = (
{
anchors = (
{
name = Bottom;
position = "{275, 0}";
},
{
name = Top;
position = "{248, 714}";
}
);
layerId = "FD4D3FDD-DE85-408F-A52A-FF600B1C6101";
paths = (
{
closed = 1;
nodes = (
"110 291 LINE",
"306 291 LINE",
"475 0 LINE",
"532 0 LINE",
"360 298 LINE",
"450 319 OFFCURVE",
"502 389 OFFCURVE",
"502 495 CURVE SMOOTH",
"502 633 OFFCURVE",
"422 714 OFFCURVE",
"287 714 CURVE SMOOTH",
"60 714 LINE",
"60 0 LINE",
"110 0 LINE"
);
},
{
closed = 1;
nodes = (
"110 666 LINE",
"287 666 LINE SMOOTH",
"391 666 OFFCURVE",
"452 603 OFFCURVE",
"452 497 CURVE SMOOTH",
"452 397 OFFCURVE",
"395 338 OFFCURVE",
"298 338 CURVE SMOOTH",
"110 338 LINE"
);
}
);
width = 572;
},
{
anchors = (
{
name = Bottom;
position = "{365, 0}";
},
{
name = Top;
position = "{318, 714}";
}
);
layerId = m002;
paths = (
{
closed = 1;
nodes = (
"270 240 LINE",
"338 240 LINE",
"477 0 LINE",
"693 0 LINE",
"539 266 LINE",
"624 302 OFFCURVE",
"672 375 OFFCURVE",
"672 477 CURVE SMOOTH",
"672 626 OFFCURVE",
"566 714 OFFCURVE",
"387 714 CURVE SMOOTH",
"60 714 LINE",
"60 0 LINE",
"270 0 LINE"
);
},
{
closed = 1;
nodes = (
"270 546 LINE",
"387 546 LINE SMOOTH",
"434 546 OFFCURVE",
"462 520 OFFCURVE",
"462 477 CURVE SMOOTH",
"462 434 OFFCURVE",
"438 408 OFFCURVE",
"398 408 CURVE SMOOTH",
"270 408 LINE"
);
}
);
width = 733;
}
);
leftKerningGroup = H;
leftMetricsKey = N;
rightKerningGroup = R;
unicode = 0052;
},
{
glyphname = S;
lastChange = "2025-09-10 23:57:13 +0000";
layers = (
{
anchors = (
{
name = Bottom;
position = "{314, 0}";
},
{
name = Top;
position = "{302, 726}";
}
);
layerId = "FD4D3FDD-DE85-408F-A52A-FF600B1C6101";
paths = (
{
closed = 1;
nodes = (
"156 726 OFFCURVE",
"70 652 OFFCURVE",
"70 527 CURVE SMOOTH",
"70 292 OFFCURVE",
"501 384 OFFCURVE",
"501 189 CURVE SMOOTH",
"501 92 OFFCURVE",
"433 35 OFFCURVE",
"318 35 CURVE SMOOTH",
"175 35 OFFCURVE",
"90 108 OFFCURVE",
"90 231 CURVE",
"40 231 LINE",
"40 78 OFFCURVE",
"142 -13 OFFCURVE",
"314 -13 CURVE SMOOTH",
"463 -13 OFFCURVE",
"551 64 OFFCURVE",
"551 195 CURVE SMOOTH",
"551 426 OFFCURVE",
"120 341 OFFCURVE",
"120 531 CURVE SMOOTH",
"120 623 OFFCURVE",
"188 678 OFFCURVE",
"302 678 CURVE SMOOTH",
"420 678 OFFCURVE",
"490 613 OFFCURVE",
"490 504 CURVE",
"540 504 LINE",
"540 644 OFFCURVE",
"452 726 OFFCURVE",
"302 726 CURVE SMOOTH"
);
}
);
width = 591;
},
{
anchors = (
{
name = Bottom;
position = "{378, 0}";
},
{
name = Top;
position = "{367, 726}";
}
);
layerId = m002;
paths = (
{
closed = 1;
nodes = (
"180 726 OFFCURVE",
"70 644 OFFCURVE",
"70 506 CURVE SMOOTH",
"70 227 OFFCURVE",
"471 313 OFFCURVE",
"471 215 CURVE SMOOTH",
"471 177 OFFCURVE",
"437 155 OFFCURVE",
"379 155 CURVE SMOOTH",
"298 155 OFFCURVE",
"250 193 OFFCURVE",
"250 256 CURVE",
"40 256 LINE",
"40 87 OFFCURVE",
"166 -13 OFFCURVE",
"379 -13 CURVE SMOOTH",
"569 -13 OFFCURVE",
"681 72 OFFCURVE",
"681 215 CURVE SMOOTH",
"681 490 OFFCURVE",
"280 410 OFFCURVE",
"280 506 CURVE SMOOTH",
"280 539 OFFCURVE",
"312 558 OFFCURVE",
"367 558 CURVE SMOOTH",
"425 558 OFFCURVE",
"460 529 OFFCURVE",
"460 479 CURVE",
"670 479 LINE",
"670 634 OFFCURVE",
"557 726 OFFCURVE",
"367 726 CURVE SMOOTH"
);
}
);
width = 721;
}
);
leftKerningGroup = S;
rightKerningGroup = S;
unicode = 0053;
},
{
color = 10;
glyphname = Saltillo;
lastChange = "2025-09-10 22:15:18 +0000";
layers = (
{
layerId = "FD4D3FDD-DE85-408F-A52A-FF600B1C6101";
paths = (
{
closed = 1;
nodes = (
"60 409 LINE",
"65 196 LINE",
"105 196 LINE",
"110 409 LINE",
"110 731 LINE",
"60 731 LINE"
);
}
);
width = 170;
},
{
layerId = m002;
paths = (
{
closed = 1;
nodes = (
"60 409 LINE",
"65 196 LINE",
"225 196 LINE",
"230 409 LINE",
"230 731 LINE",
"60 731 LINE"
);
}
);
width = 290;
}
);
leftKerningGroup = H;
leftMetricsKey = N;
rightKerningGroup = H;
rightMetricsKey = N;
unicode = A78B;
},
{
color = 10;
glyphname = Germandbls;
lastChange = "2025-09-10 22:15:15 +0000";
layers = (
{
layerId = "FD4D3FDD-DE85-408F-A52A-FF600B1C6101";
paths = (
{
closed = 1;
nodes = (
"457 -13 OFFCURVE",
"541 79 OFFCURVE",
"541 217 CURVE SMOOTH",
"541 350 OFFCURVE",
"438 441 OFFCURVE",
"283 447 CURVE",
"475 666 LINE",
"475 714 LINE",
"60 714 LINE",
"60 0 LINE",
"110 0 LINE",
"110 666 LINE",
"413 666 LINE",
"220 446 LINE",
"220 398 LINE",
"240 398 LINE SMOOTH",
"391 398 OFFCURVE",
"491 326 OFFCURVE",
"491 217 CURVE SMOOTH",
"491 108 OFFCURVE",
"427 35 OFFCURVE",
"330 35 CURVE",
"330 -13 LINE"
);
}
);
width = 591;
},
{
layerId = m002;
paths = (
{
closed = 1;
nodes = (
"563 -13 OFFCURVE",
"671 72 OFFCURVE",
"671 217 CURVE SMOOTH",
"671 323 OFFCURVE",
"617 396 OFFCURVE",
"521 429 CURVE",
"615 546 LINE",
"615 714 LINE",
"60 714 LINE",
"60 0 LINE",
"270 0 LINE",
"270 546 LINE",
"409 546 LINE",
"320 436 LINE",
"320 278 LINE",
"340 278 LINE SMOOTH",
"410 278 OFFCURVE",
"451 255 OFFCURVE",
"451 217 CURVE SMOOTH",
"451 178 OFFCURVE",
"425 155 OFFCURVE",
"380 155 CURVE",
"380 -13 LINE"
);
}
);
width = 711;
}
);
leftKerningGroup = H;
leftMetricsKey = B;
rightKerningGroup = B;
rightMetricsKey = O;
unicode = 1E9E;
},
{
color = 10;
glyphname = Schwa;
lastChange = "2025-09-10 22:15:01 +0000";
layers = (
{
layerId = "FD4D3FDD-DE85-408F-A52A-FF600B1C6101";
paths = (
{
closed = 1;
nodes = (
"107 492 LINE",
"130 604 OFFCURVE",
"223 678 OFFCURVE",
"340 678 CURVE SMOOTH",
"485 678 OFFCURVE",
"581 552 OFFCURVE",
"581 364 CURVE SMOOTH",
"581 356 LINE",
"50 356 LINE",
"50 127 OFFCURVE",
"161 -13 OFFCURVE",
"328 -13 CURVE SMOOTH",
"510 -13 OFFCURVE",
"631 138 OFFCURVE",
"631 364 CURVE SMOOTH",
"631 581 OFFCURVE",
"515 726 OFFCURVE",
"342 726 CURVE SMOOTH",
"197 726 OFFCURVE",
"83 632 OFFCURVE",
"57 492 CURVE"
);
},
{
closed = 1;
nodes = (
"578 308 LINE",
"561 142 OFFCURVE",
"469 35 OFFCURVE",
"336 35 CURVE SMOOTH",
"194 35 OFFCURVE",
"100 144 OFFCURVE",
"100 308 CURVE"
);
}
);
width = 681;
},
{
layerId = m002;
paths = (
{
closed = 1;
nodes = (
"250 452 LINE",
"264 519 OFFCURVE",
"317 558 OFFCURVE",
"393 558 CURVE SMOOTH",
"476 558 OFFCURVE",
"529 503 OFFCURVE",
"541 408 CURVE",
"43 408 LINE",
"43 328 LINE SMOOTH",
"43 114 OFFCURVE",
"178 -13 OFFCURVE",
"406 -13 CURVE SMOOTH",
"625 -13 OFFCURVE",
"754 127 OFFCURVE",
"754 364 CURVE SMOOTH",
"754 592 OFFCURVE",
"621 726 OFFCURVE",
"395 726 CURVE SMOOTH",
"203 726 OFFCURVE",
"71 624 OFFCURVE",
"40 452 CURVE"
);
},
{
closed = 1;
nodes = (
"529 258 LINE",
"507 192 OFFCURVE",
"462 155 OFFCURVE",
"399 155 CURVE SMOOTH",
"315 155 OFFCURVE",
"263 193 OFFCURVE",
"254 258 CURVE"
);
}
);
width = 794;
}
);
leftKerningGroup = O;
leftMetricsKey = O;
rightKerningGroup = O;
rightMetricsKey = O;
unicode = 018F;
},
{
glyphname = T;
lastChange = "2025-09-12 18:07:18 +0000";
layers = (
{
anchors = (
{
name = Bottom;
position = "{290, 0}";
},
{
name = Top;
position = "{290, 714}";
}
);
layerId = "FD4D3FDD-DE85-408F-A52A-FF600B1C6101";
paths = (
{
closed = 1;
nodes = (
"30 714 LINE",
"30 666 LINE",
"265 666 LINE",
"265 0 LINE",
"315 0 LINE",
"315 666 LINE",
"549 666 LINE",
"549 714 LINE"
);
}
);
width = 579;
},
{
anchors = (
{
name = Bottom;
position = "{335, 0}";
},
{
name = Top;
position = "{335, 714}";
}
);
layerId = m002;
paths = (
{
closed = 1;
nodes = (
"30 714 LINE",
"30 546 LINE",
"230 546 LINE",
"230 0 LINE",
"440 0 LINE",
"440 546 LINE",
"639 546 LINE",
"639 714 LINE"
);
}
);
width = 669;
}
);
leftKerningGroup = T;
rightKerningGroup = T;
unicode = 0054;
},
{
color = 10;
glyphname = Tbar;
lastChange = "2025-09-10 22:14:58 +0000";
layers = (
{
layerId = "FD4D3FDD-DE85-408F-A52A-FF600B1C6101";
paths = (
{
closed = 1;
nodes = (
"30 714 LINE",
"30 666 LINE",
"265 666 LINE",
"265 412 LINE",
"70 417 LINE",
"70 372 LINE",
"265 372 LINE",
"265 0 LINE",
"315 0 LINE",
"315 372 LINE",
"509 372 LINE",
"509 414 LINE",
"315 414 LINE",
"315 666 LINE",
"549 666 LINE",
"549 714 LINE"
);
}
);
width = 579;
},
{
layerId = m002;
paths = (
{
closed = 1;
nodes = (
"30 714 LINE",
"30 546 LINE",
"230 546 LINE",
"230 402 LINE",
"71 407 LINE",
"71 284 LINE",
"230 284 LINE",
"230 0 LINE",
"440 0 LINE",
"440 284 LINE",
"599 284 LINE",
"599 404 LINE",
"440 404 LINE",
"440 546 LINE",
"639 546 LINE",
"639 714 LINE"
);
}
);
width = 669;
}
);
leftKerningGroup = T;
leftMetricsKey = T;
rightKerningGroup = T;
rightMetricsKey = T;
unicode = 0166;
},
{
color = 10;
glyphname = Tdiagonalstroke;
lastChange = "2025-09-10 22:14:55 +0000";
layers = (
{
layerId = "FD4D3FDD-DE85-408F-A52A-FF600B1C6101";
paths = (
{
closed = 1;
nodes = (
"466 714 LINE",
"488 772 LINE",
"438 772 LINE",
"416 714 LINE",
"30 714 LINE",
"30 666 LINE",
"265 666 LINE",
"265 320 LINE",
"122 -53 LINE",
"172 -53 LINE",
"265 190 LINE",
"265 0 LINE",
"315 0 LINE",
"315 320 LINE",
"447 666 LINE",
"549 666 LINE",
"549 714 LINE"
);
},
{
closed = 1;
nodes = (
"315 666 LINE",
"397 666 LINE",
"315 451 LINE"
);
}
);
width = 579;
},
{
layerId = m002;
paths = (
{
closed = 1;
nodes = (
"592 714 LINE",
"614 772 LINE",
"564 772 LINE",
"542 714 LINE",
"30 714 LINE",
"30 546 LINE",
"230 546 LINE",
"230 0 LINE",
"268 0 LINE",
"248 -53 LINE",
"298 -53 LINE",
"318 0 LINE",
"440 0 LINE",
"440 318 LINE",
"527 546 LINE",
"639 546 LINE",
"639 714 LINE"
);
},
{
closed = 1;
nodes = (
"440 546 LINE",
"477 546 LINE",
"440 448 LINE"
);
}
);
width = 669;
}
);
leftKerningGroup = T;
leftMetricsKey = T;
rightKerningGroup = T;
rightMetricsKey = T;
unicode = 023E;
},
{
glyphname = U;
lastChange = "2025-08-28 15:01:05 +0000";
layers = (
{
anchors = (
{
name = Bottom;
position = "{322, 0}";
},
{
name = Top;
position = "{322, 714}";
}
);
layerId = "FD4D3FDD-DE85-408F-A52A-FF600B1C6101";
paths = (
{
closed = 1;
nodes = (
"50 90 OFFCURVE",
"151 -13 OFFCURVE",
"321 -13 CURVE SMOOTH",
"493 -13 OFFCURVE",
"594 90 OFFCURVE",
"594 265 CURVE SMOOTH",
"594 714 LINE",
"544 714 LINE",
"544 275 LINE SMOOTH",
"544 124 OFFCURVE",
"461 35 OFFCURVE",
"321 35 CURVE SMOOTH",
"182 36 OFFCURVE",
"100 125 OFFCURVE",
"100 275 CURVE SMOOTH",
"100 714 LINE",
"50 714 LINE",
"50 265 LINE SMOOTH"
);
}
);
width = 644;
},
{
anchors = (
{
name = Bottom;
position = "{371, 0}";
},
{
name = Top;
position = "{371, 714}";
}
);
layerId = m002;
paths = (
{
closed = 1;
nodes = (
"50 94 OFFCURVE",
"169 -13 OFFCURVE",
"371 -13 CURVE SMOOTH",
"574 -13 OFFCURVE",
"694 94 OFFCURVE",
"694 275 CURVE SMOOTH",
"694 714 LINE",
"484 714 LINE",
"484 265 LINE SMOOTH",
"484 196 OFFCURVE",
"442 155 OFFCURVE",
"371 155 CURVE SMOOTH",
"301 156 OFFCURVE",
"260 197 OFFCURVE",
"260 265 CURVE SMOOTH",
"260 714 LINE",
"50 714 LINE",
"50 275 LINE SMOOTH"
);
}
);
width = 744;
}
);
leftKerningGroup = U;
rightKerningGroup = U;
unicode = 0055;
},
{
color = 10;
glyphname = "Upsilon-latin";
lastChange = "2025-09-10 22:14:52 +0000";
layers = (
{
layerId = "FD4D3FDD-DE85-408F-A52A-FF600B1C6101";
paths = (
{
closed = 1;
nodes = (
"556 -13 OFFCURVE",
"682 123 OFFCURVE",
"682 327 CURVE SMOOTH",
"682 485 OFFCURVE",
"597 614 OFFCURVE",
"463 666 CURVE",
"671 666 LINE",
"671 714 LINE",
"396 714 LINE",
"396 666 LINE",
"538 618 OFFCURVE",
"632 482 OFFCURVE",
"632 327 CURVE SMOOTH",
"632 152 OFFCURVE",
"526 35 OFFCURVE",
"366 35 CURVE SMOOTH",
"206 35 OFFCURVE",
"100 152 OFFCURVE",
"100 327 CURVE SMOOTH",
"100 482 OFFCURVE",
"194 618 OFFCURVE",
"336 666 CURVE",
"336 714 LINE",
"61 714 LINE",
"61 666 LINE",
"269 666 LINE",
"135 614 OFFCURVE",
"50 485 OFFCURVE",
"50 327 CURVE SMOOTH",
"50 123 OFFCURVE",
"176 -13 OFFCURVE",
"366 -13 CURVE SMOOTH"
);
}
);
width = 732;
},
{
layerId = m002;
paths = (
{
closed = 1;
nodes = (
"642 -13 OFFCURVE",
"777 99 OFFCURVE",
"777 289 CURVE SMOOTH",
"777 404 OFFCURVE",
"717 494 OFFCURVE",
"611 546 CURVE",
"786 546 LINE",
"786 714 LINE",
"443 714 LINE",
"443 546 LINE",
"515 519 OFFCURVE",
"557 451 OFFCURVE",
"557 362 CURVE SMOOTH",
"557 256 OFFCURVE",
"504 194 OFFCURVE",
"413 194 CURVE SMOOTH",
"322 194 OFFCURVE",
"269 256 OFFCURVE",
"269 362 CURVE SMOOTH",
"269 451 OFFCURVE",
"311 519 OFFCURVE",
"383 546 CURVE",
"383 714 LINE",
"40 714 LINE",
"40 546 LINE",
"215 546 LINE",
"109 494 OFFCURVE",
"49 404 OFFCURVE",
"49 289 CURVE SMOOTH",
"49 99 OFFCURVE",
"184 -13 OFFCURVE",
"413 -13 CURVE SMOOTH"
);
}
);
width = 826;
}
);
leftKerningGroup = O;
leftMetricsKey = O;
rightKerningGroup = O;
rightMetricsKey = O;
unicode = 01B1;
},
{
glyphname = V;
lastChange = "2025-09-10 23:53:33 +0000";
layers = (
{
anchors = (
{
name = Bottom;
position = "{337, 0}";
},
{
name = Top;
position = "{337, 714}";
}
);
layerId = "FD4D3FDD-DE85-408F-A52A-FF600B1C6101";
paths = (
{
closed = 1;
nodes = (
"337 98 LINE",
"335 98 LINE",
"93 714 LINE",
"40 714 LINE",
"319 0 LINE",
"353 0 LINE",
"633 714 LINE",
"580 714 LINE"
);
}
);
width = 673;
},
{
anchors = (
{
name = Bottom;
position = "{437, 0}";
},
{
name = Top;
position = "{437, 714}";
}
);
layerId = m002;
paths = (
{
closed = 1;
nodes = (
"437 290 LINE",
"435 290 LINE",
"253 714 LINE",
"40 714 LINE",
"349 0 LINE",
"523 0 LINE",
"833 714 LINE",
"620 714 LINE"
);
}
);
width = 873;
}
);
leftKerningGroup = V;
leftMetricsKey = A;
rightKerningGroup = V;
rightMetricsKey = A;
unicode = 0056;
},
{
color = 10;
glyphname = "Gamma-latin";
lastChange = "2025-09-10 22:17:12 +0000";
layers = (
{
layerId = "FD4D3FDD-DE85-408F-A52A-FF600B1C6101";
paths = (
{
closed = 1;
nodes = (
"359 -13 OFFCURVE",
"413 42 OFFCURVE",
"413 125 CURVE SMOOTH",
"413 187 OFFCURVE",
"375 241 OFFCURVE",
"343 295 CURVE SMOOTH",
"304 360 LINE",
"514 714 LINE",
"461 714 LINE",
"277 406 LINE",
"93 714 LINE",
"40 714 LINE",
"250 360 LINE",
"211 295 LINE SMOOTH",
"179 241 OFFCURVE",
"141 187 OFFCURVE",
"141 125 CURVE SMOOTH",
"141 42 OFFCURVE",
"195 -13 OFFCURVE",
"277 -13 CURVE SMOOTH"
);
},
{
closed = 1;
nodes = (
"191 185 OFFCURVE",
"232 238 OFFCURVE",
"264 292 CURVE SMOOTH",
"277 314 LINE",
"290 292 LINE SMOOTH",
"322 238 OFFCURVE",
"363 185 OFFCURVE",
"363 125 CURVE SMOOTH",
"363 71 OFFCURVE",
"329 35 OFFCURVE",
"277 35 CURVE SMOOTH",
"225 35 OFFCURVE",
"191 71 OFFCURVE",
"191 125 CURVE SMOOTH"
);
}
);
width = 554;
},
{
layerId = m002;
paths = (
{
closed = 1;
nodes = (
"472 -13 OFFCURVE",
"570 72 OFFCURVE",
"570 217 CURVE SMOOTH",
"570 259 OFFCURVE",
"551 311 OFFCURVE",
"519 357 CURVE SMOOTH",
"421 502 LINE",
"557 714 LINE",
"334 714 LINE",
"305 671 LINE",
"276 714 LINE",
"53 714 LINE",
"189 502 LINE",
"91 357 LINE SMOOTH",
"59 311 OFFCURVE",
"40 259 OFFCURVE",
"40 217 CURVE SMOOTH",
"40 72 OFFCURVE",
"138 -13 OFFCURVE",
"305 -13 CURVE SMOOTH"
);
},
{
closed = 1;
nodes = (
"250 231 OFFCURVE",
"259 250 OFFCURVE",
"286 292 CURVE SMOOTH",
"305 322 LINE",
"324 292 LINE SMOOTH",
"351 250 OFFCURVE",
"360 231 OFFCURVE",
"360 208 CURVE SMOOTH",
"360 176 OFFCURVE",
"338 155 OFFCURVE",
"305 155 CURVE SMOOTH",
"272 155 OFFCURVE",
"250 176 OFFCURVE",
"250 208 CURVE SMOOTH"
);
}
);
width = 610;
}
);
leftKerningGroup = V;
leftMetricsKey = V;
rightKerningGroup = V;
rightMetricsKey = V;
unicode = 0194;
},
{
glyphname = W;
lastChange = "2025-09-10 23:53:52 +0000";
layers = (
{
anchors = (
{
name = Bottom;
position = "{458, 0}";
},
{
name = Top;
position = "{459, 714}";
}
);
layerId = "FD4D3FDD-DE85-408F-A52A-FF600B1C6101";
paths = (
{
closed = 1;
nodes = (
"236 0 LINE",
"289 0 LINE",
"458 617 LINE",
"460 617 LINE",
"628 0 LINE",
"681 0 LINE",
"877 714 LINE",
"824 714 LINE",
"656 97 LINE",
"654 97 LINE",
"485 714 LINE",
"432 714 LINE",
"264 97 LINE",
"262 97 LINE",
"93 714 LINE",
"40 714 LINE"
);
}
);
width = 917;
},
{
anchors = (
{
name = Bottom;
position = "{563, 0}";
},
{
name = Top;
position = "{564, 714}";
}
);
layerId = m002;
paths = (
{
closed = 1;
nodes = (
"236 0 LINE",
"456 0 LINE",
"563 405 LINE",
"565 405 LINE",
"672 0 LINE",
"892 0 LINE",
"1088 714 LINE",
"868 714 LINE",
"757 304 LINE",
"755 304 LINE",
"646 714 LINE",
"481 714 LINE",
"373 305 LINE",
"371 305 LINE",
"260 714 LINE",
"40 714 LINE"
);
}
);
width = 1128;
}
);
leftKerningGroup = V;
leftMetricsKey = A;
rightKerningGroup = V;
rightMetricsKey = A;
unicode = 0057;
},
{
glyphname = X;
lastChange = "2025-09-10 23:54:11 +0000";
layers = (
{
anchors = (
{
name = Bottom;
position = "{312, 0}";
},
{
name = Top;
position = "{312, 714}";
}
);
layerId = "FD4D3FDD-DE85-408F-A52A-FF600B1C6101";
paths = (
{
closed = 1;
nodes = (
"350 357 LINE",
"600 714 LINE",
"541 714 LINE",
"320 399 LINE",
"99 714 LINE",
"40 714 LINE",
"291 357 LINE",
"40 0 LINE",
"99 0 LINE",
"320 315 LINE",
"541 0 LINE",
"600 0 LINE"
);
}
);
width = 640;
},
{
anchors = (
{
name = Bottom;
position = "{419, 0}";
},
{
name = Top;
position = "{419, 714}";
}
);
layerId = m002;
paths = (
{
closed = 1;
nodes = (
"542 357 LINE",
"795 714 LINE",
"546 714 LINE",
"418 533 LINE",
"289 714 LINE",
"40 714 LINE",
"293 357 LINE",
"40 0 LINE",
"289 0 LINE",
"418 181 LINE",
"546 0 LINE",
"795 0 LINE"
);
}
);
width = 835;
}
);
leftKerningGroup = X;
leftMetricsKey = A;
rightKerningGroup = X;
rightMetricsKey = A;
unicode = 0058;
},
{
glyphname = Y;
lastChange = "2025-09-10 23:54:37 +0000";
layers = (
{
anchors = (
{
name = Bottom;
position = "{304, 0}";
},
{
name = Top;
position = "{304, 714}";
}
);
layerId = "FD4D3FDD-DE85-408F-A52A-FF600B1C6101";
paths = (
{
closed = 1;
nodes = (
"279 0 LINE",
"329 0 LINE",
"329 273 LINE",
"567 714 LINE",
"512 714 LINE",
"305 330 LINE",
"303 330 LINE",
"95 714 LINE",
"40 714 LINE",
"279 273 LINE"
);
}
);
width = 607;
},
{
anchors = (
{
name = Bottom;
position = "{404, 0}";
},
{
name = Top;
position = "{404, 714}";
}
);
layerId = m002;
paths = (
{
closed = 1;
nodes = (
"299 0 LINE",
"509 0 LINE",
"509 273 LINE",
"768 714 LINE",
"542 714 LINE",
"405 477 LINE",
"403 477 LINE",
"266 714 LINE",
"40 714 LINE",
"299 273 LINE"
);
}
);
width = 808;
}
);
leftKerningGroup = V;
leftMetricsKey = A;
rightKerningGroup = V;
rightMetricsKey = A;
unicode = 0059;
},
{
glyphname = Z;
lastChange = "2025-08-28 15:02:30 +0000";
layers = (
{
anchors = (
{
name = Bottom;
position = "{314, 0}";
},
{
name = Top;
position = "{349, 714}";
}
);
layerId = "FD4D3FDD-DE85-408F-A52A-FF600B1C6101";
paths = (
{
closed = 1;
nodes = (
"50 714 LINE",
"50 664 LINE",
"516 664 LINE",
"69 50 LINE",
"69 0 LINE",
"608 0 LINE",
"608 50 LINE",
"128 50 LINE",
"577 664 LINE",
"577 714 LINE"
);
}
);
width = 658;
},
{
anchors = (
{
name = Bottom;
position = "{334, 0}";
},
{
name = Top;
position = "{359, 714}";
}
);
layerId = m002;
paths = (
{
closed = 1;
nodes = (
"50 714 LINE",
"50 546 LINE",
"366 546 LINE",
"69 168 LINE",
"69 0 LINE",
"628 0 LINE",
"628 168 LINE",
"298 168 LINE",
"597 546 LINE",
"597 714 LINE"
);
}
);
width = 678;
}
);
leftKerningGroup = Z;
rightKerningGroup = Z;
unicode = 005A;
},
{
color = 10;
glyphname = Ismall;
lastChange = "2023-09-06 15:47:01 +0000";
layers = (
{
layerId = "FD4D3FDD-DE85-408F-A52A-FF600B1C6101";
paths = (
{
closed = 1;
nodes = (
"40 520 LINE",
"40 478 LINE",
"154 478 LINE",
"154 42 LINE",
"40 42 LINE",
"40 0 LINE",
"315 0 LINE",
"315 42 LINE",
"202 42 LINE",
"202 478 LINE",
"315 478 LINE",
"315 520 LINE"
);
}
);
width = 355;
},
{
layerId = m002;
paths = (
{
closed = 1;
nodes = (
"20 520 LINE",
"20 370 LINE",
"129 370 LINE",
"129 150 LINE",
"20 150 LINE",
"20 0 LINE",
"395 0 LINE",
"395 150 LINE",
"287 150 LINE",
"287 370 LINE",
"395 370 LINE",
"395 520 LINE"
);
}
);
width = 415;
}
);
leftKerningGroup = n;
rightKerningGroup = n;
unicode = 026A;
},
{
glyphname = a;
lastChange = "2025-09-16 16:57:36 +0000";
layers = (
{
anchors = (
{
name = Bottom;
position = "{285, 0}";
},
{
name = Ogonek;
position = "{455, 0}";
},
{
name = Top;
position = "{273, 532}";
}
);
background = {
paths = (
{
closed = 1;
nodes = (
"503 297 LINE",
"383 297 LINE SMOOTH",
"239 297 OFFCURVE",
"154 236 OFFCURVE",
"154 132 CURVE SMOOTH",
"154 45 OFFCURVE",
"222 -13 OFFCURVE",
"324 -13 CURVE SMOOTH",
"408 -13 OFFCURVE",
"475 25 OFFCURVE",
"503 88 CURVE",
"505 88 LINE",
"513 0 LINE",
"551 0 LINE",
"551 364 LINE SMOOTH",
"551 470 OFFCURVE",
"487 532 OFFCURVE",
"378 532 CURVE SMOOTH",
"257 532 OFFCURVE",
"185 476 OFFCURVE",
"185 382 CURVE",
"233 382 LINE",
"233 450 OFFCURVE",
"286 490 OFFCURVE",
"376 490 CURVE SMOOTH",
"456 490 OFFCURVE",
"503 446 OFFCURVE",
"503 372 CURVE SMOOTH"
);
},
{
closed = 1;
nodes = (
"206 214 OFFCURVE",
"268 257 OFFCURVE",
"388 257 CURVE SMOOTH",
"502 257 LINE",
"502 212 LINE SMOOTH",
"502 96 OFFCURVE",
"436 28 OFFCURVE",
"324 28 CURVE SMOOTH",
"253 28 OFFCURVE",
"206 69 OFFCURVE",
"206 131 CURVE SMOOTH"
);
},
{
closed = 1;
nodes = (
"483 90 LINE",
"483 45 OFFCURVE",
"496 25 QCURVE SMOOTH",
"512 0 OFFCURVE",
"557 0 QCURVE SMOOTH",
"579 0 OFFCURVE",
"598 4 QCURVE",
"598 57 LINE",
"588 53 OFFCURVE",
"578 53 QCURVE SMOOTH",
"541 53 OFFCURVE",
"541 91 QCURVE"
);
}
);
};
layerId = "FD4D3FDD-DE85-408F-A52A-FF600B1C6101";
paths = (
{
closed = 1;
nodes = (
"351 -13 OFFCURVE",
"413 21 OFFCURVE",
"440 78 CURVE",
"442 78 LINE",
"432 0 LINE",
"490 0 LINE",
"490 520 LINE",
"442 520 LINE",
"447 427 LINE",
"445 427 LINE",
"415 493 OFFCURVE",
"347 532 OFFCURVE",
"262 532 CURVE SMOOTH",
"129 532 OFFCURVE",
"50 431 OFFCURVE",
"50 261 CURVE SMOOTH",
"50 89 OFFCURVE",
"133 -13 OFFCURVE",
"273 -13 CURVE SMOOTH"
);
},
{
closed = 1;
nodes = (
"98 405 OFFCURVE",
"161 490 OFFCURVE",
"268 490 CURVE SMOOTH",
"377 490 OFFCURVE",
"442 405 OFFCURVE",
"442 261 CURVE SMOOTH",
"442 115 OFFCURVE",
"379 29 OFFCURVE",
"273 29 CURVE SMOOTH",
"163 29 OFFCURVE",
"98 115 OFFCURVE",
"98 261 CURVE SMOOTH"
);
}
);
width = 550;
},
{
anchors = (
{
name = Bottom;
position = "{323, 0}";
},
{
name = Ogonek;
position = "{536, 0}";
},
{
name = Top;
position = "{333, 532}";
}
);
background = {
paths = (
{
closed = 1;
nodes = (
"445 297 LINE",
"325 297 LINE SMOOTH",
"181 297 OFFCURVE",
"96 236 OFFCURVE",
"96 132 CURVE SMOOTH",
"96 45 OFFCURVE",
"164 -13 OFFCURVE",
"266 -13 CURVE SMOOTH",
"350 -13 OFFCURVE",
"417 25 OFFCURVE",
"445 88 CURVE",
"447 88 LINE",
"455 0 LINE",
"493 0 LINE",
"493 364 LINE SMOOTH",
"493 470 OFFCURVE",
"429 532 OFFCURVE",
"320 532 CURVE SMOOTH",
"199 532 OFFCURVE",
"127 476 OFFCURVE",
"127 382 CURVE",
"175 382 LINE",
"175 450 OFFCURVE",
"228 490 OFFCURVE",
"318 490 CURVE SMOOTH",
"398 490 OFFCURVE",
"445 446 OFFCURVE",
"445 372 CURVE SMOOTH"
);
},
{
closed = 1;
nodes = (
"148 214 OFFCURVE",
"210 257 OFFCURVE",
"330 257 CURVE SMOOTH",
"444 257 LINE",
"444 212 LINE SMOOTH",
"444 96 OFFCURVE",
"378 28 OFFCURVE",
"266 28 CURVE SMOOTH",
"195 28 OFFCURVE",
"148 69 OFFCURVE",
"148 131 CURVE SMOOTH"
);
},
{
closed = 1;
nodes = (
"425 90 LINE",
"425 45 OFFCURVE",
"438 25 QCURVE SMOOTH",
"454 0 OFFCURVE",
"499 0 QCURVE SMOOTH",
"521 0 OFFCURVE",
"540 4 QCURVE",
"540 57 LINE",
"530 53 OFFCURVE",
"520 53 QCURVE SMOOTH",
"483 53 OFFCURVE",
"483 91 QCURVE"
);
}
);
};
layerId = m002;
paths = (
{
closed = 1;
nodes = (
"332 -13 OFFCURVE",
"377 7 OFFCURVE",
"408 40 CURVE",
"410 40 LINE",
"400 0 LINE",
"608 0 LINE",
"608 520 LINE",
"410 520 LINE",
"415 497 LINE",
"413 497 LINE",
"385 519 OFFCURVE",
"341 532 OFFCURVE",
"295 532 CURVE SMOOTH",
"128 532 OFFCURVE",
"30 431 OFFCURVE",
"30 261 CURVE SMOOTH",
"30 89 OFFCURVE",
"125 -13 OFFCURVE",
"287 -13 CURVE SMOOTH"
);
},
{
closed = 1;
nodes = (
"238 333 OFFCURVE",
"271 375 OFFCURVE",
"327 375 CURVE SMOOTH",
"379 375 OFFCURVE",
"410 333 OFFCURVE",
"410 261 CURVE SMOOTH",
"410 191 OFFCURVE",
"378 150 OFFCURVE",
"323 150 CURVE SMOOTH",
"270 150 OFFCURVE",
"238 191 OFFCURVE",
"238 261 CURVE SMOOTH"
);
}
);
width = 658;
}
);
leftKerningGroup = o;
leftMetricsKey = o;
rightKerningGroup = n;
rightMetricsKey = n;
unicode = 0061;
},
{
color = 10;
glyphname = astroke;
lastChange = "2025-09-11 02:23:16 +0000";
layers = (
{
layerId = "FD4D3FDD-DE85-408F-A52A-FF600B1C6101";
paths = (
{
closed = 1;
nodes = (
"351 -13 OFFCURVE",
"413 21 OFFCURVE",
"440 78 CURVE",
"442 78 LINE",
"432 0 LINE",
"490 0 LINE",
"490 520 LINE",
"442 520 LINE",
"447 427 LINE",
"445 427 LINE",
"432 456 OFFCURVE",
"412 479 OFFCURVE",
"386 497 CURVE",
"408 558 LINE",
"357 558 LINE",
"343 519 LINE",
"318 527 OFFCURVE",
"291 532 OFFCURVE",
"262 532 CURVE SMOOTH",
"129 532 OFFCURVE",
"50 431 OFFCURVE",
"50 261 CURVE SMOOTH",
"50 143 OFFCURVE",
"89 58 OFFCURVE",
"159 16 CURVE",
"135 -50 LINE",
"186 -50 LINE",
"203 -3 LINE",
"224 -10 OFFCURVE",
"248 -13 OFFCURVE",
"273 -13 CURVE SMOOTH"
);
},
{
closed = 1;
nodes = (
"98 405 OFFCURVE",
"161 490 OFFCURVE",
"268 490 CURVE SMOOTH",
"290 490 OFFCURVE",
"310 487 OFFCURVE",
"328 480 CURVE",
"175 59 LINE",
"125 96 OFFCURVE",
"98 166 OFFCURVE",
"98 261 CURVE SMOOTH"
);
},
{
closed = 1;
nodes = (
"371 456 LINE",
"417 418 OFFCURVE",
"442 351 OFFCURVE",
"442 261 CURVE SMOOTH",
"442 115 OFFCURVE",
"379 29 OFFCURVE",
"273 29 CURVE SMOOTH",
"253 29 OFFCURVE",
"235 32 OFFCURVE",
"218 37 CURVE"
);
}
);
width = 550;
},
{
layerId = m002;
paths = (
{
closed = 1;
nodes = (
"332 -13 OFFCURVE",
"377 7 OFFCURVE",
"408 40 CURVE",
"410 40 LINE",
"400 0 LINE",
"608 0 LINE",
"608 520 LINE",
"410 520 LINE",
"415 497 LINE",
"413 497 LINE",
"409 500 OFFCURVE",
"405 503 OFFCURVE",
"401 505 CURVE",
"420 558 LINE",
"369 558 LINE",
"357 524 LINE",
"337 529 OFFCURVE",
"316 532 OFFCURVE",
"295 532 CURVE SMOOTH",
"128 532 OFFCURVE",
"30 431 OFFCURVE",
"30 261 CURVE SMOOTH",
"30 136 OFFCURVE",
"80 49 OFFCURVE",
"169 10 CURVE",
"147 -50 LINE",
"198 -50 LINE",
"214 -5 LINE",
"237 -10 OFFCURVE",
"261 -13 OFFCURVE",
"287 -13 CURVE SMOOTH"
);
},
{
closed = 1;
nodes = (
"238 312 OFFCURVE",
"256 354 OFFCURVE",
"293 369 CURVE SMOOTH",
"298 371 OFFCURVE",
"298 371 OFFCURVE",
"301 372 CURVE",
"244 215 LINE",
"240 227 OFFCURVE",
"238 244 OFFCURVE",
"238 261 CURVE SMOOTH"
);
},
{
closed = 1;
nodes = (
"352 371 LINE",
"389 360 OFFCURVE",
"410 321 OFFCURVE",
"410 261 CURVE SMOOTH",
"410 191 OFFCURVE",
"378 150 OFFCURVE",
"323 150 CURVE SMOOTH",
"305 150 OFFCURVE",
"289 155 OFFCURVE",
"276 164 CURVE"
);
}
);
width = 658;
}
);
leftKerningGroup = o;
leftMetricsKey = a;
rightKerningGroup = n;
rightMetricsKey = a;
unicode = 2C65;
},
{
color = 10;
glyphname = ae;
lastChange = "2025-09-11 02:22:58 +0000";
layers = (
{
anchors = (
{
name = Top;
position = "{480, 532}";
}
);
layerId = "FD4D3FDD-DE85-408F-A52A-FF600B1C6101";
paths = (
{
closed = 1;
nodes = (
"520 414 OFFCURVE",
"584 490 OFFCURVE",
"677 490 CURVE SMOOTH",
"779 490 OFFCURVE",
"847 412 OFFCURVE",
"847 295 CURVE",
"508 295 LINE"
);
},
{
closed = 1;
nodes = (
"351 -13 OFFCURVE",
"413 21 OFFCURVE",
"440 78 CURVE",
"442 78 LINE",
"427 0 LINE",
"490 0 LINE",
"490 106 LINE",
"528 32 OFFCURVE",
"596 -13 OFFCURVE",
"683 -13 CURVE SMOOTH",
"788 -13 OFFCURVE",
"871 56 OFFCURVE",
"890 159 CURVE",
"842 159 LINE",
"826 81 OFFCURVE",
"763 29 OFFCURVE",
"684 29 CURVE SMOOTH",
"577 29 OFFCURVE",
"506 119 OFFCURVE",
"506 255 CURVE",
"895 255 LINE",
"895 295 LINE SMOOTH",
"895 437 OFFCURVE",
"807 532 OFFCURVE",
"676 532 CURVE SMOOTH",
"592 532 OFFCURVE",
"526 487 OFFCURVE",
"490 409 CURVE",
"490 520 LINE",
"442 520 LINE",
"447 427 LINE",
"445 427 LINE",
"415 493 OFFCURVE",
"347 532 OFFCURVE",
"262 532 CURVE SMOOTH",
"129 532 OFFCURVE",
"50 431 OFFCURVE",
"50 261 CURVE SMOOTH",
"50 89 OFFCURVE",
"133 -13 OFFCURVE",
"273 -13 CURVE SMOOTH"
);
},
{
closed = 1;
nodes = (
"98 405 OFFCURVE",
"161 490 OFFCURVE",
"268 490 CURVE SMOOTH",
"377 490 OFFCURVE",
"442 405 OFFCURVE",
"442 261 CURVE SMOOTH",
"442 115 OFFCURVE",
"379 29 OFFCURVE",
"273 29 CURVE SMOOTH",
"163 29 OFFCURVE",
"98 115 OFFCURVE",
"98 261 CURVE SMOOTH"
);
}
);
width = 945;
},
{
anchors = (
{
name = Top;
position = "{531, 532}";
}
);
layerId = m002;
paths = (
{
closed = 1;
nodes = (
"755 369 OFFCURVE",
"784 395 OFFCURVE",
"824 395 CURVE SMOOTH",
"863 395 OFFCURVE",
"888 369 OFFCURVE",
"896 324 CURVE",
"741 324 LINE"
);
},
{
closed = 1;
nodes = (
"332 -13 OFFCURVE",
"377 7 OFFCURVE",
"408 40 CURVE",
"410 40 LINE",
"400 0 LINE",
"608 0 LINE",
"608 61 LINE",
"657 13 OFFCURVE",
"728 -13 OFFCURVE",
"818 -13 CURVE SMOOTH",
"972 -13 OFFCURVE",
"1078 57 OFFCURVE",
"1102 175 CURVE",
"904 175 LINE",
"896 143 OFFCURVE",
"866 124 OFFCURVE",
"822 124 CURVE SMOOTH",
"777 124 OFFCURVE",
"747 157 OFFCURVE",
"737 214 CURVE",
"1097 214 LINE",
"1097 243 LINE SMOOTH",
"1097 424 OFFCURVE",
"997 532 OFFCURVE",
"827 532 CURVE SMOOTH",
"733 532 OFFCURVE",
"658 505 OFFCURVE",
"608 456 CURVE",
"608 520 LINE",
"410 520 LINE",
"415 497 LINE",
"413 497 LINE",
"385 519 OFFCURVE",
"341 532 OFFCURVE",
"295 532 CURVE SMOOTH",
"128 532 OFFCURVE",
"30 431 OFFCURVE",
"30 261 CURVE SMOOTH",
"30 89 OFFCURVE",
"125 -13 OFFCURVE",
"287 -13 CURVE SMOOTH"
);
},
{
closed = 1;
nodes = (
"238 333 OFFCURVE",
"271 375 OFFCURVE",
"327 375 CURVE SMOOTH",
"379 375 OFFCURVE",
"410 333 OFFCURVE",
"410 261 CURVE SMOOTH",
"410 191 OFFCURVE",
"378 150 OFFCURVE",
"323 150 CURVE SMOOTH",
"270 150 OFFCURVE",
"238 191 OFFCURVE",
"238 261 CURVE SMOOTH"
);
}
);
width = 1132;
}
);
leftKerningGroup = o;
leftMetricsKey = a;
rightKerningGroup = o;
rightMetricsKey = e;
unicode = 00E6;
},
{
glyphname = b;
lastChange = "2025-09-11 02:41:47 +0000";
layers = (
{
anchors = (
{
name = Top;
position = "{288, 532}";
}
);
layerId = "FD4D3FDD-DE85-408F-A52A-FF600B1C6101";
paths = (
{
closed = 1;
nodes = (
"414 -13 OFFCURVE",
"498 89 OFFCURVE",
"498 261 CURVE SMOOTH",
"498 431 OFFCURVE",
"420 532 OFFCURVE",
"288 532 CURVE SMOOTH",
"203 532 OFFCURVE",
"135 493 OFFCURVE",
"105 427 CURVE",
"103 427 LINE",
"108 520 LINE",
"108 736 LINE",
"60 736 LINE",
"60 0 LINE",
"123 0 LINE",
"108 78 LINE",
"110 78 LINE",
"137 21 OFFCURVE",
"198 -13 OFFCURVE",
"273 -13 CURVE SMOOTH"
);
},
{
closed = 1;
nodes = (
"108 405 OFFCURVE",
"173 490 OFFCURVE",
"282 490 CURVE SMOOTH",
"388 490 OFFCURVE",
"450 405 OFFCURVE",
"450 261 CURVE SMOOTH",
"450 115 OFFCURVE",
"384 29 OFFCURVE",
"273 29 CURVE SMOOTH",
"169 29 OFFCURVE",
"108 115 OFFCURVE",
"108 261 CURVE SMOOTH"
);
}
);
width = 548;
},
{
anchors = (
{
name = Top;
position = "{366, 532}";
}
);
layerId = m002;
paths = (
{
closed = 1;
nodes = (
"531 -13 OFFCURVE",
"628 89 OFFCURVE",
"628 261 CURVE SMOOTH",
"628 431 OFFCURVE",
"530 532 OFFCURVE",
"363 532 CURVE SMOOTH",
"317 532 OFFCURVE",
"273 519 OFFCURVE",
"245 497 CURVE",
"243 497 LINE",
"248 549 LINE",
"248 736 LINE",
"50 736 LINE",
"50 0 LINE",
"256 0 LINE",
"236 37 LINE",
"240 37 LINE",
"262 6 OFFCURVE",
"309 -13 OFFCURVE",
"367 -13 CURVE SMOOTH"
);
},
{
closed = 1;
nodes = (
"248 348 OFFCURVE",
"280 400 OFFCURVE",
"334 400 CURVE SMOOTH",
"388 400 OFFCURVE",
"420 348 OFFCURVE",
"420 261 CURVE SMOOTH",
"420 173 OFFCURVE",
"388 121 OFFCURVE",
"334 121 CURVE SMOOTH",
"280 121 OFFCURVE",
"248 173 OFFCURVE",
"248 261 CURVE SMOOTH"
);
}
);
width = 658;
}
);
leftKerningGroup = h;
leftMetricsKey = n;
rightKerningGroup = o;
rightMetricsKey = o;
unicode = 0062;
},
{
glyphname = c;
lastChange = "2025-08-28 14:51:57 +0000";
layers = (
{
anchors = (
{
name = Bottom;
position = "{266, 0}";
},
{
name = Top;
position = "{266, 532}";
}
);
layerId = "FD4D3FDD-DE85-408F-A52A-FF600B1C6101";
paths = (
{
closed = 1;
nodes = (
"406 155 LINE",
"396 79 OFFCURVE",
"340 29 OFFCURVE",
"266 29 CURVE SMOOTH",
"165 29 OFFCURVE",
"98 121 OFFCURVE",
"98 259 CURVE SMOOTH",
"98 398 OFFCURVE",
"165 490 OFFCURVE",
"266 490 CURVE SMOOTH",
"345 490 OFFCURVE",
"404 438 OFFCURVE",
"414 361 CURVE",
"462 361 LINE",
"451 464 OFFCURVE",
"373 532 OFFCURVE",
"266 532 CURVE SMOOTH",
"136 532 OFFCURVE",
"50 423 OFFCURVE",
"50 259 CURVE SMOOTH",
"50 96 OFFCURVE",
"136 -13 OFFCURVE",
"266 -13 CURVE SMOOTH",
"369 -13 OFFCURVE",
"444 54 OFFCURVE",
"454 155 CURVE"
);
}
);
width = 512;
},
{
anchors = (
{
name = Bottom;
position = "{306, 0}";
},
{
name = Top;
position = "{311, 532}";
}
);
layerId = m002;
paths = (
{
closed = 1;
nodes = (
"366 210 LINE",
"361 172 OFFCURVE",
"341 149 OFFCURVE",
"311 149 CURVE SMOOTH",
"265 149 OFFCURVE",
"238 190 OFFCURVE",
"238 259 CURVE SMOOTH",
"238 329 OFFCURVE",
"265 370 OFFCURVE",
"311 370 CURVE SMOOTH",
"346 370 OFFCURVE",
"369 346 OFFCURVE",
"374 306 CURVE",
"582 306 LINE",
"566 448 OFFCURVE",
"465 532 OFFCURVE",
"311 532 CURVE SMOOTH",
"134 532 OFFCURVE",
"30 431 OFFCURVE",
"30 259 CURVE SMOOTH",
"30 88 OFFCURVE",
"133 -13 OFFCURVE",
"306 -13 CURVE SMOOTH",
"459 -13 OFFCURVE",
"559 70 OFFCURVE",
"574 210 CURVE"
);
}
);
width = 612;
}
);
leftKerningGroup = o;
leftMetricsKey = o;
rightKerningGroup = c;
rightMetricsKey = o;
unicode = 0063;
},
{
color = 10;
glyphname = "chi-latin";
lastChange = "2025-09-10 22:18:11 +0000";
layers = (
{
layerId = "FD4D3FDD-DE85-408F-A52A-FF600B1C6101";
paths = (
{
closed = 1;
nodes = (
"372 153 LINE",
"571 520 LINE",
"516 520 LINE",
"346 207 LINE",
"257 394 LINE SMOOTH",
"213 487 OFFCURVE",
"163 532 OFFCURVE",
"88 532 CURVE SMOOTH",
"72 532 OFFCURVE",
"54 529 OFFCURVE",
"40 524 CURVE",
"40 476 LINE",
"51 482 OFFCURVE",
"73 485 OFFCURVE",
"92 485 CURVE SMOOTH",
"140 485 OFFCURVE",
"175 451 OFFCURVE",
"202 394 CURVE SMOOTH",
"317 153 LINE",
"117 -217 LINE",
"172 -217 LINE",
"343 98 LINE",
"435 -95 LINE SMOOTH",
"479 -187 OFFCURVE",
"524 -233 OFFCURVE",
"599 -233 CURVE SMOOTH",
"615 -233 OFFCURVE",
"633 -230 OFFCURVE",
"647 -225 CURVE",
"647 -177 LINE",
"636 -183 OFFCURVE",
"614 -186 OFFCURVE",
"595 -186 CURVE SMOOTH",
"547 -186 OFFCURVE",
"517 -152 OFFCURVE",
"490 -95 CURVE SMOOTH"
);
}
);
width = 687;
},
{
layerId = m002;
paths = (
{
closed = 1;
nodes = (
"490 156 LINE",
"717 520 LINE",
"491 520 LINE",
"369 323 LINE",
"340 363 LINE SMOOTH",
"267 464 OFFCURVE",
"216 532 OFFCURVE",
"106 532 CURVE SMOOTH",
"85 532 OFFCURVE",
"51 527 OFFCURVE",
"31 521 CURVE",
"30 361 LINE",
"43 364 OFFCURVE",
"58 365 OFFCURVE",
"75 365 CURVE SMOOTH",
"93 365 OFFCURVE",
"108 356 OFFCURVE",
"145 305 CURVE SMOOTH",
"259 147 LINE",
"32 -217 LINE",
"258 -217 LINE",
"380 -20 LINE",
"412 -64 LINE SMOOTH",
"485 -165 OFFCURVE",
"536 -233 OFFCURVE",
"646 -233 CURVE SMOOTH",
"667 -233 OFFCURVE",
"701 -228 OFFCURVE",
"721 -222 CURVE",
"721 -62 LINE",
"708 -65 OFFCURVE",
"694 -66 OFFCURVE",
"677 -66 CURVE SMOOTH",
"659 -66 OFFCURVE",
"644 -57 OFFCURVE",
"607 -6 CURVE SMOOTH"
);
}
);
width = 751;
}
);
leftKerningGroup = x;
leftMetricsKey = x;
rightKerningGroup = x;
rightMetricsKey = x;
unicode = AB53;
},
{
color = 10;
glyphname = cstroke;
lastChange = "2025-09-10 22:19:37 +0000";
layers = (
{
layerId = "FD4D3FDD-DE85-408F-A52A-FF600B1C6101";
paths = (
{
closed = 1;
nodes = (
"406 155 LINE",
"396 79 OFFCURVE",
"340 29 OFFCURVE",
"266 29 CURVE SMOOTH",
"245 29 OFFCURVE",
"226 33 OFFCURVE",
"209 40 CURVE",
"362 458 LINE",
"390 435 OFFCURVE",
"409 402 OFFCURVE",
"414 361 CURVE",
"462 361 LINE",
"455 423 OFFCURVE",
"424 472 OFFCURVE",
"377 502 CURVE",
"398 558 LINE",
"357 558 LINE",
"343 519 LINE",
"320 527 OFFCURVE",
"294 532 OFFCURVE",
"266 532 CURVE SMOOTH",
"136 532 OFFCURVE",
"50 423 OFFCURVE",
"50 259 CURVE SMOOTH",
"50 146 OFFCURVE",
"91 60 OFFCURVE",
"159 17 CURVE",
"135 -50 LINE",
"176 -50 LINE",
"194 -1 LINE",
"216 -9 OFFCURVE",
"240 -13 OFFCURVE",
"266 -13 CURVE SMOOTH",
"369 -13 OFFCURVE",
"444 54 OFFCURVE",
"454 155 CURVE"
);
},
{
closed = 1;
nodes = (
"98 398 OFFCURVE",
"165 490 OFFCURVE",
"266 490 CURVE SMOOTH",
"288 490 OFFCURVE",
"309 486 OFFCURVE",
"328 478 CURVE",
"175 60 LINE",
"127 98 OFFCURVE",
"98 169 OFFCURVE",
"98 259 CURVE SMOOTH"
);
}
);
width = 512;
},
{
layerId = m002;
paths = (
{
closed = 1;
nodes = (
"366 210 LINE",
"361 172 OFFCURVE",
"341 149 OFFCURVE",
"311 149 CURVE SMOOTH",
"304 149 OFFCURVE",
"298 150 OFFCURVE",
"292 152 CURVE",
"362 343 LINE",
"368 333 OFFCURVE",
"372 321 OFFCURVE",
"374 306 CURVE",
"582 306 LINE",
"570 410 OFFCURVE",
"514 482 OFFCURVE",
"424 514 CURVE",
"440 558 LINE",
"389 558 LINE",
"377 526 LINE",
"357 530 OFFCURVE",
"334 532 OFFCURVE",
"311 532 CURVE SMOOTH",
"134 532 OFFCURVE",
"30 431 OFFCURVE",
"30 259 CURVE SMOOTH",
"30 132 OFFCURVE",
"87 43 OFFCURVE",
"188 6 CURVE",
"167 -50 LINE",
"218 -50 LINE",
"234 -6 LINE",
"256 -11 OFFCURVE",
"280 -13 OFFCURVE",
"306 -13 CURVE SMOOTH",
"459 -13 OFFCURVE",
"559 70 OFFCURVE",
"574 210 CURVE"
);
},
{
closed = 1;
nodes = (
"238 329 OFFCURVE",
"265 370 OFFCURVE",
"311 370 CURVE SMOOTH",
"314 370 OFFCURVE",
"317 370 OFFCURVE",
"320 369 CURVE",
"253 185 LINE",
"243 204 OFFCURVE",
"238 229 OFFCURVE",
"238 259 CURVE SMOOTH"
);
}
);
width = 612;
}
);
leftKerningGroup = o;
leftMetricsKey = c;
rightKerningGroup = c;
rightMetricsKey = c;
unicode = 023C;
},
{
glyphname = d;
lastChange = "2025-08-28 14:57:41 +0000";
layers = (
{
anchors = (
{
name = Bottom;
position = "{274, 0}";
},
{
name = Top;
position = "{271, 532}";
},
{
name = Top_EC;
position = "{546, 532}";
}
);
layerId = "FD4D3FDD-DE85-408F-A52A-FF600B1C6101";
paths = (
{
closed = 1;
nodes = (
"350 -13 OFFCURVE",
"411 21 OFFCURVE",
"438 78 CURVE",
"440 78 LINE",
"425 0 LINE",
"488 0 LINE",
"488 736 LINE",
"440 736 LINE",
"440 520 LINE",
"445 427 LINE",
"443 427 LINE",
"413 493 OFFCURVE",
"345 532 OFFCURVE",
"260 532 CURVE SMOOTH",
"128 532 OFFCURVE",
"50 431 OFFCURVE",
"50 261 CURVE SMOOTH",
"50 89 OFFCURVE",
"134 -13 OFFCURVE",
"275 -13 CURVE SMOOTH"
);
},
{
closed = 1;
nodes = (
"98 405 OFFCURVE",
"160 490 OFFCURVE",
"266 490 CURVE SMOOTH",
"375 490 OFFCURVE",
"440 405 OFFCURVE",
"440 261 CURVE SMOOTH",
"440 115 OFFCURVE",
"379 29 OFFCURVE",
"275 29 CURVE SMOOTH",
"164 29 OFFCURVE",
"98 115 OFFCURVE",
"98 261 CURVE SMOOTH"
);
}
);
width = 548;
},
{
anchors = (
{
name = Bottom;
position = "{377, 0}";
},
{
name = Top;
position = "{352, 532}";
},
{
name = Top_EC;
position = "{702, 500}";
}
);
layerId = m002;
paths = (
{
closed = 1;
nodes = (
"349 -13 OFFCURVE",
"396 6 OFFCURVE",
"418 37 CURVE",
"422 37 LINE",
"402 0 LINE",
"608 0 LINE",
"608 736 LINE",
"410 736 LINE",
"410 549 LINE",
"415 497 LINE",
"413 497 LINE",
"385 519 OFFCURVE",
"341 532 OFFCURVE",
"295 532 CURVE SMOOTH",
"128 532 OFFCURVE",
"30 431 OFFCURVE",
"30 261 CURVE SMOOTH",
"30 89 OFFCURVE",
"127 -13 OFFCURVE",
"291 -13 CURVE SMOOTH"
);
},
{
closed = 1;
nodes = (
"238 348 OFFCURVE",
"270 400 OFFCURVE",
"324 400 CURVE SMOOTH",
"378 400 OFFCURVE",
"410 348 OFFCURVE",
"410 261 CURVE SMOOTH",
"410 173 OFFCURVE",
"378 121 OFFCURVE",
"324 121 CURVE SMOOTH",
"270 121 OFFCURVE",
"238 173 OFFCURVE",
"238 261 CURVE SMOOTH"
);
}
);
width = 658;
}
);
leftKerningGroup = o;
leftMetricsKey = o;
rightKerningGroup = n;
rightMetricsKey = n;
unicode = 0064;
},
{
color = 10;
glyphname = eth;
lastChange = "2025-09-10 22:19:27 +0000";
layers = (
{
layerId = "FD4D3FDD-DE85-408F-A52A-FF600B1C6101";
paths = (
{
closed = 1;
nodes = (
"398 -12 OFFCURVE",
"488 109 OFFCURVE",
"488 291 CURVE SMOOTH",
"488 430 OFFCURVE",
"419 560 OFFCURVE",
"305 649 CURVE",
"372 704 LINE",
"349 731 LINE",
"276 670 LINE",
"240 695 OFFCURVE",
"199 715 OFFCURVE",
"156 731 CURVE",
"128 695 LINE",
"167 682 OFFCURVE",
"205 663 OFFCURVE",
"240 640 CURVE",
"174 585 LINE",
"196 559 LINE",
"270 620 LINE",
"324 580 OFFCURVE",
"367 531 OFFCURVE",
"387 482 CURVE",
"385 481 LINE",
"360 509 OFFCURVE",
"308 532 OFFCURVE",
"264 532 CURVE SMOOTH",
"136 532 OFFCURVE",
"50 422 OFFCURVE",
"50 258 CURVE SMOOTH",
"50 96 OFFCURVE",
"136 -12 OFFCURVE",
"264 -12 CURVE SMOOTH"
);
},
{
closed = 1;
nodes = (
"98 398 OFFCURVE",
"164 490 OFFCURVE",
"264 490 CURVE SMOOTH",
"365 490 OFFCURVE",
"432 398 OFFCURVE",
"432 260 CURVE SMOOTH",
"432 122 OFFCURVE",
"365 30 OFFCURVE",
"264 30 CURVE SMOOTH",
"164 30 OFFCURVE",
"98 122 OFFCURVE",
"98 260 CURVE SMOOTH"
);
}
);
width = 538;
},
{
layerId = m002;
paths = (
{
closed = 1;
nodes = (
"458 -12 OFFCURVE",
"568 109 OFFCURVE",
"568 291 CURVE SMOOTH",
"568 437 OFFCURVE",
"488 574 OFFCURVE",
"357 668 CURVE",
"408 710 LINE",
"349 777 LINE",
"276 716 LINE",
"249 730 OFFCURVE",
"221 742 OFFCURVE",
"191 752 CURVE",
"110 647 LINE",
"129 640 OFFCURVE",
"148 633 OFFCURVE",
"166 625 CURVE",
"116 583 LINE",
"174 517 LINE",
"249 579 LINE",
"273 564 OFFCURVE",
"295 548 OFFCURVE",
"314 531 CURVE",
"313 530 LINE",
"307 531 OFFCURVE",
"301 532 OFFCURVE",
"294 532 CURVE SMOOTH",
"136 532 OFFCURVE",
"30 422 OFFCURVE",
"30 258 CURVE SMOOTH",
"30 96 OFFCURVE",
"136 -12 OFFCURVE",
"294 -12 CURVE SMOOTH"
);
},
{
closed = 1;
nodes = (
"198 326 OFFCURVE",
"236 370 OFFCURVE",
"294 370 CURVE SMOOTH",
"353 370 OFFCURVE",
"392 326 OFFCURVE",
"392 260 CURVE SMOOTH",
"392 194 OFFCURVE",
"353 150 OFFCURVE",
"294 150 CURVE SMOOTH",
"236 150 OFFCURVE",
"198 194 OFFCURVE",
"198 260 CURVE SMOOTH"
);
}
);
width = 598;
}
);
leftKerningGroup = o;
leftMetricsKey = d;
rightKerningGroup = o;
rightMetricsKey = o;
unicode = 00F0;
},
{
color = 10;
glyphname = dcroat;
lastChange = "2025-09-10 22:19:29 +0000";
layers = (
{
layerId = "FD4D3FDD-DE85-408F-A52A-FF600B1C6101";
paths = (
{
closed = 1;
nodes = (
"346 -13 OFFCURVE",
"410 27 OFFCURVE",
"440 90 CURVE",
"442 90 LINE",
"437 0 LINE",
"488 0 LINE",
"488 619 LINE",
"581 619 LINE",
"581 664 LINE",
"488 659 LINE",
"488 736 LINE",
"440 736 LINE",
"440 661 LINE",
"306 661 LINE",
"306 619 LINE",
"440 619 LINE",
"440 520 LINE",
"442 427 LINE",
"440 427 LINE",
"410 493 OFFCURVE",
"347 532 OFFCURVE",
"271 532 CURVE SMOOTH",
"132 532 OFFCURVE",
"50 431 OFFCURVE",
"50 261 CURVE SMOOTH",
"50 90 OFFCURVE",
"131 -13 OFFCURVE",
"267 -13 CURVE SMOOTH"
);
},
{
closed = 1;
nodes = (
"98 405 OFFCURVE",
"164 490 OFFCURVE",
"277 490 CURVE SMOOTH",
"379 490 OFFCURVE",
"440 405 OFFCURVE",
"440 261 CURVE SMOOTH",
"440 115 OFFCURVE",
"378 27 OFFCURVE",
"273 27 CURVE SMOOTH",
"163 27 OFFCURVE",
"98 115 OFFCURVE",
"98 261 CURVE SMOOTH"
);
}
);
width = 641;
},
{
layerId = m002;
paths = (
{
closed = 1;
nodes = (
"333 -13 OFFCURVE",
"388 8 OFFCURVE",
"410 40 CURVE",
"412 40 LINE",
"407 0 LINE",
"578 0 LINE",
"578 587 LINE",
"651 587 LINE",
"651 690 LINE",
"578 685 LINE",
"578 736 LINE",
"410 736 LINE",
"410 687 LINE",
"306 687 LINE",
"306 587 LINE",
"410 587 LINE",
"410 520 LINE",
"412 477 LINE",
"410 477 LINE",
"385 510 OFFCURVE",
"333 532 OFFCURVE",
"280 532 CURVE SMOOTH",
"130 532 OFFCURVE",
"30 424 OFFCURVE",
"30 261 CURVE SMOOTH",
"30 97 OFFCURVE",
"127 -13 OFFCURVE",
"272 -13 CURVE SMOOTH"
);
},
{
closed = 1;
nodes = (
"218 326 OFFCURVE",
"258 370 OFFCURVE",
"317 370 CURVE SMOOTH",
"373 370 OFFCURVE",
"410 326 OFFCURVE",
"410 261 CURVE SMOOTH",
"410 195 OFFCURVE",
"371 151 OFFCURVE",
"313 151 CURVE SMOOTH",
"256 151 OFFCURVE",
"218 195 OFFCURVE",
"218 261 CURVE SMOOTH"
);
}
);
width = 701;
}
);
leftKerningGroup = o;
leftMetricsKey = o;
rightKerningGroup = n;
rightMetricsKey = n;
unicode = 0111;
},
{
glyphname = e;
lastChange = "2025-09-11 03:22:23 +0000";
layers = (
{
anchors = (
{
name = Bottom;
position = "{276, 0}";
},
{
name = Top;
position = "{268, 532}";
}
);
layerId = "FD4D3FDD-DE85-408F-A52A-FF600B1C6101";
paths = (
{
closed = 1;
nodes = (
"434 159 LINE",
"417 77 OFFCURVE",
"358 29 OFFCURVE",
"276 29 CURVE SMOOTH",
"166 29 OFFCURVE",
"100 113 OFFCURVE",
"98 256 CURVE",
"487 256 LINE",
"487 298 LINE SMOOTH",
"487 445 OFFCURVE",
"406 532 OFFCURVE",
"268 532 CURVE SMOOTH",
"131 532 OFFCURVE",
"50 432 OFFCURVE",
"50 263 CURVE SMOOTH",
"50 90 OFFCURVE",
"134 -13 OFFCURVE",
"275 -13 CURVE SMOOTH",
"385 -13 OFFCURVE",
"462 51 OFFCURVE",
"482 159 CURVE"
);
},
{
closed = 1;
nodes = (
"111 420 OFFCURVE",
"172 490 OFFCURVE",
"269 490 CURVE SMOOTH",
"376 490 OFFCURVE",
"439 419 OFFCURVE",
"439 298 CURVE",
"100 298 LINE"
);
}
);
width = 537;
},
{
anchors = (
{
name = Bottom;
position = "{322, 0}";
},
{
name = Top;
position = "{322, 532}";
}
);
layerId = m002;
paths = (
{
closed = 1;
nodes = (
"399 175 LINE",
"391 143 OFFCURVE",
"364 124 OFFCURVE",
"327 124 CURVE SMOOTH",
"284 124 OFFCURVE",
"256 157 OFFCURVE",
"246 214 CURVE",
"592 214 LINE",
"592 243 LINE SMOOTH",
"592 424 OFFCURVE",
"492 532 OFFCURVE",
"322 532 CURVE SMOOTH",
"138 532 OFFCURVE",
"30 431 OFFCURVE",
"30 259 CURVE SMOOTH",
"30 88 OFFCURVE",
"135 -13 OFFCURVE",
"313 -13 CURVE SMOOTH",
"467 -13 OFFCURVE",
"573 57 OFFCURVE",
"597 175 CURVE"
);
},
{
closed = 1;
nodes = (
"261 369 OFFCURVE",
"285 395 OFFCURVE",
"319 395 CURVE SMOOTH",
"353 395 OFFCURVE",
"375 369 OFFCURVE",
"382 324 CURVE",
"250 324 LINE"
);
}
);
width = 627;
}
);
leftKerningGroup = o;
leftMetricsKey = o;
rightKerningGroup = e;
rightMetricsKey = o;
unicode = 0065;
},
{
color = 10;
glyphname = eopen;
lastChange = "2025-09-10 22:19:48 +0000";
layers = (
{
layerId = "FD4D3FDD-DE85-408F-A52A-FF600B1C6101";
paths = (
{
closed = 1;
nodes = (
"98 209 OFFCURVE",
"146 250 OFFCURVE",
"228 250 CURVE SMOOTH",
"263 250 LINE",
"263 292 LINE",
"228 292 LINE SMOOTH",
"157 292 OFFCURVE",
"115 328 OFFCURVE",
"115 388 CURVE SMOOTH",
"115 452 OFFCURVE",
"157 490 OFFCURVE",
"228 490 CURVE SMOOTH",
"303 490 OFFCURVE",
"348 451 OFFCURVE",
"348 386 CURVE",
"396 386 LINE",
"396 478 OFFCURVE",
"334 532 OFFCURVE",
"228 532 CURVE SMOOTH",
"127 532 OFFCURVE",
"67 479 OFFCURVE",
"67 388 CURVE SMOOTH",
"67 330 OFFCURVE",
"94 287 OFFCURVE",
"139 272 CURVE",
"139 270 LINE",
"83 259 OFFCURVE",
"50 211 OFFCURVE",
"50 140 CURVE SMOOTH",
"50 44 OFFCURVE",
"115 -13 OFFCURVE",
"226 -13 CURVE SMOOTH",
"337 -13 OFFCURVE",
"402 43 OFFCURVE",
"402 138 CURVE",
"354 138 LINE",
"354 69 OFFCURVE",
"306 29 OFFCURVE",
"226 29 CURVE SMOOTH",
"146 29 OFFCURVE",
"98 70 OFFCURVE",
"98 140 CURVE SMOOTH"
);
}
);
width = 452;
},
{
layerId = m002;
paths = (
{
closed = 1;
nodes = (
"239 207 OFFCURVE",
"255 220 OFFCURVE",
"281 220 CURVE SMOOTH",
"306 220 LINE",
"306 316 LINE",
"281 316 LINE SMOOTH",
"266 316 OFFCURVE",
"257 326 OFFCURVE",
"257 342 CURVE SMOOTH",
"257 363 OFFCURVE",
"270 375 OFFCURVE",
"291 375 CURVE SMOOTH",
"314 375 OFFCURVE",
"328 359 OFFCURVE",
"328 331 CURVE",
"536 331 LINE",
"536 457 OFFCURVE",
"445 532 OFFCURVE",
"291 532 CURVE SMOOTH",
"139 532 OFFCURVE",
"49 470 OFFCURVE",
"49 364 CURVE SMOOTH",
"49 319 OFFCURVE",
"68 285 OFFCURVE",
"99 272 CURVE",
"99 270 LINE",
"56 256 OFFCURVE",
"30 218 OFFCURVE",
"30 169 CURVE SMOOTH",
"30 55 OFFCURVE",
"124 -13 OFFCURVE",
"284 -13 CURVE SMOOTH",
"452 -13 OFFCURVE",
"551 65 OFFCURVE",
"551 196 CURVE",
"343 196 LINE",
"343 163 OFFCURVE",
"321 144 OFFCURVE",
"284 144 CURVE SMOOTH",
"256 144 OFFCURVE",
"239 160 OFFCURVE",
"239 186 CURVE SMOOTH"
);
}
);
width = 581;
}
);
leftKerningGroup = o;
leftMetricsKey = o;
rightKerningGroup = o;
rightMetricsKey = o;
unicode = 025B;
},
{
color = 10;
glyphname = schwa;
lastChange = "2025-09-10 22:19:50 +0000";
layers = (
{
layerId = "FD4D3FDD-DE85-408F-A52A-FF600B1C6101";
paths = (
{
closed = 1;
nodes = (
"103 358 LINE",
"120 440 OFFCURVE",
"179 488 OFFCURVE",
"261 488 CURVE SMOOTH",
"367 488 OFFCURVE",
"429 405 OFFCURVE",
"429 263 CURVE",
"50 263 LINE",
"50 75 OFFCURVE",
"126 -13 OFFCURVE",
"254 -13 CURVE SMOOTH",
"394 -13 OFFCURVE",
"477 90 OFFCURVE",
"477 264 CURVE SMOOTH",
"477 431 OFFCURVE",
"397 530 OFFCURVE",
"262 530 CURVE SMOOTH",
"152 530 OFFCURVE",
"75 466 OFFCURVE",
"55 358 CURVE"
);
},
{
closed = 1;
nodes = (
"427 223 LINE",
"416 100 OFFCURVE",
"353 29 OFFCURVE",
"253 29 CURVE SMOOTH",
"156 29 OFFCURVE",
"98 101 OFFCURVE",
"98 223 CURVE"
);
}
);
width = 527;
},
{
layerId = m002;
paths = (
{
closed = 1;
nodes = (
"228 344 LINE",
"236 376 OFFCURVE",
"266 395 OFFCURVE",
"310 395 CURVE SMOOTH",
"355 395 OFFCURVE",
"385 362 OFFCURVE",
"395 305 CURVE",
"35 305 LINE",
"35 95 OFFCURVE",
"135 -13 OFFCURVE",
"305 -13 CURVE SMOOTH",
"489 -13 OFFCURVE",
"597 88 OFFCURVE",
"597 260 CURVE SMOOTH",
"597 431 OFFCURVE",
"492 532 OFFCURVE",
"314 532 CURVE SMOOTH",
"160 532 OFFCURVE",
"54 462 OFFCURVE",
"30 344 CURVE"
);
},
{
closed = 1;
nodes = (
"391 195 LINE",
"377 150 OFFCURVE",
"348 124 OFFCURVE",
"308 124 CURVE SMOOTH",
"269 124 OFFCURVE",
"244 150 OFFCURVE",
"236 195 CURVE"
);
}
);
width = 627;
}
);
leftKerningGroup = o;
leftMetricsKey = e;
rightKerningGroup = o;
rightMetricsKey = e;
unicode = 0259;
},
{
color = 10;
glyphname = ezh;
lastChange = "2025-09-10 22:19:55 +0000";
layers = (
{
anchors = (
{
name = Top;
position = "{280, 520}";
}
);
layerId = "FD4D3FDD-DE85-408F-A52A-FF600B1C6101";
paths = (
{
closed = 1;
nodes = (
"72 478 LINE",
"426 478 LINE",
"255 275 LINE",
"255 233 LINE",
"290 233 LINE SMOOTH",
"391 233 OFFCURVE",
"458 161 OFFCURVE",
"458 52 CURVE SMOOTH",
"458 -58 OFFCURVE",
"388 -132 OFFCURVE",
"282 -132 CURVE SMOOTH",
"172 -132 OFFCURVE",
"98 -61 OFFCURVE",
"98 45 CURVE",
"50 45 LINE",
"50 -86 OFFCURVE",
"143 -174 OFFCURVE",
"282 -174 CURVE SMOOTH",
"416 -174 OFFCURVE",
"506 -84 OFFCURVE",
"506 52 CURVE SMOOTH",
"506 180 OFFCURVE",
"427 267 OFFCURVE",
"307 275 CURVE",
"479 478 LINE",
"479 520 LINE",
"72 520 LINE"
);
}
);
width = 556;
},
{
anchors = (
{
name = Top;
position = "{312, 520}";
}
);
layerId = m002;
paths = (
{
closed = 1;
nodes = (
"52 370 LINE",
"342 370 LINE",
"265 285 LINE",
"265 135 LINE",
"312 135 LINE SMOOTH",
"353 135 OFFCURVE",
"378 108 OFFCURVE",
"378 61 CURVE SMOOTH",
"378 15 OFFCURVE",
"353 -12 OFFCURVE",
"312 -12 CURVE SMOOTH",
"265 -12 OFFCURVE",
"238 17 OFFCURVE",
"238 65 CURVE",
"30 65 LINE",
"30 -85 OFFCURVE",
"135 -174 OFFCURVE",
"312 -174 CURVE SMOOTH",
"484 -174 OFFCURVE",
"586 -89 OFFCURVE",
"586 55 CURVE SMOOTH",
"586 155 OFFCURVE",
"537 227 OFFCURVE",
"450 261 CURVE",
"559 370 LINE",
"559 520 LINE",
"52 520 LINE"
);
}
);
width = 616;
}
);
leftKerningGroup = o;
leftMetricsKey = o;
rightKerningGroup = o;
rightMetricsKey = o;
unicode = 0292;
},
{
glyphname = f;
lastChange = "2025-09-15 22:17:01 +0000";
layers = (
{
layerId = "FD4D3FDD-DE85-408F-A52A-FF600B1C6101";
paths = (
{
closed = 1;
nodes = (
"153 518 LINE",
"60 523 LINE",
"60 478 LINE",
"153 478 LINE",
"153 0 LINE",
"201 0 LINE",
"201 478 LINE",
"325 478 LINE",
"325 520 LINE",
"201 520 LINE",
"201 575 LINE SMOOTH",
"201 654 OFFCURVE",
"235 695 OFFCURVE",
"300 695 CURVE SMOOTH",
"321 695 OFFCURVE",
"342 690 OFFCURVE",
"359 681 CURVE",
"359 723 LINE",
"341 731 OFFCURVE",
"318 736 OFFCURVE",
"297 736 CURVE SMOOTH",
"202 736 OFFCURVE",
"153 680 OFFCURVE",
"153 572 CURVE SMOOTH"
);
}
);
width = 399;
},
{
layerId = m002;
paths = (
{
closed = 1;
nodes = (
"123 518 LINE",
"50 523 LINE",
"50 370 LINE",
"123 370 LINE",
"123 0 LINE",
"321 0 LINE",
"321 370 LINE",
"425 370 LINE",
"425 520 LINE",
"321 520 LINE",
"321 532 LINE SMOOTH",
"321 562 OFFCURVE",
"340 577 OFFCURVE",
"375 577 CURVE SMOOTH",
"391 577 OFFCURVE",
"417 571 OFFCURVE",
"439 563 CURVE",
"439 723 LINE",
"421 731 OFFCURVE",
"392 736 OFFCURVE",
"365 736 CURVE SMOOTH",
"206 736 OFFCURVE",
"123 673 OFFCURVE",
"123 552 CURVE SMOOTH"
);
}
);
width = 469;
}
);
leftKerningGroup = f;
leftMetricsKey = n;
rightKerningGroup = f;
unicode = 0066;
},
{
glyphname = g;
lastChange = "2025-09-15 22:16:53 +0000";
layers = (
{
anchors = (
{
name = Top;
position = "{271, 531}";
}
);
layerId = "FD4D3FDD-DE85-408F-A52A-FF600B1C6101";
paths = (
{
closed = 1;
nodes = (
"479 520 LINE",
"416 520 LINE",
"431 442 LINE",
"429 442 LINE",
"396 499 OFFCURVE",
"338 532 OFFCURVE",
"271 532 CURVE SMOOTH",
"132 532 OFFCURVE",
"50 431 OFFCURVE",
"50 260 CURVE SMOOTH",
"50 88 OFFCURVE",
"134 -13 OFFCURVE",
"277 -13 CURVE SMOOTH",
"342 -13 OFFCURVE",
"401 26 OFFCURVE",
"434 93 CURVE",
"436 93 LINE",
"431 -22 LINE SMOOTH",
"426 -128 OFFCURVE",
"368 -191 OFFCURVE",
"275 -191 CURVE SMOOTH",
"191 -191 OFFCURVE",
"132 -143 OFFCURVE",
"115 -61 CURVE",
"67 -61 LINE",
"87 -169 OFFCURVE",
"164 -233 OFFCURVE",
"274 -233 CURVE SMOOTH",
"403 -233 OFFCURVE",
"479 -151 OFFCURVE",
"479 -11 CURVE SMOOTH"
);
},
{
closed = 1;
nodes = (
"98 405 OFFCURVE",
"163 490 OFFCURVE",
"272 490 CURVE SMOOTH",
"371 490 OFFCURVE",
"430 405 OFFCURVE",
"430 260 CURVE SMOOTH",
"430 115 OFFCURVE",
"371 29 OFFCURVE",
"272 29 CURVE SMOOTH",
"163 29 OFFCURVE",
"98 115 OFFCURVE",
"98 260 CURVE SMOOTH"
);
}
);
width = 539;
},
{
anchors = (
{
name = Top;
position = "{342, 532}";
}
);
layerId = m002;
paths = (
{
closed = 1;
nodes = (
"619 520 LINE",
"413 520 LINE",
"433 480 LINE",
"429 480 LINE",
"403 513 OFFCURVE",
"354 532 OFFCURVE",
"297 532 CURVE SMOOTH",
"129 532 OFFCURVE",
"30 431 OFFCURVE",
"30 260 CURVE SMOOTH",
"30 88 OFFCURVE",
"132 -13 OFFCURVE",
"305 -13 CURVE SMOOTH",
"359 -13 OFFCURVE",
"407 7 OFFCURVE",
"434 42 CURVE",
"436 42 LINE",
"436 -10 LINE SMOOTH",
"436 -64 OFFCURVE",
"403 -96 OFFCURVE",
"347 -96 CURVE SMOOTH",
"285 -96 OFFCURVE",
"249 -67 OFFCURVE",
"249 -19 CURVE",
"51 -19 LINE",
"51 -154 OFFCURVE",
"159 -233 OFFCURVE",
"342 -233 CURVE SMOOTH",
"516 -233 OFFCURVE",
"619 -151 OFFCURVE",
"619 -13 CURVE SMOOTH"
);
},
{
closed = 1;
nodes = (
"238 335 OFFCURVE",
"275 379 OFFCURVE",
"337 379 CURVE SMOOTH",
"389 379 OFFCURVE",
"420 335 OFFCURVE",
"420 260 CURVE SMOOTH",
"420 184 OFFCURVE",
"389 139 OFFCURVE",
"337 139 CURVE SMOOTH",
"275 139 OFFCURVE",
"238 184 OFFCURVE",
"238 260 CURVE SMOOTH"
);
}
);
width = 669;
}
);
leftKerningGroup = o;
leftMetricsKey = o;
rightKerningGroup = g;
rightMetricsKey = n;
unicode = 0067;
},
{
color = 10;
glyphname = "gamma-latin";
lastChange = "2025-09-10 22:20:09 +0000";
layers = (
{
layerId = "FD4D3FDD-DE85-408F-A52A-FF600B1C6101";
paths = (
{
closed = 1;
nodes = (
"357 -217 OFFCURVE",
"411 -162 OFFCURVE",
"411 -79 CURVE SMOOTH",
"411 -17 OFFCURVE",
"373 37 OFFCURVE",
"341 91 CURVE SMOOTH",
"301 159 LINE",
"510 520 LINE",
"459 520 LINE",
"275 204 LINE",
"91 520 LINE",
"40 520 LINE",
"249 159 LINE",
"209 91 LINE SMOOTH",
"177 37 OFFCURVE",
"139 -17 OFFCURVE",
"139 -79 CURVE SMOOTH",
"139 -162 OFFCURVE",
"193 -217 OFFCURVE",
"275 -217 CURVE SMOOTH"
);
},
{
closed = 1;
nodes = (
"187 -19 OFFCURVE",
"229 34 OFFCURVE",
"260 88 CURVE SMOOTH",
"275 114 LINE",
"290 88 LINE SMOOTH",
"321 34 OFFCURVE",
"363 -19 OFFCURVE",
"363 -79 CURVE SMOOTH",
"363 -137 OFFCURVE",
"328 -175 OFFCURVE",
"275 -175 CURVE SMOOTH",
"222 -175 OFFCURVE",
"187 -137 OFFCURVE",
"187 -79 CURVE SMOOTH"
);
}
);
width = 550;
},
{
layerId = m002;
paths = (
{
closed = 1;
nodes = (
"458 -217 OFFCURVE",
"556 -132 OFFCURVE",
"556 13 CURVE SMOOTH",
"556 55 OFFCURVE",
"536 106 OFFCURVE",
"505 153 CURVE SMOOTH",
"407 301 LINE",
"545 520 LINE",
"324 520 LINE",
"293 473 LINE",
"262 520 LINE",
"41 520 LINE",
"179 301 LINE",
"81 153 LINE SMOOTH",
"50 106 OFFCURVE",
"30 55 OFFCURVE",
"30 13 CURVE SMOOTH",
"30 -132 OFFCURVE",
"128 -217 OFFCURVE",
"293 -217 CURVE SMOOTH"
);
},
{
closed = 1;
nodes = (
"238 22 OFFCURVE",
"251 53 OFFCURVE",
"274 88 CURVE SMOOTH",
"293 118 LINE",
"312 88 LINE SMOOTH",
"335 53 OFFCURVE",
"348 22 OFFCURVE",
"348 4 CURVE SMOOTH",
"348 -29 OFFCURVE",
"328 -49 OFFCURVE",
"293 -49 CURVE SMOOTH",
"258 -49 OFFCURVE",
"238 -29 OFFCURVE",
"238 4 CURVE SMOOTH"
);
}
);
width = 586;
}
);
leftKerningGroup = v;
leftMetricsKey = v;
rightKerningGroup = v;
rightMetricsKey = v;
unicode = 0263;
},
{
color = 10;
glyphname = glottalstop;
lastChange = "2025-09-10 22:20:43 +0000";
layers = (
{
layerId = "FD4D3FDD-DE85-408F-A52A-FF600B1C6101";
paths = (
{
closed = 1;
nodes = (
"243 0 LINE",
"243 315 OFFCURVE",
"496 285 OFFCURVE",
"496 521 CURVE SMOOTH",
"496 650 OFFCURVE",
"415 726 OFFCURVE",
"278 726 CURVE SMOOTH",
"135 726 OFFCURVE",
"50 649 OFFCURVE",
"50 520 CURVE",
"98 520 LINE",
"98 623 OFFCURVE",
"165 684 OFFCURVE",
"278 684 CURVE SMOOTH",
"385 684 OFFCURVE",
"448 623 OFFCURVE",
"448 521 CURVE SMOOTH",
"448 315 OFFCURVE",
"195 340 OFFCURVE",
"195 0 CURVE"
);
}
);
width = 546;
},
{
layerId = m002;
paths = (
{
closed = 1;
nodes = (
"337 0 LINE",
"337 258 OFFCURVE",
"622 216 OFFCURVE",
"622 475 CURVE SMOOTH",
"622 633 OFFCURVE",
"512 726 OFFCURVE",
"326 726 CURVE SMOOTH",
"140 726 OFFCURVE",
"30 629 OFFCURVE",
"30 465 CURVE",
"238 465 LINE",
"238 530 OFFCURVE",
"271 568 OFFCURVE",
"326 568 CURVE SMOOTH",
"381 568 OFFCURVE",
"414 533 OFFCURVE",
"414 475 CURVE SMOOTH",
"414 303 OFFCURVE",
"139 321 OFFCURVE",
"139 0 CURVE"
);
}
);
width = 652;
}
);
leftKerningGroup = o;
leftMetricsKey = o;
rightKerningGroup = p;
rightMetricsKey = o;
unicode = 0294;
},
{
color = 10;
glyphname = glottalstopreversed;
lastChange = "2025-09-10 22:20:54 +0000";
layers = (
{
layerId = "FD4D3FDD-DE85-408F-A52A-FF600B1C6101";
paths = (
{
closed = 1;
nodes = (
"351 0 LINE",
"351 340 OFFCURVE",
"98 315 OFFCURVE",
"98 521 CURVE SMOOTH",
"98 623 OFFCURVE",
"161 684 OFFCURVE",
"268 684 CURVE SMOOTH",
"381 684 OFFCURVE",
"448 623 OFFCURVE",
"448 520 CURVE",
"496 520 LINE",
"496 649 OFFCURVE",
"411 726 OFFCURVE",
"268 726 CURVE SMOOTH",
"131 726 OFFCURVE",
"50 650 OFFCURVE",
"50 521 CURVE SMOOTH",
"50 285 OFFCURVE",
"303 315 OFFCURVE",
"303 0 CURVE"
);
}
);
width = 546;
},
{
layerId = m002;
paths = (
{
closed = 1;
nodes = (
"513 0 LINE",
"513 321 OFFCURVE",
"238 303 OFFCURVE",
"238 475 CURVE SMOOTH",
"238 533 OFFCURVE",
"271 568 OFFCURVE",
"326 568 CURVE SMOOTH",
"381 568 OFFCURVE",
"414 530 OFFCURVE",
"414 465 CURVE",
"622 465 LINE",
"622 629 OFFCURVE",
"512 726 OFFCURVE",
"326 726 CURVE SMOOTH",
"140 726 OFFCURVE",
"30 633 OFFCURVE",
"30 475 CURVE SMOOTH",
"30 216 OFFCURVE",
"315 258 OFFCURVE",
"315 0 CURVE"
);
}
);
width = 652;
}
);
leftKerningGroup = o;
leftMetricsKey = o;
rightKerningGroup = o;
rightMetricsKey = o;
unicode = 0295;
},
{
color = 10;
glyphname = gstroke;
lastChange = "2025-09-10 22:21:05 +0000";
layers = (
{
layerId = "FD4D3FDD-DE85-408F-A52A-FF600B1C6101";
paths = (
{
closed = 1;
nodes = (
"479 238 LINE",
"555 238 LINE",
"555 280 LINE",
"479 280 LINE",
"479 520 LINE",
"416 520 LINE",
"431 442 LINE",
"429 442 LINE",
"396 499 OFFCURVE",
"338 532 OFFCURVE",
"271 532 CURVE SMOOTH",
"132 532 OFFCURVE",
"50 431 OFFCURVE",
"50 260 CURVE SMOOTH",
"50 88 OFFCURVE",
"134 -13 OFFCURVE",
"277 -13 CURVE SMOOTH",
"342 -13 OFFCURVE",
"401 26 OFFCURVE",
"434 93 CURVE",
"436 93 LINE",
"431 -22 LINE SMOOTH",
"426 -128 OFFCURVE",
"368 -191 OFFCURVE",
"275 -191 CURVE SMOOTH",
"191 -191 OFFCURVE",
"132 -143 OFFCURVE",
"115 -61 CURVE",
"67 -61 LINE",
"87 -169 OFFCURVE",
"164 -233 OFFCURVE",
"274 -233 CURVE SMOOTH",
"403 -233 OFFCURVE",
"479 -151 OFFCURVE",
"479 -11 CURVE SMOOTH"
);
},
{
closed = 1;
nodes = (
"98 405 OFFCURVE",
"163 490 OFFCURVE",
"272 490 CURVE SMOOTH",
"367 490 OFFCURVE",
"425 412 OFFCURVE",
"430 278 CURVE",
"355 283 LINE",
"355 238 LINE",
"430 238 LINE",
"424 106 OFFCURVE",
"366 29 OFFCURVE",
"272 29 CURVE SMOOTH",
"163 29 OFFCURVE",
"98 115 OFFCURVE",
"98 260 CURVE SMOOTH"
);
}
);
width = 615;
},
{
layerId = m002;
paths = (
{
closed = 1;
nodes = (
"619 199 LINE",
"689 199 LINE",
"689 319 LINE",
"619 319 LINE",
"619 520 LINE",
"413 520 LINE",
"433 480 LINE",
"429 480 LINE",
"403 513 OFFCURVE",
"354 532 OFFCURVE",
"297 532 CURVE SMOOTH",
"129 532 OFFCURVE",
"30 431 OFFCURVE",
"30 260 CURVE SMOOTH",
"30 88 OFFCURVE",
"132 -13 OFFCURVE",
"305 -13 CURVE SMOOTH",
"359 -13 OFFCURVE",
"407 7 OFFCURVE",
"434 42 CURVE",
"436 42 LINE",
"436 -10 LINE SMOOTH",
"436 -64 OFFCURVE",
"403 -96 OFFCURVE",
"347 -96 CURVE SMOOTH",
"285 -96 OFFCURVE",
"249 -67 OFFCURVE",
"249 -19 CURVE",
"51 -19 LINE",
"51 -154 OFFCURVE",
"159 -233 OFFCURVE",
"342 -233 CURVE SMOOTH",
"516 -233 OFFCURVE",
"619 -151 OFFCURVE",
"619 -13 CURVE SMOOTH"
);
},
{
closed = 1;
nodes = (
"238 335 OFFCURVE",
"275 379 OFFCURVE",
"337 379 CURVE SMOOTH",
"374 379 OFFCURVE",
"400 357 OFFCURVE",
"412 317 CURVE",
"325 322 LINE",
"325 199 LINE",
"411 199 LINE",
"399 161 OFFCURVE",
"373 139 OFFCURVE",
"337 139 CURVE SMOOTH",
"275 139 OFFCURVE",
"238 184 OFFCURVE",
"238 260 CURVE SMOOTH"
);
}
);
width = 739;
}
);
leftKerningGroup = o;
leftMetricsKey = g;
rightKerningGroup = t;
rightMetricsKey = g;
unicode = 01E5;
},
{
glyphname = h;
lastChange = "2025-09-11 03:21:08 +0000";
layers = (
{
anchors = (
{
name = Bottom;
position = "{255, 0}";
},
{
name = Top;
position = "{84, 736}";
}
);
layerId = "FD4D3FDD-DE85-408F-A52A-FF600B1C6101";
paths = (
{
closed = 1;
nodes = (
"60 736 LINE",
"60 0 LINE",
"108 0 LINE",
"108 280 LINE SMOOTH",
"108 412 OFFCURVE",
"166 490 OFFCURVE",
"265 490 CURVE SMOOTH",
"350 490 OFFCURVE",
"401 430 OFFCURVE",
"401 328 CURVE SMOOTH",
"401 0 LINE",
"449 0 LINE",
"449 333 LINE SMOOTH",
"449 458 OFFCURVE",
"383 532 OFFCURVE",
"270 532 CURVE SMOOTH",
"193 532 OFFCURVE",
"132 493 OFFCURVE",
"105 427 CURVE",
"103 427 LINE",
"113 520 LINE",
"113 736 LINE"
);
}
);
width = 509;
},
{
anchors = (
{
name = Bottom;
position = "{317, 0}";
},
{
name = Top;
position = "{145, 736}";
}
);
layerId = m002;
paths = (
{
closed = 1;
nodes = (
"50 736 LINE",
"50 0 LINE",
"248 0 LINE",
"248 276 LINE SMOOTH",
"248 335 OFFCURVE",
"274 370 OFFCURVE",
"317 370 CURVE SMOOTH",
"360 370 OFFCURVE",
"385 340 OFFCURVE",
"385 288 CURVE SMOOTH",
"385 0 LINE",
"583 0 LINE",
"583 333 LINE SMOOTH",
"583 458 OFFCURVE",
"509 532 OFFCURVE",
"383 532 CURVE SMOOTH",
"321 532 OFFCURVE",
"271 512 OFFCURVE",
"245 477 CURVE",
"241 477 LINE",
"248 549 LINE",
"248 736 LINE"
);
}
);
width = 633;
}
);
leftKerningGroup = h;
leftMetricsKey = n;
rightKerningGroup = n;
rightMetricsKey = n;
unicode = 0068;
},
{
color = 10;
glyphname = hbar;
lastChange = "2025-09-11 23:34:03 +0000";
layers = (
{
layerId = "FD4D3FDD-DE85-408F-A52A-FF600B1C6101";
paths = (
{
closed = 1;
nodes = (
"153 736 LINE",
"153 659 LINE",
"60 664 LINE",
"60 619 LINE",
"153 619 LINE",
"153 0 LINE",
"201 0 LINE",
"201 280 LINE SMOOTH",
"201 412 OFFCURVE",
"259 490 OFFCURVE",
"358 490 CURVE SMOOTH",
"443 490 OFFCURVE",
"494 430 OFFCURVE",
"494 328 CURVE SMOOTH",
"494 0 LINE",
"542 0 LINE",
"542 333 LINE SMOOTH",
"542 458 OFFCURVE",
"476 532 OFFCURVE",
"363 532 CURVE SMOOTH",
"286 532 OFFCURVE",
"225 493 OFFCURVE",
"198 427 CURVE",
"196 427 LINE",
"206 520 LINE",
"206 619 LINE",
"335 619 LINE",
"335 661 LINE",
"206 661 LINE",
"206 736 LINE"
);
}
);
width = 602;
},
{
layerId = m002;
paths = (
{
closed = 1;
nodes = (
"126 736 LINE",
"126 685 LINE",
"50 690 LINE",
"50 587 LINE",
"126 587 LINE",
"126 0 LINE",
"324 0 LINE",
"324 276 LINE SMOOTH",
"324 335 OFFCURVE",
"350 370 OFFCURVE",
"393 370 CURVE SMOOTH",
"436 370 OFFCURVE",
"461 340 OFFCURVE",
"461 288 CURVE SMOOTH",
"461 0 LINE",
"659 0 LINE",
"659 333 LINE SMOOTH",
"659 458 OFFCURVE",
"585 532 OFFCURVE",
"459 532 CURVE SMOOTH",
"397 532 OFFCURVE",
"347 512 OFFCURVE",
"321 477 CURVE",
"317 477 LINE",
"324 549 LINE",
"324 587 LINE",
"395 587 LINE",
"395 687 LINE",
"324 687 LINE",
"324 736 LINE"
);
}
);
width = 709;
}
);
leftKerningGroup = hbar;
leftMetricsKey = n;
rightKerningGroup = n;
rightMetricsKey = n;
unicode = 0127;
},
{
color = 10;
glyphname = idotless;
lastChange = "2025-08-28 14:57:49 +0000";
layers = (
{
anchors = (
{
name = Bottom;
position = "{84, 0}";
},
{
name = Top;
position = "{84, 520}";
}
);
layerId = "FD4D3FDD-DE85-408F-A52A-FF600B1C6101";
paths = (
{
closed = 1;
nodes = (
"60 520 LINE",
"60 0 LINE",
"108 0 LINE",
"108 520 LINE"
);
}
);
width = 168;
},
{
anchors = (
{
name = Bottom;
position = "{149, 0}";
},
{
name = Top;
position = "{149, 520}";
}
);
layerId = m002;
paths = (
{
closed = 1;
nodes = (
"50 520 LINE",
"50 0 LINE",
"248 0 LINE",
"248 520 LINE"
);
}
);
width = 298;
}
);
leftKerningGroup = i;
leftMetricsKey = n;
rightKerningGroup = i;
rightMetricsKey = n;
unicode = 0131;
},
{
color = 10;
glyphname = ij;
lastChange = "2025-09-10 22:21:55 +0000";
layers = (
{
layerId = "FD4D3FDD-DE85-408F-A52A-FF600B1C6101";
paths = (
{
closed = 1;
nodes = (
"81 -176 OFFCURVE",
"156 -233 OFFCURVE",
"262 -233 CURVE SMOOTH",
"391 -233 OFFCURVE",
"467 -151 OFFCURVE",
"467 -11 CURVE SMOOTH",
"467 520 LINE",
"419 520 LINE",
"419 207 LINE SMOOTH",
"419 95 OFFCURVE",
"361 29 OFFCURVE",
"263 29 CURVE SMOOTH",
"182 29 OFFCURVE",
"128 81 OFFCURVE",
"128 159 CURVE SMOOTH",
"128 520 LINE",
"80 520 LINE",
"80 147 LINE SMOOTH",
"80 51 OFFCURVE",
"156 -13 OFFCURVE",
"263 -13 CURVE SMOOTH",
"329 -13 OFFCURVE",
"391 23 OFFCURVE",
"417 78 CURVE",
"419 78 LINE",
"419 -22 LINE SMOOTH",
"419 -128 OFFCURVE",
"362 -191 OFFCURVE",
"266 -191 CURVE SMOOTH",
"183 -191 OFFCURVE",
"124 -149 OFFCURVE",
"108 -79 CURVE",
"60 -79 LINE"
);
},
{
closed = 1;
nodes = (
"128 567 LINE",
"128 649 LINE",
"80 649 LINE",
"80 567 LINE"
);
},
{
closed = 1;
nodes = (
"467 567 LINE",
"467 649 LINE",
"419 649 LINE",
"419 567 LINE"
);
}
);
width = 527;
},
{
layerId = m002;
paths = (
{
closed = 1;
nodes = (
"50 -174 OFFCURVE",
"139 -233 OFFCURVE",
"322 -233 CURVE SMOOTH",
"504 -233 OFFCURVE",
"611 -151 OFFCURVE",
"611 -13 CURVE SMOOTH",
"611 520 LINE",
"413 520 LINE",
"413 222 LINE SMOOTH",
"413 177 OFFCURVE",
"386 150 OFFCURVE",
"340 150 CURVE SMOOTH",
"295 150 OFFCURVE",
"269 177 OFFCURVE",
"269 222 CURVE SMOOTH",
"269 520 LINE",
"71 520 LINE",
"71 170 LINE SMOOTH",
"71 56 OFFCURVE",
"150 -12 OFFCURVE",
"285 -12 CURVE SMOOTH",
"340 -12 OFFCURVE",
"389 5 OFFCURVE",
"416 33 CURVE",
"419 33 LINE",
"416 -10 LINE SMOOTH",
"412 -64 OFFCURVE",
"379 -96 OFFCURVE",
"327 -96 CURVE SMOOTH",
"277 -96 OFFCURVE",
"248 -75 OFFCURVE",
"248 -39 CURVE",
"50 -39 LINE"
);
},
{
closed = 1;
nodes = (
"269 567 LINE",
"269 717 LINE",
"71 717 LINE",
"71 567 LINE"
);
},
{
closed = 1;
nodes = (
"611 567 LINE",
"611 717 LINE",
"413 717 LINE",
"413 567 LINE"
);
}
);
width = 661;
}
);
leftKerningGroup = ij;
leftMetricsKey = u;
rightKerningGroup = ij;
rightMetricsKey = jdotless;
unicode = 0133;
},
{
color = 10;
glyphname = "iota-latin";
lastChange = "2025-09-10 22:22:03 +0000";
layers = (
{
layerId = "FD4D3FDD-DE85-408F-A52A-FF600B1C6101";
paths = (
{
closed = 1;
nodes = (
"40 27 OFFCURVE",
"79 -11 OFFCURVE",
"144 -11 CURVE SMOOTH",
"160 -11 OFFCURVE",
"176 -7 OFFCURVE",
"189 -1 CURVE",
"189 41 LINE",
"179 34 OFFCURVE",
"162 30 OFFCURVE",
"143 30 CURVE SMOOTH",
"108 30 OFFCURVE",
"88 53 OFFCURVE",
"88 91 CURVE SMOOTH",
"88 520 LINE",
"40 520 LINE",
"40 91 LINE SMOOTH"
);
}
);
width = 229;
},
{
layerId = m002;
paths = (
{
closed = 1;
nodes = (
"40 55 OFFCURVE",
"125 -13 OFFCURVE",
"270 -13 CURVE SMOOTH",
"296 -13 OFFCURVE",
"323 -8 OFFCURVE",
"341 0 CURVE",
"341 160 LINE",
"323 151 OFFCURVE",
"300 146 OFFCURVE",
"279 146 CURVE SMOOTH",
"253 146 OFFCURVE",
"238 163 OFFCURVE",
"238 191 CURVE SMOOTH",
"238 520 LINE",
"40 520 LINE",
"40 171 LINE SMOOTH"
);
}
);
width = 371;
}
);
leftKerningGroup = iota;
rightKerningGroup = iota;
rightMetricsKey = t;
unicode = 0269;
},
{
color = 10;
glyphname = istroke;
lastChange = "2023-09-06 16:01:00 +0000";
layers = (
{
components = (
{
name = idotless;
transform = "{1, 0, 0, 1, 76, 0}";
}
);
layerId = "FD4D3FDD-DE85-408F-A52A-FF600B1C6101";
paths = (
{
closed = 1;
nodes = (
"116 567 LINE",
"164 567 LINE",
"164 632 LINE",
"116 632 LINE"
);
},
{
closed = 1;
nodes = (
"240 251 LINE",
"240 293 LINE",
"161 293 LINE",
"119 291 LINE",
"40 296 LINE",
"40 251 LINE"
);
}
);
width = 280;
},
{
components = (
{
name = idotless;
transform = "{1, 0, 0, 1, 83, 0}";
}
);
layerId = m002;
paths = (
{
closed = 1;
nodes = (
"103 567 LINE",
"301 567 LINE",
"301 700 LINE",
"103 700 LINE"
);
},
{
closed = 1;
nodes = (
"384 209 LINE",
"384 329 LINE",
"296 329 LINE",
"108 327 LINE",
"20 332 LINE",
"20 209 LINE"
);
}
);
width = 404;
}
);
leftKerningGroup = istroke;
rightKerningGroup = i;
unicode = 0268;
},
{
color = 10;
glyphname = jdotless;
lastChange = "2025-08-28 14:58:01 +0000";
layers = (
{
anchors = (
{
name = Top;
position = "{212, 520}";
}
);
hints = (
{
horizontal = 1;
place = "{520, 0}";
type = Stem;
}
);
layerId = "FD4D3FDD-DE85-408F-A52A-FF600B1C6101";
paths = (
{
closed = 1;
nodes = (
"236 520 LINE",
"188 520 LINE",
"188 -70 LINE SMOOTH",
"188 -147 OFFCURVE",
"144 -192 OFFCURVE",
"69 -192 CURVE SMOOTH",
"50 -192 OFFCURVE",
"32 -191 OFFCURVE",
"20 -188 CURVE",
"20 -230 LINE",
"35 -232 OFFCURVE",
"53 -233 OFFCURVE",
"68 -233 CURVE SMOOTH",
"174 -233 OFFCURVE",
"236 -172 OFFCURVE",
"236 -70 CURVE SMOOTH"
);
}
);
width = 296;
},
{
anchors = (
{
name = Top;
position = "{212, 520}";
}
);
hints = (
{
horizontal = 1;
place = "{520, 0}";
type = Stem;
}
);
layerId = m002;
paths = (
{
closed = 1;
nodes = (
"311 520 LINE",
"113 520 LINE",
"113 -12 LINE SMOOTH",
"113 -51 OFFCURVE",
"97 -74 OFFCURVE",
"69 -74 CURVE SMOOTH",
"51 -74 OFFCURVE",
"33 -73 OFFCURVE",
"20 -70 CURVE",
"20 -230 LINE",
"31 -232 OFFCURVE",
"49 -233 OFFCURVE",
"68 -233 CURVE SMOOTH",
"221 -233 OFFCURVE",
"311 -150 OFFCURVE",
"311 -10 CURVE SMOOTH"
);
}
);
width = 361;
}
);
leftKerningGroup = j;
rightKerningGroup = j;
rightMetricsKey = n;
unicode = 0237;
},
{
glyphname = k;
lastChange = "2025-09-11 02:19:17 +0000";
layers = (
{
anchors = (
{
name = Bottom;
position = "{236, 0}";
},
{
name = Top;
position = "{242, 520}";
}
);
layerId = "FD4D3FDD-DE85-408F-A52A-FF600B1C6101";
paths = (
{
closed = 1;
nodes = (
"60 0 LINE",
"108 0 LINE",
"108 181 LINE",
"213 285 LINE",
"396 0 LINE",
"452 0 LINE",
"249 321 LINE",
"450 520 LINE",
"382 520 LINE",
"110 251 LINE",
"108 251 LINE",
"108 736 LINE",
"60 736 LINE"
);
}
);
width = 492;
},
{
anchors = (
{
name = Bottom;
position = "{340, 0}";
},
{
name = Top;
position = "{352, 520}";
}
);
layerId = m002;
paths = (
{
closed = 1;
nodes = (
"50 0 LINE",
"248 0 LINE",
"248 113 LINE",
"317 184 LINE",
"435 0 LINE",
"649 0 LINE",
"449 319 LINE",
"646 520 LINE",
"390 520 LINE",
"250 380 LINE",
"248 380 LINE",
"248 736 LINE",
"50 736 LINE"
);
}
);
width = 679;
}
);
leftKerningGroup = h;
leftMetricsKey = n;
rightKerningGroup = k;
unicode = 006B;
},
{
color = 10;
glyphname = kgreenlandic;
lastChange = "2025-09-10 22:22:25 +0000";
layers = (
{
layerId = "FD4D3FDD-DE85-408F-A52A-FF600B1C6101";
paths = (
{
closed = 1;
nodes = (
"60 0 LINE",
"108 0 LINE",
"108 269 LINE",
"110 269 LINE",
"345 0 LINE",
"408 0 LINE",
"161 279 LINE",
"408 520 LINE",
"345 520 LINE",
"110 292 LINE",
"108 292 LINE",
"108 520 LINE",
"60 520 LINE"
);
}
);
width = 448;
},
{
layerId = m002;
paths = (
{
closed = 1;
nodes = (
"50 0 LINE",
"248 0 LINE",
"248 203 LINE",
"251 203 LINE",
"429 0 LINE",
"664 0 LINE",
"416 279 LINE",
"664 520 LINE",
"429 520 LINE",
"250 347 LINE",
"248 347 LINE",
"248 520 LINE",
"50 520 LINE"
);
}
);
width = 694;
}
);
leftKerningGroup = h;
leftMetricsKey = k;
rightKerningGroup = k;
rightMetricsKey = k;
unicode = 0138;
},
{
glyphname = l;
lastChange = "2025-09-12 18:10:00 +0000";
layers = (
{
anchors = (
{
name = Bottom;
position = "{84, 0}";
},
{
name = Caron;
position = "{186, 560}";
},
{
name = Top;
position = "{84, 736}";
},
{
name = Top_EC;
position = "{175, 570}";
}
);
layerId = "FD4D3FDD-DE85-408F-A52A-FF600B1C6101";
paths = (
{
closed = 1;
nodes = (
"60 0 LINE",
"108 0 LINE",
"108 736 LINE",
"60 736 LINE"
);
}
);
width = 168;
},
{
anchors = (
{
name = Bottom;
position = "{149, 0}";
},
{
name = Caron;
position = "{366, 560}";
},
{
name = Top;
position = "{149, 736}";
},
{
name = Top_EC;
position = "{366, 570}";
}
);
layerId = m002;
paths = (
{
closed = 1;
nodes = (
"50 0 LINE",
"248 0 LINE",
"248 736 LINE",
"50 736 LINE"
);
}
);
width = 298;
}
);
leftKerningGroup = h;
leftMetricsKey = n;
rightKerningGroup = l;
rightMetricsKey = n;
unicode = 006C;
},
{
color = 10;
glyphname = lambdastroke;
lastChange = "2025-09-10 22:22:27 +0000";
layers = (
{
layerId = "FD4D3FDD-DE85-408F-A52A-FF600B1C6101";
paths = (
{
closed = 1;
nodes = (
"257 435 LINE",
"259 435 LINE",
"373 125 LINE SMOOTH",
"408 30 OFFCURVE",
"462 -13 OFFCURVE",
"537 -13 CURVE SMOOTH",
"553 -13 OFFCURVE",
"571 -10 OFFCURVE",
"585 -5 CURVE",
"585 43 LINE",
"574 37 OFFCURVE",
"552 34 OFFCURVE",
"533 34 CURVE SMOOTH",
"485 34 OFFCURVE",
"445 64 OFFCURVE",
"423 125 CURVE SMOOTH",
"281 511 LINE",
"410 536 LINE",
"416 576 LINE",
"268 547 LINE",
"252 590 LINE SMOOTH",
"216 687 OFFCURVE",
"163 728 OFFCURVE",
"88 728 CURVE SMOOTH",
"72 728 OFFCURVE",
"54 725 OFFCURVE",
"40 720 CURVE",
"40 672 LINE",
"51 678 OFFCURVE",
"73 681 OFFCURVE",
"92 681 CURVE SMOOTH",
"140 681 OFFCURVE",
"180 651 OFFCURVE",
"202 590 CURVE SMOOTH",
"219 543 LINE",
"102 519 LINE",
"96 476 LINE",
"233 502 LINE",
"47 0 LINE",
"97 0 LINE"
);
}
);
width = 625;
},
{
layerId = m002;
paths = (
{
closed = 1;
nodes = (
"324 237 LINE",
"326 237 LINE",
"359 146 LINE SMOOTH",
"415 -6 OFFCURVE",
"496 -13 OFFCURVE",
"616 -13 CURVE SMOOTH",
"641 -13 OFFCURVE",
"665 -10 OFFCURVE",
"681 -5 CURVE",
"681 155 LINE",
"668 149 OFFCURVE",
"640 146 OFFCURVE",
"605 146 CURVE SMOOTH",
"577 146 OFFCURVE",
"552 159 OFFCURVE",
"544 182 CURVE SMOOTH",
"415 536 LINE",
"512 555 LINE",
"518 595 LINE",
"402 572 LINE",
"400 577 LINE SMOOTH",
"343 720 OFFCURVE",
"264 727 OFFCURVE",
"146 727 CURVE SMOOTH",
"121 727 OFFCURVE",
"97 724 OFFCURVE",
"81 719 CURVE",
"81 559 LINE",
"94 565 OFFCURVE",
"122 568 OFFCURVE",
"157 568 CURVE SMOOTH",
"180 568 OFFCURVE",
"201 559 OFFCURVE",
"211 544 CURVE SMOOTH",
"213 541 LINE",
"110 519 LINE",
"104 476 LINE",
"226 500 LINE",
"40 0 LINE",
"238 0 LINE"
);
}
);
width = 721;
}
);
leftKerningGroup = A;
leftMetricsKey = A;
rightKerningGroup = A;
rightMetricsKey = A;
unicode = 019B;
},
{
color = 10;
glyphname = lbar;
lastChange = "2025-09-10 22:22:30 +0000";
layers = (
{
layerId = "FD4D3FDD-DE85-408F-A52A-FF600B1C6101";
paths = (
{
closed = 1;
nodes = (
"136 381 LINE",
"60 386 LINE",
"60 341 LINE",
"136 341 LINE",
"136 0 LINE",
"184 0 LINE",
"184 341 LINE",
"260 341 LINE",
"260 383 LINE",
"184 383 LINE",
"184 736 LINE",
"136 736 LINE"
);
}
);
width = 320;
},
{
layerId = m002;
paths = (
{
closed = 1;
nodes = (
"133 417 LINE",
"50 422 LINE",
"50 299 LINE",
"133 299 LINE",
"133 0 LINE",
"331 0 LINE",
"331 299 LINE",
"414 299 LINE",
"414 419 LINE",
"331 419 LINE",
"331 736 LINE",
"133 736 LINE"
);
}
);
width = 464;
}
);
leftKerningGroup = l;
leftMetricsKey = l;
rightKerningGroup = l;
rightMetricsKey = l;
unicode = 019A;
},
{
color = 10;
glyphname = lbelt;
lastChange = "2025-09-10 22:22:32 +0000";
layers = (
{
layerId = "FD4D3FDD-DE85-408F-A52A-FF600B1C6101";
paths = (
{
closed = 1;
nodes = (
"161 487 LINE",
"153 490 OFFCURVE",
"144 491 OFFCURVE",
"135 491 CURVE SMOOTH",
"90 491 OFFCURVE",
"60 463 OFFCURVE",
"60 421 CURVE SMOOTH",
"60 373 OFFCURVE",
"93 341 OFFCURVE",
"143 341 CURVE SMOOTH",
"161 341 LINE",
"161 0 LINE",
"209 0 LINE",
"209 341 LINE",
"289 341 LINE",
"289 383 LINE",
"209 383 LINE",
"209 736 LINE",
"161 736 LINE"
);
},
{
closed = 1;
nodes = (
"108 438 OFFCURVE",
"119 449 OFFCURVE",
"135 449 CURVE SMOOTH",
"151 449 OFFCURVE",
"161 438 OFFCURVE",
"161 421 CURVE SMOOTH",
"161 383 LINE",
"151 383 LINE SMOOTH",
"125 383 OFFCURVE",
"108 398 OFFCURVE",
"108 421 CURVE SMOOTH"
);
}
);
width = 349;
},
{
layerId = m002;
paths = (
{
closed = 1;
nodes = (
"155 489 LINE",
"149 490 OFFCURVE",
"142 491 OFFCURVE",
"135 491 CURVE SMOOTH",
"82 491 OFFCURVE",
"50 461 OFFCURVE",
"50 410 CURVE SMOOTH",
"50 355 OFFCURVE",
"85 323 OFFCURVE",
"144 323 CURVE SMOOTH",
"155 323 LINE",
"155 0 LINE",
"353 0 LINE",
"353 323 LINE",
"453 323 LINE",
"453 383 LINE",
"353 383 LINE",
"353 736 LINE",
"155 736 LINE"
);
},
{
closed = 1;
nodes = (
"110 432 OFFCURVE",
"119 441 OFFCURVE",
"133 441 CURVE SMOOTH",
"147 441 OFFCURVE",
"155 434 OFFCURVE",
"155 421 CURVE SMOOTH",
"155 383 LINE",
"145 383 LINE SMOOTH",
"123 383 OFFCURVE",
"110 396 OFFCURVE",
"110 418 CURVE SMOOTH"
);
}
);
width = 503;
}
);
leftKerningGroup = l;
leftMetricsKey = l;
rightKerningGroup = l;
rightMetricsKey = l;
unicode = 026C;
},
{
color = 10;
glyphname = lmiddletilde;
lastChange = "2025-09-10 22:22:41 +0000";
layers = (
{
layerId = "FD4D3FDD-DE85-408F-A52A-FF600B1C6101";
paths = (
{
closed = 1;
nodes = (
"233 0 LINE",
"233 324 LINE",
"245 321 OFFCURVE",
"258 318 OFFCURVE",
"272 318 CURVE SMOOTH",
"321 318 OFFCURVE",
"354 350 OFFCURVE",
"354 399 CURVE",
"306 399 LINE",
"306 376 OFFCURVE",
"292 361 OFFCURVE",
"272 361 CURVE SMOOTH",
"258 361 OFFCURVE",
"245 364 OFFCURVE",
"233 369 CURVE",
"233 736 LINE",
"185 736 LINE",
"185 390 LINE",
"172 394 OFFCURVE",
"158 398 OFFCURVE",
"142 398 CURVE SMOOTH",
"93 398 OFFCURVE",
"60 366 OFFCURVE",
"60 317 CURVE",
"108 317 LINE",
"108 340 OFFCURVE",
"122 355 OFFCURVE",
"142 355 CURVE SMOOTH",
"157 355 OFFCURVE",
"171 350 OFFCURVE",
"185 344 CURVE",
"185 0 LINE"
);
}
);
width = 414;
},
{
layerId = m002;
paths = (
{
closed = 1;
nodes = (
"391 0 LINE",
"391 345 LINE",
"405 344 OFFCURVE",
"415 343 OFFCURVE",
"422 343 CURVE SMOOTH",
"492 343 OFFCURVE",
"534 383 OFFCURVE",
"534 451 CURVE",
"429 451 LINE",
"429 438 OFFCURVE",
"421 431 OFFCURVE",
"407 431 CURVE SMOOTH",
"400 431 OFFCURVE",
"396 431 OFFCURVE",
"391 432 CURVE",
"391 736 LINE",
"193 736 LINE",
"193 453 LINE",
"180 454 OFFCURVE",
"170 455 OFFCURVE",
"164 455 CURVE SMOOTH",
"92 455 OFFCURVE",
"50 415 OFFCURVE",
"50 347 CURVE",
"155 347 LINE",
"155 360 OFFCURVE",
"163 368 OFFCURVE",
"177 368 CURVE SMOOTH",
"183 368 OFFCURVE",
"187 368 OFFCURVE",
"193 367 CURVE",
"193 0 LINE"
);
}
);
width = 584;
}
);
leftKerningGroup = l;
leftMetricsKey = l;
rightKerningGroup = l;
rightMetricsKey = l;
unicode = 026B;
},
{
color = 10;
glyphname = lslash;
lastChange = "2025-09-10 22:23:18 +0000";
layers = (
{
layerId = "FD4D3FDD-DE85-408F-A52A-FF600B1C6101";
paths = (
{
closed = 1;
nodes = (
"160 415 LINE",
"60 356 LINE",
"60 298 LINE",
"160 357 LINE",
"160 0 LINE",
"208 0 LINE",
"208 386 LINE",
"308 445 LINE",
"308 503 LINE",
"208 444 LINE",
"208 736 LINE",
"160 736 LINE"
);
}
);
width = 368;
},
{
layerId = m002;
paths = (
{
closed = 1;
nodes = (
"150 412 LINE",
"50 345 LINE",
"50 207 LINE",
"150 275 LINE",
"150 0 LINE",
"318 0 LINE",
"318 388 LINE",
"418 456 LINE",
"418 592 LINE",
"318 525 LINE",
"318 736 LINE",
"150 736 LINE"
);
}
);
width = 468;
}
);
leftKerningGroup = l;
leftMetricsKey = n;
rightKerningGroup = l;
rightMetricsKey = n;
unicode = 0142;
},
{
glyphname = m;
lastChange = "2025-09-11 02:41:54 +0000";
layers = (
{
anchors = (
{
name = Bottom;
position = "{394, 0}";
}
);
hints = (
{
horizontal = 1;
origin = "{0, 35}";
target = up;
type = BottomGhost;
}
);
layerId = "FD4D3FDD-DE85-408F-A52A-FF600B1C6101";
paths = (
{
closed = 1;
nodes = (
"108 293 LINE SMOOTH",
"108 417 OFFCURVE",
"161 490 OFFCURVE",
"250 490 CURVE SMOOTH",
"325 490 OFFCURVE",
"370 430 OFFCURVE",
"370 328 CURVE SMOOTH",
"370 0 LINE",
"418 0 LINE",
"418 333 LINE SMOOTH",
"418 432 OFFCURVE",
"470 490 OFFCURVE",
"557 490 CURVE SMOOTH",
"634 490 OFFCURVE",
"680 430 OFFCURVE",
"680 328 CURVE SMOOTH",
"680 0 LINE",
"728 0 LINE",
"728 333 LINE SMOOTH",
"728 458 OFFCURVE",
"666 532 OFFCURVE",
"562 532 CURVE SMOOTH",
"480 532 OFFCURVE",
"418 495 OFFCURVE",
"395 433 CURVE",
"393 433 LINE",
"367 495 OFFCURVE",
"316 532 OFFCURVE",
"255 532 CURVE SMOOTH",
"182 532 OFFCURVE",
"127 493 OFFCURVE",
"105 427 CURVE",
"103 427 LINE",
"113 520 LINE",
"60 520 LINE",
"60 0 LINE",
"108 0 LINE"
);
}
);
width = 788;
},
{
anchors = (
{
name = Bottom;
position = "{465, 0}";
}
);
layerId = m002;
paths = (
{
closed = 1;
nodes = (
"248 296 LINE SMOOTH",
"248 343 OFFCURVE",
"270 370 OFFCURVE",
"307 370 CURVE SMOOTH",
"344 370 OFFCURVE",
"366 345 OFFCURVE",
"366 303 CURVE SMOOTH",
"366 0 LINE",
"564 0 LINE",
"564 296 LINE SMOOTH",
"564 343 OFFCURVE",
"586 370 OFFCURVE",
"623 370 CURVE SMOOTH",
"660 370 OFFCURVE",
"682 345 OFFCURVE",
"682 303 CURVE SMOOTH",
"682 0 LINE",
"880 0 LINE",
"880 323 LINE SMOOTH",
"880 454 OFFCURVE",
"805 532 OFFCURVE",
"677 532 CURVE SMOOTH",
"616 532 OFFCURVE",
"561 512 OFFCURVE",
"529 477 CURVE",
"527 477 LINE",
"496 512 OFFCURVE",
"442 532 OFFCURVE",
"380 532 CURVE SMOOTH",
"308 532 OFFCURVE",
"251 512 OFFCURVE",
"225 477 CURVE",
"221 477 LINE",
"236 520 LINE",
"50 520 LINE",
"50 0 LINE",
"248 0 LINE"
);
}
);
width = 930;
}
);
leftKerningGroup = n;
leftMetricsKey = n;
rightKerningGroup = n;
rightMetricsKey = n;
unicode = 006D;
},
{
glyphname = n;
lastChange = "2025-09-11 02:41:02 +0000";
layers = (
{
anchors = (
{
name = Bottom;
position = "{255, 0}";
},
{
name = Top;
position = "{260, 532}";
}
);
layerId = "FD4D3FDD-DE85-408F-A52A-FF600B1C6101";
paths = (
{
closed = 1;
nodes = (
"108 280 LINE SMOOTH",
"108 412 OFFCURVE",
"166 490 OFFCURVE",
"265 490 CURVE SMOOTH",
"350 490 OFFCURVE",
"401 430 OFFCURVE",
"401 328 CURVE SMOOTH",
"401 0 LINE",
"449 0 LINE",
"449 333 LINE SMOOTH",
"449 458 OFFCURVE",
"383 532 OFFCURVE",
"270 532 CURVE SMOOTH",
"193 532 OFFCURVE",
"132 493 OFFCURVE",
"105 427 CURVE",
"103 427 LINE",
"113 520 LINE",
"60 520 LINE",
"60 0 LINE",
"108 0 LINE"
);
}
);
width = 509;
},
{
anchors = (
{
name = Bottom;
position = "{318, 0}";
},
{
name = Top;
position = "{336, 532}";
}
);
layerId = m002;
paths = (
{
closed = 1;
nodes = (
"248 276 LINE SMOOTH",
"248 335 OFFCURVE",
"274 370 OFFCURVE",
"317 370 CURVE SMOOTH",
"360 370 OFFCURVE",
"385 340 OFFCURVE",
"385 288 CURVE SMOOTH",
"385 0 LINE",
"583 0 LINE",
"583 333 LINE SMOOTH",
"583 458 OFFCURVE",
"507 532 OFFCURVE",
"373 532 CURVE SMOOTH",
"310 532 OFFCURVE",
"258 512 OFFCURVE",
"232 477 CURVE",
"228 477 LINE",
"248 520 LINE",
"50 520 LINE",
"50 0 LINE",
"248 0 LINE"
);
}
);
width = 633;
}
);
leftKerningGroup = n;
rightKerningGroup = n;
unicode = 006E;
},
{
color = 10;
glyphname = eng;
lastChange = "2025-09-10 22:23:28 +0000";
layers = (
{
layerId = "FD4D3FDD-DE85-408F-A52A-FF600B1C6101";
paths = (
{
closed = 1;
nodes = (
"108 280 LINE SMOOTH",
"108 412 OFFCURVE",
"166 490 OFFCURVE",
"265 490 CURVE SMOOTH",
"350 490 OFFCURVE",
"401 430 OFFCURVE",
"401 328 CURVE SMOOTH",
"401 -70 LINE SMOOTH",
"401 -147 OFFCURVE",
"357 -192 OFFCURVE",
"282 -192 CURVE SMOOTH",
"263 -192 OFFCURVE",
"245 -191 OFFCURVE",
"233 -188 CURVE",
"233 -230 LINE",
"248 -232 OFFCURVE",
"266 -233 OFFCURVE",
"281 -233 CURVE SMOOTH",
"387 -233 OFFCURVE",
"449 -172 OFFCURVE",
"449 -70 CURVE SMOOTH",
"449 333 LINE SMOOTH",
"449 458 OFFCURVE",
"383 532 OFFCURVE",
"270 532 CURVE SMOOTH",
"193 532 OFFCURVE",
"132 493 OFFCURVE",
"105 427 CURVE",
"103 427 LINE",
"113 520 LINE",
"60 520 LINE",
"60 0 LINE",
"108 0 LINE"
);
}
);
width = 509;
},
{
layerId = m002;
paths = (
{
closed = 1;
nodes = (
"248 276 LINE SMOOTH",
"248 335 OFFCURVE",
"274 370 OFFCURVE",
"317 370 CURVE SMOOTH",
"360 370 OFFCURVE",
"385 340 OFFCURVE",
"385 288 CURVE SMOOTH",
"385 -12 LINE SMOOTH",
"385 -51 OFFCURVE",
"369 -74 OFFCURVE",
"341 -74 CURVE SMOOTH",
"323 -74 OFFCURVE",
"305 -73 OFFCURVE",
"292 -70 CURVE",
"292 -230 LINE",
"303 -232 OFFCURVE",
"321 -233 OFFCURVE",
"340 -233 CURVE SMOOTH",
"493 -233 OFFCURVE",
"583 -150 OFFCURVE",
"583 -10 CURVE SMOOTH",
"583 333 LINE SMOOTH",
"583 458 OFFCURVE",
"507 532 OFFCURVE",
"373 532 CURVE SMOOTH",
"310 532 OFFCURVE",
"258 512 OFFCURVE",
"232 477 CURVE",
"228 477 LINE",
"248 520 LINE",
"50 520 LINE",
"50 0 LINE",
"248 0 LINE"
);
}
);
width = 633;
}
);
leftKerningGroup = n;
leftMetricsKey = n;
rightKerningGroup = n;
rightMetricsKey = n;
unicode = 014B;
},
{
glyphname = o;
lastChange = "2025-09-15 22:17:10 +0000";
layers = (
{
anchors = (
{
name = Bottom;
position = "{282, 0}";
},
{
name = Top;
position = "{282, 532}";
}
);
layerId = "FD4D3FDD-DE85-408F-A52A-FF600B1C6101";
paths = (
{
closed = 1;
nodes = (
"136 532 OFFCURVE",
"50 431 OFFCURVE",
"50 259 CURVE SMOOTH",
"50 88 OFFCURVE",
"136 -13 OFFCURVE",
"282 -13 CURVE SMOOTH",
"428 -13 OFFCURVE",
"515 88 OFFCURVE",
"515 259 CURVE SMOOTH",
"515 431 OFFCURVE",
"428 532 OFFCURVE",
"282 532 CURVE SMOOTH"
);
},
{
closed = 1;
nodes = (
"98 404 OFFCURVE",
"166 490 OFFCURVE",
"282 490 CURVE SMOOTH",
"398 490 OFFCURVE",
"467 404 OFFCURVE",
"467 259 CURVE SMOOTH",
"467 114 OFFCURVE",
"398 29 OFFCURVE",
"282 29 CURVE SMOOTH",
"166 29 OFFCURVE",
"98 114 OFFCURVE",
"98 259 CURVE SMOOTH"
);
}
);
width = 565;
},
{
anchors = (
{
name = Bottom;
position = "{320, 0}";
},
{
name = Top;
position = "{320, 532}";
}
);
layerId = m002;
paths = (
{
closed = 1;
nodes = (
"138 532 OFFCURVE",
"30 431 OFFCURVE",
"30 259 CURVE SMOOTH",
"30 88 OFFCURVE",
"138 -13 OFFCURVE",
"320 -13 CURVE SMOOTH",
"503 -13 OFFCURVE",
"611 88 OFFCURVE",
"611 259 CURVE SMOOTH",
"611 431 OFFCURVE",
"503 532 OFFCURVE",
"320 532 CURVE SMOOTH"
);
},
{
closed = 1;
nodes = (
"238 335 OFFCURVE",
"268 380 OFFCURVE",
"320 380 CURVE SMOOTH",
"372 380 OFFCURVE",
"403 335 OFFCURVE",
"403 259 CURVE SMOOTH",
"403 184 OFFCURVE",
"372 139 OFFCURVE",
"320 139 CURVE SMOOTH",
"268 139 OFFCURVE",
"238 184 OFFCURVE",
"238 259 CURVE SMOOTH"
);
}
);
width = 641;
}
);
leftKerningGroup = o;
rightKerningGroup = o;
unicode = 006F;
},
{
color = 10;
glyphname = oopen;
lastChange = "2025-09-10 22:23:34 +0000";
layers = (
{
layerId = "FD4D3FDD-DE85-408F-A52A-FF600B1C6101";
paths = (
{
closed = 1;
nodes = (
"50 437 LINE",
"84 469 OFFCURVE",
"143 490 OFFCURVE",
"198 490 CURVE SMOOTH",
"302 490 OFFCURVE",
"371 398 OFFCURVE",
"371 260 CURVE SMOOTH",
"371 121 OFFCURVE",
"300 29 OFFCURVE",
"194 29 CURVE SMOOTH",
"141 29 OFFCURVE",
"83 50 OFFCURVE",
"50 81 CURVE",
"50 33 LINE",
"81 5 OFFCURVE",
"138 -13 OFFCURVE",
"194 -13 CURVE SMOOTH",
"329 -13 OFFCURVE",
"419 96 OFFCURVE",
"419 260 CURVE SMOOTH",
"419 423 OFFCURVE",
"331 532 OFFCURVE",
"198 532 CURVE SMOOTH",
"143 532 OFFCURVE",
"84 514 OFFCURVE",
"50 488 CURVE"
);
}
);
width = 469;
},
{
layerId = m002;
paths = (
{
closed = 1;
nodes = (
"30 342 LINE",
"50 360 OFFCURVE",
"85 370 OFFCURVE",
"126 370 CURVE SMOOTH",
"198 370 OFFCURVE",
"240 329 OFFCURVE",
"240 260 CURVE SMOOTH",
"240 190 OFFCURVE",
"198 149 OFFCURVE",
"128 149 CURVE SMOOTH",
"87 149 OFFCURVE",
"51 156 OFFCURVE",
"30 167 CURVE",
"30 2 LINE",
"68 -7 OFFCURVE",
"112 -13 OFFCURVE",
"148 -13 CURVE SMOOTH",
"337 -13 OFFCURVE",
"448 88 OFFCURVE",
"448 260 CURVE SMOOTH",
"448 431 OFFCURVE",
"334 532 OFFCURVE",
"141 532 CURVE SMOOTH",
"112 532 OFFCURVE",
"71 526 OFFCURVE",
"30 515 CURVE"
);
}
);
width = 478;
}
);
leftKerningGroup = o;
leftMetricsKey = o;
rightKerningGroup = o;
rightMetricsKey = o;
unicode = 0254;
},
{
color = 10;
glyphname = oslash;
lastChange = "2025-09-10 22:24:50 +0000";
layers = (
{
anchors = (
{
name = Top;
position = "{282, 532}";
}
);
layerId = "FD4D3FDD-DE85-408F-A52A-FF600B1C6101";
paths = (
{
closed = 1;
nodes = (
"143 532 OFFCURVE",
"50 423 OFFCURVE",
"50 259 CURVE SMOOTH",
"50 146 OFFCURVE",
"95 58 OFFCURVE",
"169 16 CURVE",
"145 -50 LINE",
"198 -50 LINE",
"215 -4 LINE",
"236 -10 OFFCURVE",
"258 -13 OFFCURVE",
"282 -13 CURVE SMOOTH",
"422 -13 OFFCURVE",
"515 96 OFFCURVE",
"515 259 CURVE SMOOTH",
"515 371 OFFCURVE",
"471 458 OFFCURVE",
"399 501 CURVE",
"420 558 LINE",
"367 558 LINE",
"354 521 LINE",
"332 528 OFFCURVE",
"308 532 OFFCURVE",
"282 532 CURVE SMOOTH"
);
},
{
closed = 1;
nodes = (
"98 398 OFFCURVE",
"172 490 OFFCURVE",
"282 490 CURVE SMOOTH",
"302 490 OFFCURVE",
"321 487 OFFCURVE",
"339 481 CURVE",
"185 59 LINE",
"131 96 OFFCURVE",
"98 167 OFFCURVE",
"98 259 CURVE SMOOTH"
);
},
{
closed = 1;
nodes = (
"383 458 LINE",
"436 420 OFFCURVE",
"467 349 OFFCURVE",
"467 259 CURVE SMOOTH",
"467 121 OFFCURVE",
"393 29 OFFCURVE",
"282 29 CURVE SMOOTH",
"263 29 OFFCURVE",
"246 32 OFFCURVE",
"230 37 CURVE"
);
}
);
width = 565;
},
{
anchors = (
{
name = Top;
position = "{310, 532}";
}
);
layerId = m002;
paths = (
{
closed = 1;
nodes = (
"142 532 OFFCURVE",
"30 423 OFFCURVE",
"30 259 CURVE SMOOTH",
"30 143 OFFCURVE",
"86 55 OFFCURVE",
"179 13 CURVE",
"156 -50 LINE",
"243 -50 LINE",
"258 -9 LINE",
"275 -12 OFFCURVE",
"292 -13 OFFCURVE",
"310 -13 CURVE SMOOTH",
"479 -13 OFFCURVE",
"591 96 OFFCURVE",
"591 259 CURVE SMOOTH",
"591 374 OFFCURVE",
"536 462 OFFCURVE",
"445 504 CURVE",
"465 558 LINE",
"378 558 LINE",
"367 528 LINE",
"349 531 OFFCURVE",
"330 532 OFFCURVE",
"310 532 CURVE SMOOTH"
);
},
{
closed = 1;
nodes = (
"198 332 OFFCURVE",
"242 380 OFFCURVE",
"309 380 CURVE",
"310 380 OFFCURVE",
"312 380 OFFCURVE",
"313 380 CURVE",
"235 166 LINE",
"212 187 OFFCURVE",
"198 219 OFFCURVE",
"198 259 CURVE SMOOTH"
);
},
{
closed = 1;
nodes = (
"389 350 LINE",
"411 329 OFFCURVE",
"423 297 OFFCURVE",
"423 259 CURVE SMOOTH",
"423 189 OFFCURVE",
"381 141 OFFCURVE",
"315 139 CURVE",
"314 139 OFFCURVE",
"313 139 OFFCURVE",
"312 139 CURVE"
);
}
);
width = 621;
}
);
leftKerningGroup = o;
leftMetricsKey = o;
rightKerningGroup = o;
rightMetricsKey = o;
unicode = 00F8;
},
{
color = 10;
glyphname = oe;
lastChange = "2025-09-10 22:24:53 +0000";
layers = (
{
layerId = "FD4D3FDD-DE85-408F-A52A-FF600B1C6101";
paths = (
{
closed = 1;
nodes = (
"143 532 OFFCURVE",
"50 423 OFFCURVE",
"50 259 CURVE SMOOTH",
"50 96 OFFCURVE",
"143 -13 OFFCURVE",
"282 -13 CURVE SMOOTH",
"379 -13 OFFCURVE",
"454 39 OFFCURVE",
"490 126 CURVE",
"525 39 OFFCURVE",
"597 -13 OFFCURVE",
"692 -13 CURVE SMOOTH",
"797 -13 OFFCURVE",
"880 56 OFFCURVE",
"899 159 CURVE",
"851 159 LINE",
"835 81 OFFCURVE",
"772 29 OFFCURVE",
"693 29 CURVE SMOOTH",
"586 29 OFFCURVE",
"515 119 OFFCURVE",
"515 254 CURVE SMOOTH",
"904 255 LINE",
"904 437 OFFCURVE",
"816 532 OFFCURVE",
"685 532 CURVE SMOOTH",
"595 532 OFFCURVE",
"525 479 OFFCURVE",
"491 391 CURVE",
"454 479 OFFCURVE",
"380 532 OFFCURVE",
"282 532 CURVE SMOOTH"
);
},
{
closed = 1;
nodes = (
"98 398 OFFCURVE",
"172 490 OFFCURVE",
"282 490 CURVE SMOOTH",
"393 490 OFFCURVE",
"467 398 OFFCURVE",
"467 259 CURVE SMOOTH",
"467 121 OFFCURVE",
"393 29 OFFCURVE",
"282 29 CURVE SMOOTH",
"172 29 OFFCURVE",
"98 121 OFFCURVE",
"98 259 CURVE SMOOTH"
);
},
{
closed = 1;
nodes = (
"529 414 OFFCURVE",
"593 490 OFFCURVE",
"686 490 CURVE SMOOTH",
"788 490 OFFCURVE",
"856 412 OFFCURVE",
"856 295 CURVE",
"517 295 LINE"
);
}
);
width = 954;
},
{
layerId = m002;
paths = (
{
closed = 1;
nodes = (
"142 532 OFFCURVE",
"30 423 OFFCURVE",
"30 259 CURVE SMOOTH",
"30 96 OFFCURVE",
"142 -13 OFFCURVE",
"310 -13 CURVE SMOOTH",
"410 -13 OFFCURVE",
"490 25 OFFCURVE",
"538 89 CURVE",
"586 23 OFFCURVE",
"666 -13 OFFCURVE",
"773 -13 CURVE SMOOTH",
"927 -13 OFFCURVE",
"1033 57 OFFCURVE",
"1057 175 CURVE",
"859 175 LINE",
"851 143 OFFCURVE",
"821 124 OFFCURVE",
"777 124 CURVE SMOOTH",
"732 124 OFFCURVE",
"702 157 OFFCURVE",
"692 214 CURVE",
"1052 214 LINE",
"1052 424 OFFCURVE",
"952 532 OFFCURVE",
"782 532 CURVE SMOOTH",
"671 532 OFFCURVE",
"588 495 OFFCURVE",
"539 428 CURVE",
"490 494 OFFCURVE",
"410 532 OFFCURVE",
"310 532 CURVE SMOOTH"
);
},
{
closed = 1;
nodes = (
"198 332 OFFCURVE",
"243 380 OFFCURVE",
"310 380 CURVE SMOOTH",
"378 380 OFFCURVE",
"423 332 OFFCURVE",
"423 259 CURVE SMOOTH",
"423 187 OFFCURVE",
"378 139 OFFCURVE",
"310 139 CURVE SMOOTH",
"243 139 OFFCURVE",
"198 187 OFFCURVE",
"198 259 CURVE SMOOTH"
);
},
{
closed = 1;
nodes = (
"710 369 OFFCURVE",
"739 395 OFFCURVE",
"779 395 CURVE SMOOTH",
"818 395 OFFCURVE",
"843 369 OFFCURVE",
"851 324 CURVE",
"696 324 LINE"
);
}
);
width = 1087;
}
);
leftKerningGroup = o;
leftMetricsKey = o;
rightKerningGroup = o;
rightMetricsKey = e;
unicode = 0153;
},
{
glyphname = p;
lastChange = "2025-08-28 14:58:12 +0000";
layers = (
{
anchors = (
{
name = Top;
position = "{273, 532}";
}
);
layerId = "FD4D3FDD-DE85-408F-A52A-FF600B1C6101";
paths = (
{
closed = 1;
nodes = (
"198 533 OFFCURVE",
"137 499 OFFCURVE",
"110 442 CURVE",
"108 442 LINE",
"123 520 LINE",
"60 520 LINE",
"60 -216 LINE",
"108 -216 LINE",
"108 0 LINE",
"103 93 LINE",
"105 93 LINE",
"135 27 OFFCURVE",
"203 -12 OFFCURVE",
"288 -12 CURVE SMOOTH",
"420 -12 OFFCURVE",
"498 89 OFFCURVE",
"498 259 CURVE SMOOTH",
"498 431 OFFCURVE",
"414 533 OFFCURVE",
"273 533 CURVE SMOOTH"
);
},
{
closed = 1;
nodes = (
"108 405 OFFCURVE",
"169 491 OFFCURVE",
"273 491 CURVE SMOOTH",
"384 491 OFFCURVE",
"450 405 OFFCURVE",
"450 259 CURVE SMOOTH",
"450 115 OFFCURVE",
"388 30 OFFCURVE",
"282 30 CURVE SMOOTH",
"173 30 OFFCURVE",
"108 115 OFFCURVE",
"108 259 CURVE SMOOTH"
);
}
);
width = 548;
},
{
anchors = (
{
name = Top;
position = "{353, 532}";
}
);
layerId = m002;
paths = (
{
closed = 1;
nodes = (
"309 533 OFFCURVE",
"262 514 OFFCURVE",
"240 483 CURVE",
"236 483 LINE",
"258 520 LINE",
"50 520 LINE",
"50 -216 LINE",
"248 -216 LINE",
"248 -29 LINE",
"243 23 LINE",
"245 23 LINE",
"273 1 OFFCURVE",
"317 -12 OFFCURVE",
"363 -12 CURVE SMOOTH",
"530 -12 OFFCURVE",
"628 89 OFFCURVE",
"628 259 CURVE SMOOTH",
"628 431 OFFCURVE",
"531 533 OFFCURVE",
"367 533 CURVE SMOOTH"
);
},
{
closed = 1;
nodes = (
"248 347 OFFCURVE",
"280 399 OFFCURVE",
"334 399 CURVE SMOOTH",
"388 399 OFFCURVE",
"420 347 OFFCURVE",
"420 259 CURVE SMOOTH",
"420 172 OFFCURVE",
"388 120 OFFCURVE",
"334 120 CURVE SMOOTH",
"280 120 OFFCURVE",
"248 172 OFFCURVE",
"248 259 CURVE SMOOTH"
);
}
);
width = 658;
}
);
leftKerningGroup = n;
leftMetricsKey = n;
rightKerningGroup = o;
rightMetricsKey = o;
unicode = 0070;
},
{
color = 10;
glyphname = thorn;
lastChange = "2025-09-10 22:24:55 +0000";
layers = (
{
layerId = "FD4D3FDD-DE85-408F-A52A-FF600B1C6101";
paths = (
{
closed = 1;
nodes = (
"197 533 OFFCURVE",
"135 495 OFFCURVE",
"105 432 CURVE",
"103 432 LINE",
"108 520 LINE",
"108 736 LINE",
"60 736 LINE",
"60 -216 LINE",
"108 -216 LINE",
"108 0 LINE",
"103 93 LINE",
"105 93 LINE",
"135 27 OFFCURVE",
"203 -12 OFFCURVE",
"288 -12 CURVE SMOOTH",
"420 -12 OFFCURVE",
"498 89 OFFCURVE",
"498 259 CURVE SMOOTH",
"498 431 OFFCURVE",
"414 533 OFFCURVE",
"273 533 CURVE SMOOTH"
);
},
{
closed = 1;
nodes = (
"108 405 OFFCURVE",
"169 491 OFFCURVE",
"273 491 CURVE SMOOTH",
"384 491 OFFCURVE",
"450 405 OFFCURVE",
"450 259 CURVE SMOOTH",
"450 115 OFFCURVE",
"388 30 OFFCURVE",
"282 30 CURVE SMOOTH",
"173 30 OFFCURVE",
"108 115 OFFCURVE",
"108 259 CURVE SMOOTH"
);
}
);
width = 548;
},
{
layerId = m002;
paths = (
{
closed = 1;
nodes = (
"309 533 OFFCURVE",
"262 514 OFFCURVE",
"240 483 CURVE",
"236 483 LINE",
"258 520 LINE",
"258 736 LINE",
"50 736 LINE",
"50 -216 LINE",
"248 -216 LINE",
"248 -29 LINE",
"243 23 LINE",
"245 23 LINE",
"273 1 OFFCURVE",
"317 -12 OFFCURVE",
"363 -12 CURVE SMOOTH",
"530 -12 OFFCURVE",
"628 89 OFFCURVE",
"628 259 CURVE SMOOTH",
"628 431 OFFCURVE",
"531 533 OFFCURVE",
"367 533 CURVE SMOOTH"
);
},
{
closed = 1;
nodes = (
"248 347 OFFCURVE",
"280 399 OFFCURVE",
"334 399 CURVE SMOOTH",
"388 399 OFFCURVE",
"420 347 OFFCURVE",
"420 259 CURVE SMOOTH",
"420 172 OFFCURVE",
"388 120 OFFCURVE",
"334 120 CURVE SMOOTH",
"280 120 OFFCURVE",
"248 172 OFFCURVE",
"248 259 CURVE SMOOTH"
);
}
);
width = 658;
}
);
leftKerningGroup = n;
leftMetricsKey = p;
rightKerningGroup = o;
rightMetricsKey = p;
unicode = 00FE;
},
{
glyphname = q;
lastChange = "2025-08-28 14:58:13 +0000";
layers = (
{
anchors = (
{
name = Top;
position = "{267, 532}";
}
);
layerId = "FD4D3FDD-DE85-408F-A52A-FF600B1C6101";
paths = (
{
closed = 1;
nodes = (
"134 533 OFFCURVE",
"50 431 OFFCURVE",
"50 259 CURVE SMOOTH",
"50 89 OFFCURVE",
"128 -12 OFFCURVE",
"260 -12 CURVE SMOOTH",
"345 -12 OFFCURVE",
"413 27 OFFCURVE",
"443 93 CURVE",
"445 93 LINE",
"440 0 LINE",
"440 -216 LINE",
"488 -216 LINE",
"488 520 LINE",
"430 520 LINE",
"440 442 LINE",
"438 442 LINE",
"411 499 OFFCURVE",
"350 533 OFFCURVE",
"275 533 CURVE SMOOTH"
);
},
{
closed = 1;
nodes = (
"98 405 OFFCURVE",
"164 491 OFFCURVE",
"275 491 CURVE SMOOTH",
"379 491 OFFCURVE",
"440 405 OFFCURVE",
"440 259 CURVE SMOOTH",
"440 115 OFFCURVE",
"375 30 OFFCURVE",
"266 30 CURVE SMOOTH",
"160 30 OFFCURVE",
"98 115 OFFCURVE",
"98 259 CURVE SMOOTH"
);
}
);
width = 548;
},
{
anchors = (
{
name = Top;
position = "{315, 532}";
}
);
layerId = m002;
paths = (
{
closed = 1;
nodes = (
"127 533 OFFCURVE",
"30 431 OFFCURVE",
"30 259 CURVE SMOOTH",
"30 89 OFFCURVE",
"128 -12 OFFCURVE",
"295 -12 CURVE SMOOTH",
"341 -12 OFFCURVE",
"385 1 OFFCURVE",
"413 23 CURVE",
"415 23 LINE",
"410 -29 LINE",
"410 -216 LINE",
"608 -216 LINE",
"608 520 LINE",
"400 520 LINE",
"422 483 LINE",
"418 483 LINE",
"396 514 OFFCURVE",
"349 533 OFFCURVE",
"291 533 CURVE SMOOTH"
);
},
{
closed = 1;
nodes = (
"238 347 OFFCURVE",
"270 399 OFFCURVE",
"324 399 CURVE SMOOTH",
"378 399 OFFCURVE",
"410 347 OFFCURVE",
"410 259 CURVE SMOOTH",
"410 172 OFFCURVE",
"378 120 OFFCURVE",
"324 120 CURVE SMOOTH",
"270 120 OFFCURVE",
"238 172 OFFCURVE",
"238 259 CURVE SMOOTH"
);
}
);
width = 658;
}
);
leftKerningGroup = o;
leftMetricsKey = o;
rightKerningGroup = n;
rightMetricsKey = n;
unicode = 0071;
},
{
glyphname = r;
lastChange = "2025-09-11 03:23:08 +0000";
layers = (
{
anchors = (
{
name = Bottom;
position = "{84, 0}";
},
{
name = Top;
position = "{198, 532}";
}
);
layerId = "FD4D3FDD-DE85-408F-A52A-FF600B1C6101";
paths = (
{
closed = 1;
nodes = (
"108 280 LINE SMOOTH",
"108 412 OFFCURVE",
"166 490 OFFCURVE",
"265 490 CURVE SMOOTH",
"287 490 OFFCURVE",
"312 486 OFFCURVE",
"332 478 CURVE",
"339 521 LINE",
"320 528 OFFCURVE",
"293 532 OFFCURVE",
"267 532 CURVE SMOOTH",
"197 532 OFFCURVE",
"139 499 OFFCURVE",
"110 442 CURVE",
"108 442 LINE",
"118 520 LINE",
"60 520 LINE",
"60 0 LINE",
"108 0 LINE"
);
}
);
width = 379;
},
{
anchors = (
{
name = Bottom;
position = "{164, 0}";
},
{
name = Top;
position = "{268, 532}";
}
);
layerId = m002;
paths = (
{
closed = 1;
nodes = (
"248 237 LINE SMOOTH",
"248 321 OFFCURVE",
"292 371 OFFCURVE",
"366 371 CURVE SMOOTH",
"388 371 OFFCURVE",
"413 366 OFFCURVE",
"433 358 CURVE",
"459 521 LINE",
"436 529 OFFCURVE",
"402 533 OFFCURVE",
"366 533 CURVE SMOOTH",
"310 533 OFFCURVE",
"263 513 OFFCURVE",
"240 480 CURVE",
"236 480 LINE",
"258 520 LINE",
"50 520 LINE",
"50 0 LINE",
"248 0 LINE"
);
}
);
width = 489;
}
);
leftKerningGroup = n;
leftMetricsKey = n;
rightKerningGroup = r;
rightMetricsKey = k;
unicode = 0072;
},
{
glyphname = s;
lastChange = "2025-09-11 02:42:08 +0000";
layers = (
{
anchors = (
{
name = Bottom;
position = "{239, 0}";
},
{
name = Top;
position = "{236, 532}";
}
);
layerId = "FD4D3FDD-DE85-408F-A52A-FF600B1C6101";
paths = (
{
closed = 1;
nodes = (
"124 532 OFFCURVE",
"58 478 OFFCURVE",
"58 386 CURVE SMOOTH",
"58 194 OFFCURVE",
"374 282 OFFCURVE",
"374 136 CURVE SMOOTH",
"374 69 OFFCURVE",
"326 29 OFFCURVE",
"245 29 CURVE SMOOTH",
"146 29 OFFCURVE",
"88 80 OFFCURVE",
"88 167 CURVE",
"40 167 LINE",
"40 54 OFFCURVE",
"115 -13 OFFCURVE",
"242 -13 CURVE SMOOTH",
"355 -13 OFFCURVE",
"422 44 OFFCURVE",
"422 140 CURVE SMOOTH",
"422 326 OFFCURVE",
"106 247 OFFCURVE",
"106 389 CURVE SMOOTH",
"106 452 OFFCURVE",
"151 490 OFFCURVE",
"227 490 CURVE SMOOTH",
"311 490 OFFCURVE",
"361 445 OFFCURVE",
"361 369 CURVE",
"409 369 LINE",
"409 471 OFFCURVE",
"345 532 OFFCURVE",
"236 532 CURVE SMOOTH"
);
}
);
width = 462;
},
{
anchors = (
{
name = Bottom;
position = "{288, 0}";
},
{
name = Top;
position = "{285, 532}";
}
);
layerId = m002;
paths = (
{
closed = 1;
nodes = (
"135 532 OFFCURVE",
"47 468 OFFCURVE",
"47 360 CURVE SMOOTH",
"47 153 OFFCURVE",
"343 227 OFFCURVE",
"343 165 CURVE SMOOTH",
"343 146 OFFCURVE",
"323 134 OFFCURVE",
"289 134 CURVE SMOOTH",
"251 134 OFFCURVE",
"228 152 OFFCURVE",
"228 182 CURVE",
"30 182 LINE",
"30 59 OFFCURVE",
"127 -13 OFFCURVE",
"291 -13 CURVE SMOOTH",
"448 -13 OFFCURVE",
"541 52 OFFCURVE",
"541 161 CURVE SMOOTH",
"541 355 OFFCURVE",
"245 295 OFFCURVE",
"245 353 CURVE SMOOTH",
"245 373 OFFCURVE",
"262 385 OFFCURVE",
"291 385 CURVE SMOOTH",
"321 385 OFFCURVE",
"339 370 OFFCURVE",
"339 344 CURVE",
"537 344 LINE",
"537 462 OFFCURVE",
"443 532 OFFCURVE",
"285 532 CURVE SMOOTH"
);
}
);
width = 571;
}
);
leftKerningGroup = s;
rightKerningGroup = s;
unicode = 0073;
},
{
color = 10;
glyphname = saltillo;
lastChange = "2025-09-10 22:24:58 +0000";
layers = (
{
layerId = "FD4D3FDD-DE85-408F-A52A-FF600B1C6101";
paths = (
{
closed = 1;
nodes = (
"60 520 LINE",
"65 409 LINE",
"95 409 LINE",
"100 520 LINE",
"100 730 LINE",
"60 730 LINE"
);
}
);
width = 160;
},
{
layerId = m002;
paths = (
{
closed = 1;
nodes = (
"50 520 LINE",
"55 409 LINE",
"195 409 LINE",
"200 520 LINE",
"200 730 LINE",
"50 730 LINE"
);
}
);
width = 250;
}
);
leftKerningGroup = n;
leftMetricsKey = n;
rightKerningGroup = n;
rightMetricsKey = n;
unicode = A78C;
},
{
color = 10;
glyphname = germandbls;
lastChange = "2025-09-10 22:25:01 +0000";
layers = (
{
layerId = "FD4D3FDD-DE85-408F-A52A-FF600B1C6101";
paths = (
{
closed = 1;
nodes = (
"286 -4 OFFCURVE",
"327 -13 OFFCURVE",
"364 -13 CURVE SMOOTH",
"457 -13 OFFCURVE",
"519 39 OFFCURVE",
"519 117 CURVE SMOOTH",
"519 271 OFFCURVE",
"283 259 OFFCURVE",
"283 377 CURVE SMOOTH",
"283 433 OFFCURVE",
"339 473 OFFCURVE",
"424 478 CURVE",
"455 520 LINE",
"344 673 LINE SMOOTH",
"312 720 OFFCURVE",
"279 736 OFFCURVE",
"215 736 CURVE SMOOTH",
"122 736 OFFCURVE",
"60 670 OFFCURVE",
"60 571 CURVE SMOOTH",
"60 0 LINE",
"108 0 LINE",
"108 583 LINE SMOOTH",
"108 650 OFFCURVE",
"150 695 OFFCURVE",
"213 695 CURVE SMOOTH",
"255 695 OFFCURVE",
"278 683 OFFCURVE",
"303 649 CURVE SMOOTH",
"396 518 LINE",
"298 507 OFFCURVE",
"235 452 OFFCURVE",
"235 374 CURVE SMOOTH",
"235 212 OFFCURVE",
"471 231 OFFCURVE",
"471 113 CURVE SMOOTH",
"471 63 OFFCURVE",
"429 29 OFFCURVE",
"365 29 CURVE SMOOTH",
"335 29 OFFCURVE",
"294 38 OFFCURVE",
"261 52 CURVE",
"261 10 LINE"
);
}
);
width = 569;
},
{
layerId = m002;
paths = (
{
closed = 1;
nodes = (
"337 -4 OFFCURVE",
"383 -13 OFFCURVE",
"434 -13 CURVE SMOOTH",
"563 -13 OFFCURVE",
"639 47 OFFCURVE",
"639 143 CURVE SMOOTH",
"639 284 OFFCURVE",
"483 298 OFFCURVE",
"483 345 CURVE SMOOTH",
"483 366 OFFCURVE",
"511 373 OFFCURVE",
"524 358 CURVE",
"658 503 LINE",
"529 649 LINE SMOOTH",
"481 704 OFFCURVE",
"396 736 OFFCURVE",
"299 736 CURVE SMOOTH",
"142 736 OFFCURVE",
"50 652 OFFCURVE",
"50 511 CURVE SMOOTH",
"50 0 LINE",
"248 0 LINE",
"248 503 LINE SMOOTH",
"248 548 OFFCURVE",
"270 575 OFFCURVE",
"306 575 CURVE SMOOTH",
"330 575 OFFCURVE",
"350 570 OFFCURVE",
"383 529 CURVE SMOOTH",
"403 505 LINE",
"322 482 OFFCURVE",
"285 431 OFFCURVE",
"285 363 CURVE SMOOTH",
"285 226 OFFCURVE",
"441 209 OFFCURVE",
"441 169 CURVE SMOOTH",
"441 155 OFFCURVE",
"428 149 OFFCURVE",
"405 149 CURVE SMOOTH",
"380 149 OFFCURVE",
"345 158 OFFCURVE",
"311 172 CURVE",
"311 10 LINE"
);
}
);
width = 688;
}
);
leftKerningGroup = n;
leftMetricsKey = n;
rightKerningGroup = germandbls;
rightMetricsKey = o;
unicode = 00DF;
},
{
glyphname = t;
lastChange = "2025-09-11 02:42:12 +0000";
layers = (
{
anchors = (
{
name = Bottom;
position = "{253, 0}";
},
{
name = Top;
position = "{283, 532}";
},
{
name = Top_EC;
position = "{234, 532}";
}
);
hints = (
{
place = "{149, 0}";
type = Stem;
}
);
layerId = "FD4D3FDD-DE85-408F-A52A-FF600B1C6101";
paths = (
{
closed = 1;
nodes = (
"133 30 OFFCURVE",
"174 -13 OFFCURVE",
"277 -13 CURVE SMOOTH",
"300 -13 OFFCURVE",
"315 -10 OFFCURVE",
"332 -3 CURVE",
"332 39 LINE",
"320 31 OFFCURVE",
"304 28 OFFCURVE",
"276 28 CURVE SMOOTH",
"208 28 OFFCURVE",
"181 60 OFFCURVE",
"181 139 CURVE SMOOTH",
"181 478 LINE",
"315 478 LINE",
"315 520 LINE",
"181 520 LINE",
"181 629 LINE",
"133 629 LINE",
"133 518 LINE",
"40 523 LINE",
"40 478 LINE",
"133 478 LINE",
"133 139 LINE SMOOTH"
);
}
);
width = 372;
},
{
anchors = (
{
name = Bottom;
position = "{315, 0}";
},
{
name = Top;
position = "{395, 520}";
},
{
name = Top_EC;
position = "{386, 520}";
}
);
hints = (
{
place = "{149, 0}";
type = Stem;
}
);
layerId = m002;
paths = (
{
closed = 1;
nodes = (
"103 55 OFFCURVE",
"190 -13 OFFCURVE",
"336 -13 CURVE SMOOTH",
"373 -13 OFFCURVE",
"406 -8 OFFCURVE",
"424 0 CURVE",
"424 160 LINE",
"401 151 OFFCURVE",
"371 146 OFFCURVE",
"345 146 CURVE SMOOTH",
"317 146 OFFCURVE",
"301 163 OFFCURVE",
"301 191 CURVE SMOOTH",
"301 370 LINE",
"405 370 LINE",
"405 520 LINE",
"301 520 LINE",
"301 629 LINE",
"103 629 LINE",
"103 518 LINE",
"30 523 LINE",
"30 370 LINE",
"103 370 LINE",
"103 171 LINE SMOOTH"
);
}
);
width = 454;
}
);
leftKerningGroup = t;
rightKerningGroup = t;
unicode = 0074;
},
{
color = 10;
glyphname = tbar;
lastChange = "2025-09-10 22:25:03 +0000";
layers = (
{
layerId = "FD4D3FDD-DE85-408F-A52A-FF600B1C6101";
paths = (
{
closed = 1;
nodes = (
"133 30 OFFCURVE",
"174 -13 OFFCURVE",
"277 -13 CURVE SMOOTH",
"300 -13 OFFCURVE",
"315 -10 OFFCURVE",
"332 -3 CURVE",
"332 39 LINE",
"320 31 OFFCURVE",
"304 28 OFFCURVE",
"276 28 CURVE SMOOTH",
"208 28 OFFCURVE",
"181 60 OFFCURVE",
"181 139 CURVE SMOOTH",
"181 328 LINE",
"315 328 LINE",
"315 370 LINE",
"181 370 LINE",
"181 478 LINE",
"315 478 LINE",
"315 520 LINE",
"181 520 LINE",
"181 629 LINE",
"133 629 LINE",
"133 518 LINE",
"40 523 LINE",
"40 478 LINE",
"133 478 LINE",
"133 368 LINE",
"40 373 LINE",
"40 328 LINE",
"133 328 LINE",
"133 139 LINE SMOOTH"
);
}
);
width = 372;
},
{
layerId = m002;
paths = (
{
closed = 1;
nodes = (
"103 55 OFFCURVE",
"190 -13 OFFCURVE",
"336 -13 CURVE SMOOTH",
"373 -13 OFFCURVE",
"406 -8 OFFCURVE",
"424 0 CURVE",
"424 160 LINE",
"401 151 OFFCURVE",
"371 146 OFFCURVE",
"345 146 CURVE SMOOTH",
"317 146 OFFCURVE",
"301 163 OFFCURVE",
"301 191 CURVE SMOOTH",
"301 230 LINE",
"405 230 LINE",
"405 330 LINE",
"301 330 LINE",
"301 370 LINE",
"405 370 LINE",
"405 520 LINE",
"301 520 LINE",
"301 629 LINE",
"103 629 LINE",
"103 518 LINE",
"30 523 LINE",
"30 370 LINE",
"103 370 LINE",
"103 328 LINE",
"30 333 LINE",
"30 230 LINE",
"103 230 LINE",
"103 171 LINE SMOOTH"
);
}
);
width = 454;
}
);
leftKerningGroup = t;
leftMetricsKey = t;
rightKerningGroup = t;
rightMetricsKey = t;
unicode = 0167;
},
{
color = 10;
glyphname = tdiagonalstroke;
lastChange = "2025-09-10 22:25:10 +0000";
layers = (
{
layerId = "FD4D3FDD-DE85-408F-A52A-FF600B1C6101";
paths = (
{
closed = 1;
nodes = (
"133 131 OFFCURVE",
"133 123 OFFCURVE",
"134 116 CURVE",
"73 -50 LINE",
"114 -50 LINE",
"149 47 LINE",
"170 5 OFFCURVE",
"211 -13 OFFCURVE",
"277 -13 CURVE SMOOTH",
"300 -13 OFFCURVE",
"315 -10 OFFCURVE",
"332 -3 CURVE",
"332 39 LINE",
"320 31 OFFCURVE",
"304 28 OFFCURVE",
"276 28 CURVE SMOOTH",
"210 28 OFFCURVE",
"182 59 OFFCURVE",
"181 134 CURVE",
"307 478 LINE",
"315 478 LINE",
"315 500 LINE",
"336 558 LINE",
"295 558 LINE",
"281 520 LINE",
"181 520 LINE",
"181 629 LINE",
"133 629 LINE",
"133 518 LINE",
"40 523 LINE",
"40 478 LINE",
"133 478 LINE",
"133 139 LINE SMOOTH"
);
},
{
closed = 1;
nodes = (
"181 478 LINE",
"266 478 LINE",
"181 246 LINE"
);
}
);
width = 376;
},
{
layerId = m002;
paths = (
{
closed = 1;
nodes = (
"103 96 OFFCURVE",
"139 41 OFFCURVE",
"204 12 CURVE",
"182 -50 LINE",
"233 -50 LINE",
"250 -4 LINE",
"276 -10 OFFCURVE",
"304 -13 OFFCURVE",
"336 -13 CURVE SMOOTH",
"373 -13 OFFCURVE",
"406 -8 OFFCURVE",
"424 0 CURVE",
"424 160 LINE",
"401 151 OFFCURVE",
"371 146 OFFCURVE",
"345 146 CURVE SMOOTH",
"329 146 OFFCURVE",
"317 151 OFFCURVE",
"310 161 CURVE",
"386 370 LINE",
"405 370 LINE",
"405 421 LINE",
"455 558 LINE",
"404 558 LINE",
"390 520 LINE",
"301 520 LINE",
"301 629 LINE",
"103 629 LINE",
"103 518 LINE",
"30 523 LINE",
"30 370 LINE",
"103 370 LINE",
"103 171 LINE SMOOTH"
);
},
{
closed = 1;
nodes = (
"301 370 LINE",
"335 370 LINE",
"301 276 LINE"
);
}
);
width = 485;
}
);
leftKerningGroup = t;
leftMetricsKey = t;
rightKerningGroup = t;
rightMetricsKey = t;
unicode = 2C66;
},
{
glyphname = u;
lastChange = "2025-09-11 02:42:16 +0000";
layers = (
{
anchors = (
{
name = Bottom;
position = "{255, 0}";
},
{
name = Top;
position = "{254, 520}";
}
);
layerId = "FD4D3FDD-DE85-408F-A52A-FF600B1C6101";
paths = (
{
closed = 1;
nodes = (
"309 -13 OFFCURVE",
"371 23 OFFCURVE",
"397 78 CURVE",
"399 78 LINE",
"389 0 LINE",
"447 0 LINE",
"447 520 LINE",
"399 520 LINE",
"399 207 LINE SMOOTH",
"399 95 OFFCURVE",
"341 29 OFFCURVE",
"243 29 CURVE SMOOTH",
"162 29 OFFCURVE",
"108 81 OFFCURVE",
"108 159 CURVE SMOOTH",
"108 520 LINE",
"60 520 LINE",
"60 147 LINE SMOOTH",
"60 51 OFFCURVE",
"136 -13 OFFCURVE",
"243 -13 CURVE SMOOTH"
);
}
);
width = 507;
},
{
anchors = (
{
name = Bottom;
position = "{310, 0}";
},
{
name = Top;
position = "{319, 520}";
}
);
layerId = m002;
paths = (
{
closed = 1;
nodes = (
"326 -13 OFFCURVE",
"378 8 OFFCURVE",
"404 43 CURVE",
"408 43 LINE",
"391 0 LINE",
"589 0 LINE",
"589 520 LINE",
"391 520 LINE",
"391 222 LINE SMOOTH",
"391 177 OFFCURVE",
"364 149 OFFCURVE",
"319 149 CURVE SMOOTH",
"274 149 OFFCURVE",
"248 177 OFFCURVE",
"248 222 CURVE SMOOTH",
"248 520 LINE",
"50 520 LINE",
"50 170 LINE SMOOTH",
"50 56 OFFCURVE",
"129 -13 OFFCURVE",
"264 -13 CURVE SMOOTH"
);
}
);
width = 639;
}
);
leftKerningGroup = u;
leftMetricsKey = n;
rightKerningGroup = u;
rightMetricsKey = n;
unicode = 0075;
},
{
color = 10;
glyphname = "upsilon-latin";
lastChange = "2025-09-10 22:25:12 +0000";
layers = (
{
layerId = "FD4D3FDD-DE85-408F-A52A-FF600B1C6101";
paths = (
{
closed = 1;
nodes = (
"438 -13 OFFCURVE",
"524 77 OFFCURVE",
"524 229 CURVE SMOOTH",
"524 352 OFFCURVE",
"473 441 OFFCURVE",
"383 477 CURVE",
"524 477 LINE",
"524 520 LINE",
"322 520 LINE",
"322 477 LINE",
"419 451 OFFCURVE",
"476 359 OFFCURVE",
"476 229 CURVE SMOOTH",
"476 103 OFFCURVE",
"408 29 OFFCURVE",
"292 29 CURVE SMOOTH",
"176 29 OFFCURVE",
"108 103 OFFCURVE",
"108 229 CURVE SMOOTH",
"108 359 OFFCURVE",
"165 451 OFFCURVE",
"262 477 CURVE",
"262 520 LINE",
"60 520 LINE",
"60 477 LINE",
"201 477 LINE",
"111 441 OFFCURVE",
"60 352 OFFCURVE",
"60 229 CURVE SMOOTH",
"60 77 OFFCURVE",
"146 -13 OFFCURVE",
"292 -13 CURVE SMOOTH"
);
}
);
width = 584;
},
{
layerId = m002;
paths = (
{
closed = 1;
nodes = (
"529 -13 OFFCURVE",
"637 65 OFFCURVE",
"637 197 CURVE SMOOTH",
"637 276 OFFCURVE",
"595 337 OFFCURVE",
"520 370 CURVE",
"644 370 LINE",
"644 520 LINE",
"377 520 LINE",
"377 370 LINE",
"410 357 OFFCURVE",
"429 316 OFFCURVE",
"429 259 CURVE SMOOTH",
"429 184 OFFCURVE",
"399 139 OFFCURVE",
"347 139 CURVE SMOOTH",
"295 139 OFFCURVE",
"265 184 OFFCURVE",
"265 259 CURVE SMOOTH",
"265 316 OFFCURVE",
"284 357 OFFCURVE",
"317 370 CURVE",
"317 520 LINE",
"50 520 LINE",
"50 370 LINE",
"174 370 LINE",
"99 337 OFFCURVE",
"57 276 OFFCURVE",
"57 197 CURVE SMOOTH",
"57 65 OFFCURVE",
"165 -13 OFFCURVE",
"347 -13 CURVE SMOOTH"
);
}
);
width = 694;
}
);
leftKerningGroup = o;
leftMetricsKey = u;
rightKerningGroup = o;
rightMetricsKey = u;
unicode = 028A;
},
{
glyphname = v;
lastChange = "2025-09-11 02:42:20 +0000";
layers = (
{
anchors = (
{
name = Top;
position = "{259, 520}";
}
);
layerId = "FD4D3FDD-DE85-408F-A52A-FF600B1C6101";
paths = (
{
closed = 1;
nodes = (
"237 0 LINE",
"281 0 LINE",
"478 520 LINE",
"428 520 LINE",
"260 68 LINE",
"258 68 LINE",
"90 520 LINE",
"40 520 LINE"
);
}
);
width = 518;
},
{
anchors = (
{
name = Top;
position = "{349, 520}";
}
);
layerId = m002;
paths = (
{
closed = 1;
nodes = (
"257 0 LINE",
"441 0 LINE",
"668 520 LINE",
"463 520 LINE",
"350 237 LINE",
"348 237 LINE",
"235 520 LINE",
"30 520 LINE"
);
}
);
width = 698;
}
);
leftKerningGroup = v;
leftMetricsKey = "=|k";
rightKerningGroup = v;
rightMetricsKey = k;
unicode = 0076;
},
{
glyphname = w;
lastChange = "2025-08-28 14:57:06 +0000";
layers = (
{
anchors = (
{
name = Top;
position = "{381, 520}";
}
);
layerId = "FD4D3FDD-DE85-408F-A52A-FF600B1C6101";
paths = (
{
closed = 1;
nodes = (
"177 0 LINE",
"227 0 LINE",
"379 447 LINE",
"381 447 LINE",
"533 0 LINE",
"583 0 LINE",
"720 520 LINE",
"670 520 LINE",
"556 83 LINE",
"554 83 LINE",
"405 520 LINE",
"355 520 LINE",
"206 84 LINE",
"204 84 LINE",
"90 520 LINE",
"40 520 LINE"
);
}
);
width = 760;
},
{
anchors = (
{
name = Top;
position = "{443, 520}";
}
);
layerId = m002;
paths = (
{
closed = 1;
nodes = (
"170 0 LINE",
"358 0 LINE",
"443 280 LINE",
"445 280 LINE",
"530 0 LINE",
"718 0 LINE",
"858 520 LINE",
"660 520 LINE",
"605 296 LINE",
"603 296 LINE",
"518 520 LINE",
"370 520 LINE",
"285 296 LINE",
"283 296 LINE",
"228 520 LINE",
"30 520 LINE"
);
}
);
width = 888;
}
);
leftKerningGroup = v;
leftMetricsKey = "=|k";
rightKerningGroup = v;
rightMetricsKey = k;
unicode = 0077;
},
{
glyphname = x;
lastChange = "2025-09-15 18:40:35 +0000";
layers = (
{
anchors = (
{
name = Top;
position = "{255, 520}";
}
);
layerId = "FD4D3FDD-DE85-408F-A52A-FF600B1C6101";
paths = (
{
closed = 1;
nodes = (
"228 260 LINE",
"41 0 LINE",
"96 0 LINE",
"255 222 LINE",
"415 0 LINE",
"470 0 LINE",
"283 260 LINE",
"469 520 LINE",
"414 520 LINE",
"255 298 LINE",
"95 520 LINE",
"40 520 LINE"
);
}
);
width = 510;
},
{
anchors = (
{
name = Top;
position = "{335, 520}";
}
);
layerId = m002;
paths = (
{
closed = 1;
nodes = (
"225 260 LINE",
"31 0 LINE",
"252 0 LINE",
"336 112 LINE",
"420 0 LINE",
"641 0 LINE",
"446 260 LINE",
"640 520 LINE",
"419 520 LINE",
"335 408 LINE",
"251 520 LINE",
"30 520 LINE"
);
}
);
width = 671;
}
);
leftKerningGroup = x;
leftMetricsKey = "=|k";
rightKerningGroup = x;
rightMetricsKey = k;
unicode = 0078;
},
{
glyphname = y;
lastChange = "2025-08-28 14:57:11 +0000";
layers = (
{
anchors = (
{
name = Bottom;
position = "{375, 0}";
},
{
name = Top;
position = "{284, 520}";
}
);
layerId = "FD4D3FDD-DE85-408F-A52A-FF600B1C6101";
paths = (
{
closed = 1;
nodes = (
"527 520 LINE",
"477 520 LINE",
"301 75 LINE",
"299 75 LINE",
"90 520 LINE",
"40 520 LINE",
"277 15 LINE",
"243 -70 LINE SMOOTH",
"219 -130 OFFCURVE",
"181 -161 OFFCURVE",
"133 -161 CURVE SMOOTH",
"114 -161 OFFCURVE",
"92 -158 OFFCURVE",
"81 -152 CURVE",
"81 -200 LINE",
"95 -205 OFFCURVE",
"113 -208 OFFCURVE",
"129 -208 CURVE SMOOTH",
"204 -208 OFFCURVE",
"256 -165 OFFCURVE",
"293 -70 CURVE SMOOTH"
);
}
);
width = 567;
},
{
anchors = (
{
name = Bottom;
position = "{533, 0}";
},
{
name = Top;
position = "{346, 520}";
}
);
hints = (
{
horizontal = 1;
place = "{520, -20}";
target = down;
type = TopGhost;
}
);
layerId = m002;
paths = (
{
closed = 1;
nodes = (
"658 520 LINE",
"460 520 LINE",
"354 266 LINE",
"352 266 LINE",
"228 520 LINE",
"30 520 LINE",
"261 46 LINE",
"237 -12 LINE SMOOTH",
"227 -35 OFFCURVE",
"205 -48 OFFCURVE",
"177 -48 CURVE SMOOTH",
"142 -48 OFFCURVE",
"114 -45 OFFCURVE",
"101 -39 CURVE",
"101 -199 LINE",
"117 -204 OFFCURVE",
"141 -207 OFFCURVE",
"166 -207 CURVE SMOOTH",
"286 -207 OFFCURVE",
"361 -198 OFFCURVE",
"423 -48 CURVE SMOOTH"
);
}
);
width = 688;
}
);
leftKerningGroup = y;
leftMetricsKey = "=|k";
rightKerningGroup = y;
rightMetricsKey = k;
unicode = 0079;
},
{
glyphname = z;
lastChange = "2025-08-28 14:58:44 +0000";
layers = (
{
anchors = (
{
name = Bottom;
position = "{247, 0}";
},
{
name = Top;
position = "{258, 520}";
}
);
layerId = "FD4D3FDD-DE85-408F-A52A-FF600B1C6101";
paths = (
{
closed = 1;
nodes = (
"437 520 LINE",
"60 520 LINE",
"60 480 LINE",
"379 480 LINE",
"67 40 LINE",
"67 0 LINE",
"468 0 LINE",
"468 40 LINE",
"125 40 LINE",
"437 480 LINE"
);
}
);
width = 508;
},
{
anchors = (
{
name = Bottom;
position = "{279, 0}";
},
{
name = Top;
position = "{285, 520}";
}
);
layerId = m002;
paths = (
{
closed = 1;
nodes = (
"470 520 LINE",
"50 520 LINE",
"50 370 LINE",
"267 370 LINE",
"70 150 LINE",
"70 0 LINE",
"501 0 LINE",
"501 150 LINE",
"271 150 LINE",
"470 370 LINE"
);
}
);
width = 551;
}
);
leftKerningGroup = z;
leftMetricsKey = n;
rightKerningGroup = z;
unicode = 007A;
},
{
glyphname = a.ss01;
lastChange = "2025-09-11 23:00:33 +0000";
layers = (
{
anchors = (
{
name = Bottom;
position = "{242, 0}";
},
{
name = Ogonek;
position = "{392, 0}";
},
{
name = Top;
position = "{249, 532}";
}
);
layerId = "FD4D3FDD-DE85-408F-A52A-FF600B1C6101";
paths = (
{
closed = 1;
nodes = (
"279 -13 OFFCURVE",
"345 23 OFFCURVE",
"377 78 CURVE",
"379 78 LINE",
"364 0 LINE",
"427 0 LINE",
"427 374 LINE SMOOTH",
"427 473 OFFCURVE",
"361 532 OFFCURVE",
"250 532 CURVE SMOOTH",
"132 532 OFFCURVE",
"63 476 OFFCURVE",
"63 382 CURVE",
"111 382 LINE",
"111 450 OFFCURVE",
"163 490 OFFCURVE",
"250 490 CURVE SMOOTH",
"331 490 OFFCURVE",
"379 451 OFFCURVE",
"379 384 CURVE SMOOTH",
"379 332 OFFCURVE",
"332 306 OFFCURVE",
"257 289 CURVE SMOOTH",
"127 260 OFFCURVE",
"50 215 OFFCURVE",
"50 132 CURVE SMOOTH",
"50 45 OFFCURVE",
"114 -13 OFFCURVE",
"210 -13 CURVE SMOOTH"
);
},
{
closed = 1;
nodes = (
"98 190 OFFCURVE",
"156 221 OFFCURVE",
"254 244 CURVE SMOOTH",
"314 258 OFFCURVE",
"353 274 OFFCURVE",
"378 302 CURVE",
"378 212 LINE SMOOTH",
"378 102 OFFCURVE",
"311 29 OFFCURVE",
"210 29 CURVE SMOOTH",
"143 29 OFFCURVE",
"98 70 OFFCURVE",
"98 131 CURVE SMOOTH"
);
}
);
width = 487;
},
{
anchors = (
{
name = Bottom;
position = "{264, 0}";
},
{
name = Ogonek;
position = "{495, 0}";
},
{
name = Top;
position = "{300, 532}";
}
);
layerId = m002;
paths = (
{
closed = 1;
nodes = (
"304 -13 OFFCURVE",
"354 7 OFFCURVE",
"377 40 CURVE",
"381 40 LINE",
"361 0 LINE",
"567 0 LINE",
"567 354 LINE SMOOTH",
"567 466 OFFCURVE",
"468 532 OFFCURVE",
"300 532 CURVE SMOOTH",
"138 532 OFFCURVE",
"43 460 OFFCURVE",
"43 337 CURVE",
"241 337 LINE",
"241 373 OFFCURVE",
"267 395 OFFCURVE",
"311 395 CURVE SMOOTH",
"347 395 OFFCURVE",
"369 382 OFFCURVE",
"369 360 CURVE SMOOTH",
"369 326 OFFCURVE",
"322 316 OFFCURVE",
"240 304 CURVE SMOOTH",
"113 285 OFFCURVE",
"30 229 OFFCURVE",
"30 141 CURVE SMOOTH",
"30 44 OFFCURVE",
"109 -13 OFFCURVE",
"242 -13 CURVE SMOOTH"
);
},
{
closed = 1;
nodes = (
"228 181 OFFCURVE",
"242 197 OFFCURVE",
"279 206 CURVE SMOOTH",
"326 217 OFFCURVE",
"349 224 OFFCURVE",
"369 240 CURVE",
"369 209 LINE SMOOTH",
"369 156 OFFCURVE",
"336 125 OFFCURVE",
"281 125 CURVE SMOOTH",
"249 125 OFFCURVE",
"228 140 OFFCURVE",
"228 162 CURVE SMOOTH"
);
}
);
width = 617;
}
);
leftKerningGroup = o;
leftMetricsKey = a;
rightKerningGroup = n;
rightMetricsKey = n;
},
{
color = 10;
glyphname = astroke.ss01;
lastChange = "2025-09-10 22:25:20 +0000";
layers = (
{
layerId = "FD4D3FDD-DE85-408F-A52A-FF600B1C6101";
paths = (
{
closed = 1;
nodes = (
"279 -13 OFFCURVE",
"345 23 OFFCURVE",
"377 78 CURVE",
"379 78 LINE",
"364 0 LINE",
"427 0 LINE",
"427 374 LINE SMOOTH",
"427 434 OFFCURVE",
"403 479 OFFCURVE",
"359 506 CURVE",
"378 558 LINE",
"337 558 LINE",
"324 521 LINE",
"302 528 OFFCURVE",
"277 532 OFFCURVE",
"250 532 CURVE SMOOTH",
"132 532 OFFCURVE",
"63 476 OFFCURVE",
"63 382 CURVE",
"111 382 LINE",
"111 450 OFFCURVE",
"163 490 OFFCURVE",
"250 490 CURVE SMOOTH",
"272 490 OFFCURVE",
"292 487 OFFCURVE",
"309 481 CURVE",
"237 284 LINE",
"119 255 OFFCURVE",
"50 211 OFFCURVE",
"50 132 CURVE SMOOTH",
"50 71 OFFCURVE",
"82 24 OFFCURVE",
"134 2 CURVE",
"115 -50 LINE",
"156 -50 LINE",
"171 -10 LINE",
"183 -12 OFFCURVE",
"196 -13 OFFCURVE",
"210 -13 CURVE SMOOTH"
);
},
{
closed = 1;
nodes = (
"98 183 OFFCURVE",
"142 213 OFFCURVE",
"219 235 CURVE",
"149 43 LINE",
"117 60 OFFCURVE",
"98 91 OFFCURVE",
"98 131 CURVE SMOOTH"
);
},
{
closed = 1;
nodes = (
"264 246 LINE",
"318 260 OFFCURVE",
"354 276 OFFCURVE",
"378 302 CURVE",
"378 212 LINE SMOOTH",
"378 102 OFFCURVE",
"311 29 OFFCURVE",
"210 29 CURVE SMOOTH",
"201 29 OFFCURVE",
"193 30 OFFCURVE",
"186 31 CURVE"
);
},
{
closed = 1;
nodes = (
"343 463 LINE",
"366 445 OFFCURVE",
"379 418 OFFCURVE",
"379 384 CURVE SMOOTH",
"379 338 OFFCURVE",
"342 312 OFFCURVE",
"282 295 CURVE"
);
}
);
width = 487;
},
{
layerId = m002;
paths = (
{
closed = 1;
nodes = (
"304 -13 OFFCURVE",
"354 7 OFFCURVE",
"377 40 CURVE",
"381 40 LINE",
"361 0 LINE",
"567 0 LINE",
"567 354 LINE SMOOTH",
"567 438 OFFCURVE",
"512 496 OFFCURVE",
"414 520 CURVE",
"428 558 LINE",
"382 558 LINE",
"371 528 LINE",
"349 531 OFFCURVE",
"325 532 OFFCURVE",
"300 532 CURVE SMOOTH",
"138 532 OFFCURVE",
"43 460 OFFCURVE",
"43 337 CURVE",
"241 337 LINE",
"241 373 OFFCURVE",
"267 395 OFFCURVE",
"311 395 CURVE SMOOTH",
"315 395 OFFCURVE",
"319 395 OFFCURVE",
"322 395 CURVE",
"292 313 LINE",
"168 288 OFFCURVE",
"30 267 OFFCURVE",
"30 141 CURVE SMOOTH",
"30 61 OFFCURVE",
"83 9 OFFCURVE",
"176 -8 CURVE",
"160 -50 LINE",
"206 -50 LINE",
"220 -12 LINE",
"226 -13 OFFCURVE",
"234 -13 OFFCURVE",
"242 -13 CURVE SMOOTH"
);
},
{
closed = 1;
nodes = (
"228 175 OFFCURVE",
"234 186 OFFCURVE",
"249 195 CURVE",
"232 147 LINE",
"229 151 OFFCURVE",
"228 156 OFFCURVE",
"228 162 CURVE SMOOTH"
);
},
{
closed = 1;
nodes = (
"301 211 LINE",
"334 220 OFFCURVE",
"352 227 OFFCURVE",
"369 240 CURVE",
"369 209 LINE SMOOTH",
"369 156 OFFCURVE",
"336 125 OFFCURVE",
"281 125 CURVE SMOOTH",
"277 125 OFFCURVE",
"274 125 OFFCURVE",
"270 126 CURVE"
);
},
{
closed = 1;
nodes = (
"362 378 LINE",
"367 373 OFFCURVE",
"369 367 OFFCURVE",
"369 360 CURVE SMOOTH",
"369 345 OFFCURVE",
"360 335 OFFCURVE",
"344 327 CURVE"
);
}
);
width = 617;
}
);
leftKerningGroup = o;
leftMetricsKey = a;
rightKerningGroup = n;
rightMetricsKey = a;
},
{
color = 10;
glyphname = germandbls.ss01;
lastChange = "2025-09-10 22:25:32 +0000";
layers = (
{
layerId = "FD4D3FDD-DE85-408F-A52A-FF600B1C6101";
paths = (
{
closed = 1;
nodes = (
"108 0 LINE",
"108 583 LINE SMOOTH",
"108 650 OFFCURVE",
"150 694 OFFCURVE",
"213 694 CURVE SMOOTH",
"270 694 LINE",
"228 663 OFFCURVE",
"204 616 OFFCURVE",
"204 558 CURVE SMOOTH",
"204 373 OFFCURVE",
"496 340 OFFCURVE",
"496 171 CURVE SMOOTH",
"496 86 OFFCURVE",
"432 29 OFFCURVE",
"335 29 CURVE SMOOTH",
"296 29 OFFCURVE",
"244 38 OFFCURVE",
"207 52 CURVE",
"207 10 LINE",
"232 -4 OFFCURVE",
"282 -13 OFFCURVE",
"334 -13 CURVE SMOOTH",
"460 -13 OFFCURVE",
"544 63 OFFCURVE",
"544 177 CURVE SMOOTH",
"544 368 OFFCURVE",
"252 410 OFFCURVE",
"252 562 CURVE SMOOTH",
"252 641 OFFCURVE",
"316 694 OFFCURVE",
"412 694 CURVE",
"412 736 LINE",
"215 736 LINE SMOOTH",
"122 736 OFFCURVE",
"60 670 OFFCURVE",
"60 571 CURVE SMOOTH",
"60 0 LINE"
);
}
);
width = 594;
},
{
layerId = m002;
paths = (
{
closed = 1;
nodes = (
"248 0 LINE",
"248 523 LINE SMOOTH",
"248 554 OFFCURVE",
"266 574 OFFCURVE",
"293 574 CURVE SMOOTH",
"371 574 LINE",
"366 556 OFFCURVE",
"364 538 OFFCURVE",
"364 518 CURVE SMOOTH",
"364 375 OFFCURVE",
"486 297 OFFCURVE",
"486 201 CURVE SMOOTH",
"486 170 OFFCURVE",
"464 149 OFFCURVE",
"431 149 CURVE SMOOTH",
"403 149 OFFCURVE",
"362 158 OFFCURVE",
"327 172 CURVE",
"327 10 LINE",
"352 -4 OFFCURVE",
"402 -13 OFFCURVE",
"454 -13 CURVE SMOOTH",
"598 -13 OFFCURVE",
"694 71 OFFCURVE",
"694 197 CURVE SMOOTH",
"694 375 OFFCURVE",
"572 442 OFFCURVE",
"572 522 CURVE SMOOTH",
"572 553 OFFCURVE",
"588 574 OFFCURVE",
"612 574 CURVE",
"612 736 LINE",
"275 736 LINE SMOOTH",
"138 736 OFFCURVE",
"50 670 OFFCURVE",
"50 571 CURVE SMOOTH",
"50 0 LINE"
);
}
);
width = 724;
}
);
leftKerningGroup = n;
leftMetricsKey = n;
rightKerningGroup = germandbls;
rightMetricsKey = o;
},
{
color = 10;
glyphname = f_f;
lastChange = "2025-09-10 22:25:38 +0000";
layers = (
{
layerId = "FD4D3FDD-DE85-408F-A52A-FF600B1C6101";
paths = (
{
closed = 1;
nodes = (
"153 518 LINE",
"60 523 LINE",
"60 478 LINE",
"153 478 LINE",
"153 0 LINE",
"201 0 LINE",
"201 478 LINE",
"418 478 LINE",
"418 0 LINE",
"466 0 LINE",
"466 478 LINE",
"590 478 LINE",
"590 520 LINE",
"466 520 LINE",
"466 573 LINE SMOOTH",
"466 650 OFFCURVE",
"510 695 OFFCURVE",
"585 695 CURVE SMOOTH",
"606 695 OFFCURVE",
"629 689 OFFCURVE",
"644 681 CURVE",
"644 723 LINE",
"626 731 OFFCURVE",
"603 736 OFFCURVE",
"586 736 CURVE SMOOTH",
"480 736 OFFCURVE",
"418 675 OFFCURVE",
"418 573 CURVE SMOOTH",
"418 518 LINE",
"325 520 LINE",
"201 520 LINE",
"201 573 LINE SMOOTH",
"201 650 OFFCURVE",
"245 695 OFFCURVE",
"320 695 CURVE SMOOTH",
"341 695 OFFCURVE",
"364 689 OFFCURVE",
"379 681 CURVE",
"379 723 LINE",
"361 731 OFFCURVE",
"338 736 OFFCURVE",
"321 736 CURVE SMOOTH",
"215 736 OFFCURVE",
"153 675 OFFCURVE",
"153 573 CURVE SMOOTH"
);
}
);
width = 684;
},
{
layerId = m002;
paths = (
{
closed = 1;
nodes = (
"123 518 LINE",
"50 523 LINE",
"50 370 LINE",
"123 370 LINE",
"123 0 LINE",
"321 0 LINE",
"321 370 LINE",
"468 370 LINE",
"468 0 LINE",
"666 0 LINE",
"666 370 LINE",
"770 370 LINE",
"770 520 LINE",
"666 520 LINE",
"666 532 LINE SMOOTH",
"666 562 OFFCURVE",
"685 577 OFFCURVE",
"720 577 CURVE SMOOTH",
"736 577 OFFCURVE",
"762 571 OFFCURVE",
"784 563 CURVE",
"784 723 LINE",
"766 731 OFFCURVE",
"737 736 OFFCURVE",
"710 736 CURVE SMOOTH",
"551 736 OFFCURVE",
"468 673 OFFCURVE",
"468 552 CURVE SMOOTH",
"468 518 LINE",
"425 520 LINE",
"321 520 LINE",
"321 532 LINE SMOOTH",
"321 562 OFFCURVE",
"340 577 OFFCURVE",
"375 577 CURVE SMOOTH",
"391 577 OFFCURVE",
"417 571 OFFCURVE",
"439 563 CURVE",
"439 723 LINE",
"421 731 OFFCURVE",
"392 736 OFFCURVE",
"365 736 CURVE SMOOTH",
"206 736 OFFCURVE",
"123 673 OFFCURVE",
"123 552 CURVE SMOOTH"
);
}
);
width = 814;
}
);
leftKerningGroup = f;
leftMetricsKey = f;
rightKerningGroup = f;
rightMetricsKey = f;
unicode = FB00;
},
{
color = 10;
glyphname = f_f_i;
lastChange = "2025-09-10 22:26:32 +0000";
layers = (
{
layerId = "FD4D3FDD-DE85-408F-A52A-FF600B1C6101";
paths = (
{
closed = 1;
nodes = (
"153 518 LINE",
"60 523 LINE",
"60 478 LINE",
"153 478 LINE",
"153 0 LINE",
"201 0 LINE",
"201 478 LINE",
"378 478 LINE",
"378 0 LINE",
"426 0 LINE",
"426 478 LINE",
"644 478 LINE",
"644 0 LINE",
"692 0 LINE",
"692 520 LINE",
"426 520 LINE",
"426 573 LINE SMOOTH",
"426 650 OFFCURVE",
"470 695 OFFCURVE",
"545 695 CURVE SMOOTH",
"566 695 OFFCURVE",
"589 689 OFFCURVE",
"604 681 CURVE",
"604 723 LINE",
"586 731 OFFCURVE",
"563 736 OFFCURVE",
"546 736 CURVE SMOOTH",
"440 736 OFFCURVE",
"378 675 OFFCURVE",
"378 573 CURVE SMOOTH",
"378 518 LINE",
"285 520 LINE",
"201 520 LINE",
"201 573 LINE SMOOTH",
"201 650 OFFCURVE",
"245 695 OFFCURVE",
"320 695 CURVE SMOOTH",
"341 695 OFFCURVE",
"364 689 OFFCURVE",
"379 681 CURVE",
"379 723 LINE",
"361 731 OFFCURVE",
"338 736 OFFCURVE",
"321 736 CURVE SMOOTH",
"215 736 OFFCURVE",
"153 675 OFFCURVE",
"153 573 CURVE SMOOTH"
);
},
{
closed = 1;
nodes = (
"692 654 LINE",
"692 723 LINE",
"644 723 LINE",
"644 654 LINE"
);
}
);
width = 752;
},
{
layerId = m002;
paths = (
{
closed = 1;
nodes = (
"123 518 LINE",
"50 523 LINE",
"50 370 LINE",
"123 370 LINE",
"123 0 LINE",
"321 0 LINE",
"321 370 LINE",
"468 370 LINE",
"468 0 LINE",
"666 0 LINE",
"666 370 LINE",
"810 370 LINE",
"810 0 LINE",
"988 0 LINE",
"988 520 LINE",
"666 520 LINE",
"666 532 LINE SMOOTH",
"666 562 OFFCURVE",
"685 577 OFFCURVE",
"720 577 CURVE SMOOTH",
"736 577 OFFCURVE",
"762 571 OFFCURVE",
"784 563 CURVE",
"784 723 LINE",
"766 731 OFFCURVE",
"737 736 OFFCURVE",
"710 736 CURVE SMOOTH",
"551 736 OFFCURVE",
"468 673 OFFCURVE",
"468 552 CURVE SMOOTH",
"468 518 LINE",
"425 520 LINE",
"321 520 LINE",
"321 532 LINE SMOOTH",
"321 562 OFFCURVE",
"340 577 OFFCURVE",
"375 577 CURVE SMOOTH",
"391 577 OFFCURVE",
"417 571 OFFCURVE",
"439 563 CURVE",
"439 723 LINE",
"421 731 OFFCURVE",
"392 736 OFFCURVE",
"365 736 CURVE SMOOTH",
"206 736 OFFCURVE",
"123 673 OFFCURVE",
"123 552 CURVE SMOOTH"
);
},
{
closed = 1;
nodes = (
"988 553 LINE",
"988 723 LINE",
"810 723 LINE",
"810 553 LINE"
);
}
);
width = 1038;
}
);
leftKerningGroup = f;
leftMetricsKey = f;
rightKerningGroup = i;
rightMetricsKey = n;
unicode = FB03;
},
{
color = 10;
glyphname = f_t;
lastChange = "2025-09-10 22:25:48 +0000";
layers = (
{
layerId = "FD4D3FDD-DE85-408F-A52A-FF600B1C6101";
paths = (
{
closed = 1;
nodes = (
"153 518 LINE",
"60 523 LINE",
"60 478 LINE",
"153 478 LINE",
"153 0 LINE",
"201 0 LINE",
"201 478 LINE",
"418 478 LINE",
"418 139 LINE SMOOTH",
"418 30 OFFCURVE",
"459 -13 OFFCURVE",
"562 -13 CURVE SMOOTH",
"585 -13 OFFCURVE",
"600 -10 OFFCURVE",
"617 -3 CURVE",
"617 39 LINE",
"605 31 OFFCURVE",
"589 28 OFFCURVE",
"561 28 CURVE SMOOTH",
"493 28 OFFCURVE",
"466 60 OFFCURVE",
"466 139 CURVE SMOOTH",
"466 478 LINE",
"600 478 LINE",
"600 520 LINE",
"466 520 LINE",
"466 629 LINE",
"418 629 LINE",
"418 518 LINE",
"335 520 LINE",
"201 520 LINE",
"201 573 LINE SMOOTH",
"201 650 OFFCURVE",
"245 695 OFFCURVE",
"320 695 CURVE SMOOTH",
"341 695 OFFCURVE",
"364 689 OFFCURVE",
"379 681 CURVE",
"379 723 LINE",
"361 731 OFFCURVE",
"338 736 OFFCURVE",
"321 736 CURVE SMOOTH",
"215 736 OFFCURVE",
"153 675 OFFCURVE",
"153 573 CURVE SMOOTH"
);
}
);
width = 657;
},
{
layerId = m002;
paths = (
{
closed = 1;
nodes = (
"123 518 LINE",
"50 523 LINE",
"50 370 LINE",
"123 370 LINE",
"123 0 LINE",
"321 0 LINE",
"321 370 LINE",
"465 370 LINE",
"465 171 LINE SMOOTH",
"465 55 OFFCURVE",
"552 -13 OFFCURVE",
"698 -13 CURVE SMOOTH",
"735 -13 OFFCURVE",
"768 -8 OFFCURVE",
"786 0 CURVE",
"786 160 LINE",
"763 151 OFFCURVE",
"733 146 OFFCURVE",
"707 146 CURVE SMOOTH",
"679 146 OFFCURVE",
"663 163 OFFCURVE",
"663 191 CURVE SMOOTH",
"663 370 LINE",
"767 370 LINE",
"767 520 LINE",
"663 520 LINE",
"663 629 LINE",
"465 629 LINE",
"465 518 LINE",
"392 520 LINE",
"321 520 LINE",
"321 532 LINE SMOOTH",
"321 562 OFFCURVE",
"340 577 OFFCURVE",
"375 577 CURVE SMOOTH",
"391 577 OFFCURVE",
"417 571 OFFCURVE",
"439 563 CURVE",
"439 723 LINE",
"421 731 OFFCURVE",
"392 736 OFFCURVE",
"365 736 CURVE SMOOTH",
"206 736 OFFCURVE",
"123 673 OFFCURVE",
"123 552 CURVE SMOOTH"
);
}
);
width = 816;
}
);
leftKerningGroup = f;
leftMetricsKey = f;
rightKerningGroup = t;
rightMetricsKey = t;
unicode = FB05;
},
{
color = 10;
glyphname = fi;
lastChange = "2025-09-10 22:26:30 +0000";
layers = (
{
layerId = "FD4D3FDD-DE85-408F-A52A-FF600B1C6101";
paths = (
{
closed = 1;
nodes = (
"153 518 LINE",
"60 523 LINE",
"60 478 LINE",
"153 478 LINE",
"153 0 LINE",
"201 0 LINE",
"201 478 LINE",
"389 478 LINE",
"389 0 LINE",
"437 0 LINE",
"437 520 LINE",
"201 520 LINE",
"201 575 LINE SMOOTH",
"201 654 OFFCURVE",
"235 695 OFFCURVE",
"300 695 CURVE SMOOTH",
"321 695 OFFCURVE",
"342 690 OFFCURVE",
"359 681 CURVE",
"359 723 LINE",
"341 731 OFFCURVE",
"318 736 OFFCURVE",
"297 736 CURVE SMOOTH",
"202 736 OFFCURVE",
"153 680 OFFCURVE",
"153 572 CURVE SMOOTH"
);
},
{
closed = 1;
nodes = (
"437 654 LINE",
"437 723 LINE",
"389 723 LINE",
"389 654 LINE"
);
}
);
width = 497;
},
{
layerId = m002;
paths = (
{
closed = 1;
nodes = (
"123 518 LINE",
"50 523 LINE",
"50 370 LINE",
"123 370 LINE",
"123 0 LINE",
"321 0 LINE",
"321 370 LINE",
"469 370 LINE",
"469 0 LINE",
"667 0 LINE",
"667 520 LINE",
"321 520 LINE",
"321 532 LINE SMOOTH",
"321 562 OFFCURVE",
"340 577 OFFCURVE",
"375 577 CURVE SMOOTH",
"391 577 OFFCURVE",
"417 571 OFFCURVE",
"439 563 CURVE",
"439 723 LINE",
"421 731 OFFCURVE",
"392 736 OFFCURVE",
"365 736 CURVE SMOOTH",
"206 736 OFFCURVE",
"123 673 OFFCURVE",
"123 552 CURVE SMOOTH"
);
},
{
closed = 1;
nodes = (
"667 553 LINE",
"667 723 LINE",
"469 723 LINE",
"469 553 LINE"
);
}
);
width = 717;
}
);
leftKerningGroup = f;
leftMetricsKey = f;
rightKerningGroup = i;
rightMetricsKey = n;
unicode = FB01;
},
{
color = 10;
glyphname = fl;
lastChange = "2025-09-10 22:25:53 +0000";
layers = (
{
layerId = "FD4D3FDD-DE85-408F-A52A-FF600B1C6101";
paths = (
{
closed = 1;
nodes = (
"379 520 LINE",
"201 520 LINE",
"201 575 LINE SMOOTH",
"201 654 OFFCURVE",
"235 695 OFFCURVE",
"300 695 CURVE SMOOTH",
"321 695 OFFCURVE",
"342 690 OFFCURVE",
"359 681 CURVE",
"359 723 LINE",
"341 731 OFFCURVE",
"318 736 OFFCURVE",
"297 736 CURVE SMOOTH",
"202 736 OFFCURVE",
"153 680 OFFCURVE",
"153 572 CURVE SMOOTH",
"153 518 LINE",
"60 523 LINE",
"60 478 LINE",
"153 478 LINE",
"153 0 LINE",
"201 0 LINE",
"201 478 LINE",
"379 478 LINE",
"379 0 LINE",
"427 0 LINE",
"427 704 LINE",
"379 723 LINE"
);
}
);
width = 487;
},
{
layerId = m002;
paths = (
{
closed = 1;
nodes = (
"469 520 LINE",
"321 520 LINE",
"321 532 LINE SMOOTH",
"321 562 OFFCURVE",
"340 577 OFFCURVE",
"375 577 CURVE SMOOTH",
"391 577 OFFCURVE",
"417 571 OFFCURVE",
"439 563 CURVE",
"439 723 LINE",
"421 731 OFFCURVE",
"392 736 OFFCURVE",
"365 736 CURVE SMOOTH",
"206 736 OFFCURVE",
"123 673 OFFCURVE",
"123 552 CURVE SMOOTH",
"123 518 LINE",
"50 523 LINE",
"50 370 LINE",
"123 370 LINE",
"123 0 LINE",
"321 0 LINE",
"321 370 LINE",
"469 370 LINE",
"469 0 LINE",
"637 0 LINE",
"637 669 LINE",
"469 723 LINE"
);
}
);
width = 687;
}
);
leftKerningGroup = f;
leftMetricsKey = f;
rightKerningGroup = l;
rightMetricsKey = l;
unicode = FB02;
},
{
color = 10;
glyphname = t_t;
lastChange = "2025-09-10 22:25:55 +0000";
layers = (
{
hints = (
{
place = "{149, 0}";
type = Stem;
},
{
place = "{461, 0}";
type = Stem;
}
);
layerId = "FD4D3FDD-DE85-408F-A52A-FF600B1C6101";
paths = (
{
closed = 1;
nodes = (
"133 30 OFFCURVE",
"174 -13 OFFCURVE",
"277 -13 CURVE SMOOTH",
"300 -13 OFFCURVE",
"315 -10 OFFCURVE",
"332 -3 CURVE",
"332 39 LINE",
"320 31 OFFCURVE",
"304 28 OFFCURVE",
"276 28 CURVE SMOOTH",
"208 28 OFFCURVE",
"181 60 OFFCURVE",
"181 139 CURVE SMOOTH",
"181 478 LINE",
"385 478 LINE",
"385 139 LINE SMOOTH",
"385 30 OFFCURVE",
"426 -13 OFFCURVE",
"529 -13 CURVE SMOOTH",
"552 -13 OFFCURVE",
"567 -10 OFFCURVE",
"584 -3 CURVE",
"584 39 LINE",
"572 31 OFFCURVE",
"556 28 OFFCURVE",
"528 28 CURVE SMOOTH",
"460 28 OFFCURVE",
"433 60 OFFCURVE",
"433 139 CURVE SMOOTH",
"433 478 LINE",
"567 478 LINE",
"567 520 LINE",
"433 520 LINE",
"433 629 LINE",
"385 629 LINE",
"385 518 LINE",
"302 520 LINE",
"181 520 LINE",
"181 629 LINE",
"133 629 LINE",
"133 518 LINE",
"40 523 LINE",
"40 478 LINE",
"133 478 LINE",
"133 139 LINE SMOOTH"
);
}
);
width = 624;
},
{
hints = (
{
place = "{149, 0}";
type = Stem;
},
{
place = "{504, 0}";
type = Stem;
}
);
layerId = m002;
paths = (
{
closed = 1;
nodes = (
"103 55 OFFCURVE",
"190 -13 OFFCURVE",
"336 -13 CURVE SMOOTH",
"373 -13 OFFCURVE",
"406 -8 OFFCURVE",
"424 0 CURVE",
"424 160 LINE",
"401 151 OFFCURVE",
"371 146 OFFCURVE",
"345 146 CURVE SMOOTH",
"317 146 OFFCURVE",
"301 163 OFFCURVE",
"301 191 CURVE SMOOTH",
"301 370 LINE",
"448 370 LINE",
"448 171 LINE SMOOTH",
"448 55 OFFCURVE",
"535 -13 OFFCURVE",
"681 -13 CURVE SMOOTH",
"718 -13 OFFCURVE",
"751 -8 OFFCURVE",
"769 0 CURVE",
"769 160 LINE",
"746 151 OFFCURVE",
"716 146 OFFCURVE",
"690 146 CURVE SMOOTH",
"662 146 OFFCURVE",
"646 163 OFFCURVE",
"646 191 CURVE SMOOTH",
"646 370 LINE",
"750 370 LINE",
"750 520 LINE",
"646 520 LINE",
"646 629 LINE",
"448 629 LINE",
"448 518 LINE",
"381 520 LINE",
"301 520 LINE",
"301 629 LINE",
"103 629 LINE",
"103 518 LINE",
"30 523 LINE",
"30 370 LINE",
"103 370 LINE",
"103 171 LINE SMOOTH"
);
}
);
width = 799;
}
);
leftKerningGroup = t;
leftMetricsKey = t;
rightKerningGroup = t;
rightMetricsKey = t;
},
{
color = 10;
glyphname = clickalveolar;
lastChange = "2025-09-10 22:25:58 +0000";
layers = (
{
layerId = "FD4D3FDD-DE85-408F-A52A-FF600B1C6101";
paths = (
{
closed = 1;
nodes = (
"180 518 LINE",
"40 523 LINE",
"40 478 LINE",
"180 478 LINE",
"180 369 LINE",
"40 374 LINE",
"40 329 LINE",
"180 329 LINE",
"180 -182 LINE",
"230 -182 LINE",
"230 329 LINE",
"365 329 LINE",
"365 371 LINE",
"230 371 LINE",
"230 478 LINE",
"365 478 LINE",
"365 520 LINE",
"230 520 LINE",
"230 714 LINE",
"180 714 LINE"
);
}
);
width = 405;
},
{
layerId = m002;
paths = (
{
closed = 1;
nodes = (
"168 523 LINE",
"30 528 LINE",
"30 375 LINE",
"168 375 LINE",
"168 283 LINE",
"30 288 LINE",
"30 135 LINE",
"168 135 LINE",
"168 -182 LINE",
"318 -182 LINE",
"318 135 LINE",
"455 135 LINE",
"455 285 LINE",
"318 285 LINE",
"318 375 LINE",
"455 375 LINE",
"455 525 LINE",
"318 525 LINE",
"318 714 LINE",
"168 714 LINE"
);
}
);
width = 485;
}
);
leftKerningGroup = t;
leftMetricsKey = t;
rightKerningGroup = t;
rightMetricsKey = t;
unicode = 01C2;
},
{
color = 10;
glyphname = ordfeminine;
lastChange = "2025-09-10 22:26:57 +0000";
layers = (
{
layerId = "FD4D3FDD-DE85-408F-A52A-FF600B1C6101";
paths = (
{
closed = 1;
nodes = (
"201 433 OFFCURVE",
"235 451 OFFCURVE",
"251 486 CURVE",
"252 486 LINE",
"250 439 LINE",
"299 439 LINE",
"299 707 LINE",
"251 707 LINE",
"252 660 LINE",
"251 660 LINE",
"235 694 OFFCURVE",
"202 714 OFFCURVE",
"164 714 CURVE SMOOTH",
"89 714 OFFCURVE",
"50 649 OFFCURVE",
"50 574 CURVE SMOOTH",
"50 499 OFFCURVE",
"87 433 OFFCURVE",
"162 433 CURVE SMOOTH"
);
},
{
closed = 1;
nodes = (
"98 626 OFFCURVE",
"123 672 OFFCURVE",
"175 672 CURVE SMOOTH",
"227 672 OFFCURVE",
"251 626 OFFCURVE",
"251 574 CURVE SMOOTH",
"251 521 OFFCURVE",
"226 474 OFFCURVE",
"173 474 CURVE SMOOTH",
"121 474 OFFCURVE",
"98 522 OFFCURVE",
"98 574 CURVE SMOOTH"
);
}
);
width = 359;
},
{
layerId = m002;
paths = (
{
closed = 1;
nodes = (
"186 433 OFFCURVE",
"214 443 OFFCURVE",
"225 459 CURVE",
"227 459 LINE",
"225 439 LINE",
"326 439 LINE",
"326 707 LINE",
"225 707 LINE",
"227 690 LINE",
"225 690 LINE",
"214 704 OFFCURVE",
"189 713 OFFCURVE",
"162 713 CURVE SMOOTH",
"83 713 OFFCURVE",
"30 657 OFFCURVE",
"30 573 CURVE SMOOTH",
"30 489 OFFCURVE",
"80 433 OFFCURVE",
"155 433 CURVE SMOOTH"
);
},
{
closed = 1;
nodes = (
"141 604 OFFCURVE",
"158 624 OFFCURVE",
"183 624 CURVE SMOOTH",
"208 624 OFFCURVE",
"225 604 OFFCURVE",
"225 573 CURVE SMOOTH",
"225 542 OFFCURVE",
"208 522 OFFCURVE",
"183 522 CURVE SMOOTH",
"158 522 OFFCURVE",
"141 542 OFFCURVE",
"141 573 CURVE SMOOTH"
);
}
);
width = 376;
}
);
leftKerningGroup = o;
leftMetricsKey = a;
rightKerningGroup = n;
rightMetricsKey = a;
unicode = 00AA;
},
{
color = 10;
glyphname = ordmasculine;
lastChange = "2025-09-10 22:27:12 +0000";
layers = (
{
layerId = "FD4D3FDD-DE85-408F-A52A-FF600B1C6101";
paths = (
{
closed = 1;
nodes = (
"92 714 OFFCURVE",
"50 650 OFFCURVE",
"50 573 CURVE SMOOTH",
"50 497 OFFCURVE",
"93 433 OFFCURVE",
"169 433 CURVE SMOOTH",
"246 433 OFFCURVE",
"289 496 OFFCURVE",
"289 573 CURVE SMOOTH",
"289 650 OFFCURVE",
"246 714 OFFCURVE",
"169 714 CURVE SMOOTH"
);
},
{
closed = 1;
nodes = (
"98 624 OFFCURVE",
"118 672 OFFCURVE",
"169 672 CURVE SMOOTH",
"221 672 OFFCURVE",
"241 625 OFFCURVE",
"241 573 CURVE SMOOTH",
"241 522 OFFCURVE",
"220 475 OFFCURVE",
"169 475 CURVE SMOOTH",
"118 475 OFFCURVE",
"98 522 OFFCURVE",
"98 573 CURVE SMOOTH"
);
}
);
width = 339;
},
{
layerId = m002;
paths = (
{
closed = 1;
nodes = (
"85 713 OFFCURVE",
"30 661 OFFCURVE",
"30 572 CURVE SMOOTH",
"30 484 OFFCURVE",
"85 432 OFFCURVE",
"178 432 CURVE SMOOTH",
"272 432 OFFCURVE",
"327 484 OFFCURVE",
"327 572 CURVE SMOOTH",
"327 661 OFFCURVE",
"272 713 OFFCURVE",
"178 713 CURVE SMOOTH"
);
},
{
closed = 1;
nodes = (
"141 605 OFFCURVE",
"155 624 OFFCURVE",
"178 624 CURVE SMOOTH",
"202 624 OFFCURVE",
"216 605 OFFCURVE",
"216 572 CURVE SMOOTH",
"216 540 OFFCURVE",
"202 521 OFFCURVE",
"178 521 CURVE SMOOTH",
"155 521 OFFCURVE",
"141 540 OFFCURVE",
"141 572 CURVE SMOOTH"
);
}
);
width = 357;
}
);
leftKerningGroup = o;
leftMetricsKey = o;
rightKerningGroup = o;
rightMetricsKey = o;
unicode = 00BA;
},
{
color = 10;
glyphname = "Be-cy";
lastChange = "2025-09-10 22:53:19 +0000";
layers = (
{
layerId = "FD4D3FDD-DE85-408F-A52A-FF600B1C6101";
paths = (
{
closed = 1;
nodes = (
"330 0 LINE SMOOTH",
"463 0 OFFCURVE",
"542 74 OFFCURVE",
"542 198 CURVE SMOOTH",
"542 324 OFFCURVE",
"459 398 OFFCURVE",
"318 398 CURVE SMOOTH",
"110 398 LINE",
"110 666 LINE",
"522 666 LINE",
"522 714 LINE",
"60 714 LINE",
"60 0 LINE"
);
},
{
closed = 1;
nodes = (
"110 351 LINE",
"318 351 LINE SMOOTH",
"427 351 OFFCURVE",
"492 293 OFFCURVE",
"492 196 CURVE SMOOTH",
"492 103 OFFCURVE",
"431 48 OFFCURVE",
"328 48 CURVE SMOOTH",
"110 48 LINE"
);
}
);
width = 592;
},
{
layerId = m002;
paths = (
{
closed = 1;
nodes = (
"400 0 LINE SMOOTH",
"565 0 OFFCURVE",
"662 84 OFFCURVE",
"662 225 CURVE SMOOTH",
"662 366 OFFCURVE",
"560 449 OFFCURVE",
"388 449 CURVE SMOOTH",
"270 449 LINE",
"270 546 LINE",
"632 546 LINE",
"632 714 LINE",
"60 714 LINE",
"60 0 LINE"
);
},
{
closed = 1;
nodes = (
"270 281 LINE",
"388 281 LINE SMOOTH",
"422 281 OFFCURVE",
"442 260 OFFCURVE",
"442 225 CURVE SMOOTH",
"442 189 OFFCURVE",
"426 168 OFFCURVE",
"398 168 CURVE SMOOTH",
"270 168 LINE"
);
}
);
width = 702;
}
);
leftKerningGroup = H;
leftMetricsKey = H;
rightKerningGroup = E;
rightMetricsKey = E;
unicode = 0411;
},
{
color = 10;
glyphname = "Ge-cy";
lastChange = "2025-09-10 23:36:43 +0000";
layers = (
{
anchors = (
{
name = Bottom;
position = "{304, 0}";
},
{
name = Top;
position = "{299, 714}";
}
);
layerId = "FD4D3FDD-DE85-408F-A52A-FF600B1C6101";
paths = (
{
closed = 1;
nodes = (
"110 666 LINE",
"522 666 LINE",
"522 714 LINE",
"60 714 LINE",
"60 0 LINE",
"110 0 LINE"
);
}
);
width = 552;
},
{
anchors = (
{
name = Bottom;
position = "{354, 0}";
},
{
name = Top;
position = "{349, 714}";
}
);
layerId = m002;
paths = (
{
closed = 1;
nodes = (
"270 546 LINE",
"602 546 LINE",
"602 714 LINE",
"60 714 LINE",
"60 0 LINE",
"270 0 LINE"
);
}
);
width = 632;
}
);
leftKerningGroup = H;
leftMetricsKey = H;
rightKerningGroup = "Ge-cy";
rightMetricsKey = T;
unicode = 0413;
},
{
color = 10;
glyphname = "Geupturn-cy";
lastChange = "2025-09-10 23:10:50 +0000";
layers = (
{
layerId = "FD4D3FDD-DE85-408F-A52A-FF600B1C6101";
paths = (
{
closed = 1;
nodes = (
"110 666 LINE",
"547 666 LINE",
"547 752 LINE",
"497 752 LINE",
"497 714 LINE",
"60 714 LINE",
"60 0 LINE",
"110 0 LINE"
);
}
);
width = 577;
},
{
layerId = m002;
paths = (
{
closed = 1;
nodes = (
"270 546 LINE",
"706 546 LINE",
"706 772 LINE",
"496 772 LINE",
"496 714 LINE",
"60 714 LINE",
"60 0 LINE",
"270 0 LINE"
);
}
);
width = 736;
}
);
leftKerningGroup = H;
leftMetricsKey = "Ge-cy";
rightKerningGroup = "Ge-cy";
rightMetricsKey = "Ge-cy";
unicode = 0490;
},
{
color = 10;
glyphname = "Gedescender-cy";
lastChange = "2025-09-10 23:10:54 +0000";
layers = (
{
layerId = "FD4D3FDD-DE85-408F-A52A-FF600B1C6101";
paths = (
{
closed = 1;
nodes = (
"110 -100 LINE",
"160 -100 LINE",
"160 48 LINE",
"110 48 LINE",
"110 666 LINE",
"522 666 LINE",
"522 714 LINE",
"60 714 LINE",
"60 0 LINE",
"110 0 LINE"
);
}
);
width = 552;
},
{
layerId = m002;
paths = (
{
closed = 1;
nodes = (
"270 -100 LINE",
"480 -100 LINE",
"480 168 LINE",
"270 168 LINE",
"270 546 LINE",
"602 546 LINE",
"602 714 LINE",
"60 714 LINE",
"60 0 LINE",
"270 0 LINE"
);
}
);
width = 632;
}
);
leftKerningGroup = H;
leftMetricsKey = "Ge-cy";
rightKerningGroup = "Ge-cy";
rightMetricsKey = "Ge-cy";
unicode = 04F6;
},
{
color = 10;
glyphname = "Gestroke-cy";
lastChange = "2025-09-10 23:10:56 +0000";
layers = (
{
layerId = "FD4D3FDD-DE85-408F-A52A-FF600B1C6101";
paths = (
{
closed = 1;
nodes = (
"170 344 LINE",
"490 344 LINE",
"490 384 LINE",
"170 384 LINE",
"170 666 LINE",
"582 666 LINE",
"582 714 LINE",
"120 714 LINE",
"120 384 LINE",
"60 384 LINE",
"60 344 LINE",
"120 344 LINE",
"120 0 LINE",
"170 0 LINE"
);
}
);
width = 612;
},
{
layerId = m002;
paths = (
{
closed = 1;
nodes = (
"330 233 LINE",
"615 233 LINE",
"615 383 LINE",
"330 383 LINE",
"330 546 LINE",
"662 546 LINE",
"662 714 LINE",
"120 714 LINE",
"120 383 LINE",
"60 383 LINE",
"60 233 LINE",
"120 233 LINE",
"120 0 LINE",
"330 0 LINE"
);
}
);
width = 692;
}
);
leftKerningGroup = "Ge-cy";
leftMetricsKey = "Ge-cy";
rightKerningGroup = "Ge-cy";
rightMetricsKey = "Ge-cy";
unicode = 0492;
},
{
color = 10;
glyphname = "Gemiddlehook-cy";
lastChange = "2025-09-10 23:11:00 +0000";
layers = (
{
layerId = "FD4D3FDD-DE85-408F-A52A-FF600B1C6101";
paths = (
{
closed = 1;
nodes = (
"520 349 OFFCURVE",
"436 432 OFFCURVE",
"295 432 CURVE SMOOTH",
"223 432 OFFCURVE",
"154 403 OFFCURVE",
"108 353 CURVE",
"106 353 LINE",
"115 420 LINE",
"115 666 LINE",
"522 666 LINE",
"522 714 LINE",
"60 714 LINE",
"60 0 LINE",
"110 0 LINE",
"110 290 LINE",
"159 348 OFFCURVE",
"227 382 OFFCURVE",
"293 382 CURVE SMOOTH",
"406 382 OFFCURVE",
"473 317 OFFCURVE",
"473 208 CURVE SMOOTH",
"473 90 OFFCURVE",
"428 -13 OFFCURVE",
"352 -69 CURVE",
"383 -105 LINE",
"469 -43 OFFCURVE",
"520 73 OFFCURVE",
"520 208 CURVE SMOOTH"
);
}
);
width = 572;
},
{
layerId = m002;
paths = (
{
closed = 1;
nodes = (
"728 327 OFFCURVE",
"619 432 OFFCURVE",
"435 432 CURVE SMOOTH",
"366 432 OFFCURVE",
"303 413 OFFCURVE",
"263 382 CURVE",
"261 382 LINE",
"270 439 LINE",
"270 546 LINE",
"692 546 LINE",
"692 714 LINE",
"60 714 LINE",
"60 0 LINE",
"270 0 LINE",
"270 189 LINE",
"310 236 OFFCURVE",
"364 264 OFFCURVE",
"415 264 CURVE SMOOTH",
"473 264 OFFCURVE",
"508 221 OFFCURVE",
"508 148 CURVE SMOOTH",
"508 63 OFFCURVE",
"472 -5 OFFCURVE",
"410 -35 CURVE",
"526 -166 LINE",
"653 -84 OFFCURVE",
"728 33 OFFCURVE",
"728 148 CURVE SMOOTH"
);
}
);
width = 758;
}
);
leftKerningGroup = H;
leftMetricsKey = H;
rightKerningGroup = "Dje-cy";
rightMetricsKey = b;
unicode = 0494;
},
{
color = 10;
glyphname = "De-cy";
lastChange = "2025-09-10 23:11:03 +0000";
layers = (
{
layerId = "FD4D3FDD-DE85-408F-A52A-FF600B1C6101";
paths = (
{
closed = 1;
nodes = (
"228 714 LINE",
"188 163 LINE SMOOTH",
"182 87 OFFCURVE",
"139 48 OFFCURVE",
"62 48 CURVE SMOOTH",
"40 48 LINE",
"40 -100 LINE",
"90 -100 LINE",
"90 0 LINE",
"630 0 LINE",
"630 -100 LINE",
"680 -100 LINE",
"680 48 LINE",
"630 48 LINE",
"630 714 LINE"
);
},
{
closed = 1;
nodes = (
"219 75 OFFCURVE",
"234 114 OFFCURVE",
"238 163 CURVE SMOOTH",
"275 666 LINE",
"580 666 LINE",
"580 48 LINE",
"193 48 LINE"
);
}
);
width = 720;
},
{
layerId = m002;
paths = (
{
closed = 1;
nodes = (
"302 714 LINE",
"262 291 LINE SMOOTH",
"254 210 OFFCURVE",
"214 168 OFFCURVE",
"144 168 CURVE SMOOTH",
"40 168 LINE",
"40 -100 LINE",
"250 -100 LINE",
"250 0 LINE",
"707 0 LINE",
"707 -100 LINE",
"917 -100 LINE",
"917 168 LINE",
"812 168 LINE",
"812 714 LINE"
);
},
{
closed = 1;
nodes = (
"458 204 OFFCURVE",
"468 246 OFFCURVE",
"472 293 CURVE SMOOTH",
"496 546 LINE",
"602 546 LINE",
"602 168 LINE",
"444 168 LINE"
);
}
);
width = 957;
}
);
leftKerningGroup = "De-cy";
leftMetricsKey = J;
rightKerningGroup = "De-cy";
rightMetricsKey = L;
unicode = 0414;
},
{
color = 10;
glyphname = "Zhe-cy";
lastChange = "2025-09-10 23:11:07 +0000";
layers = (
{
anchors = (
{
name = Bottom;
position = "{355, 0}";
},
{
name = Top;
position = "{355, 714}";
}
);
layerId = "FD4D3FDD-DE85-408F-A52A-FF600B1C6101";
paths = (
{
closed = 1;
nodes = (
"380 326 LINE",
"382 326 LINE",
"611 0 LINE",
"670 0 LINE",
"419 357 LINE",
"670 714 LINE",
"611 714 LINE",
"382 388 LINE",
"380 388 LINE",
"380 714 LINE",
"330 714 LINE",
"330 388 LINE",
"328 388 LINE",
"99 714 LINE",
"40 714 LINE",
"291 357 LINE",
"40 0 LINE",
"99 0 LINE",
"328 326 LINE",
"330 326 LINE",
"330 0 LINE",
"380 0 LINE"
);
}
);
width = 710;
},
{
anchors = (
{
name = Bottom;
position = "{577, 0}";
},
{
name = Top;
position = "{577, 714}";
}
);
layerId = m002;
paths = (
{
closed = 1;
nodes = (
"682 282 LINE",
"685 282 LINE",
"885 0 LINE",
"1114 0 LINE",
"861 357 LINE",
"1114 714 LINE",
"885 714 LINE",
"684 431 LINE",
"682 431 LINE",
"682 714 LINE",
"472 714 LINE",
"472 431 LINE",
"470 431 LINE",
"269 714 LINE",
"40 714 LINE",
"293 357 LINE",
"40 0 LINE",
"269 0 LINE",
"469 282 LINE",
"472 282 LINE",
"472 0 LINE",
"682 0 LINE"
);
}
);
width = 1154;
}
);
leftKerningGroup = "Zhe-cy";
leftMetricsKey = A;
rightKerningGroup = "Zhe-cy";
rightMetricsKey = A;
unicode = 0416;
},
{
color = 10;
glyphname = "Ze-cy";
lastChange = "2025-09-10 23:11:10 +0000";
layers = (
{
anchors = (
{
name = Bottom;
position = "{285, 0}";
},
{
name = Top;
position = "{285, 714}";
}
);
layerId = "FD4D3FDD-DE85-408F-A52A-FF600B1C6101";
paths = (
{
closed = 1;
nodes = (
"476 100 OFFCURVE",
"401 35 OFFCURVE",
"288 35 CURVE SMOOTH",
"175 35 OFFCURVE",
"100 98 OFFCURVE",
"100 193 CURVE",
"50 193 LINE",
"50 69 OFFCURVE",
"145 -13 OFFCURVE",
"288 -13 CURVE SMOOTH",
"431 -13 OFFCURVE",
"526 71 OFFCURVE",
"526 197 CURVE SMOOTH",
"526 285 OFFCURVE",
"468 355 OFFCURVE",
"381 371 CURVE",
"381 373 LINE",
"454 399 OFFCURVE",
"503 462 OFFCURVE",
"503 530 CURVE SMOOTH",
"503 647 OFFCURVE",
"416 725 OFFCURVE",
"285 725 CURVE SMOOTH",
"148 725 OFFCURVE",
"57 647 OFFCURVE",
"57 529 CURVE",
"107 529 LINE",
"107 618 OFFCURVE",
"178 677 OFFCURVE",
"285 677 CURVE SMOOTH",
"386 677 OFFCURVE",
"453 618 OFFCURVE",
"453 530 CURVE SMOOTH",
"453 450 OFFCURVE",
"386 396 OFFCURVE",
"285 396 CURVE SMOOTH",
"238 396 LINE",
"238 348 LINE",
"285 348 LINE SMOOTH",
"400 348 OFFCURVE",
"476 288 OFFCURVE",
"476 197 CURVE SMOOTH"
);
}
);
width = 576;
},
{
anchors = (
{
name = Bottom;
position = "{329, 0}";
},
{
name = Top;
position = "{329, 714}";
}
);
layerId = m002;
paths = (
{
closed = 1;
nodes = (
"435 184 OFFCURVE",
"397 155 OFFCURVE",
"334 155 CURVE SMOOTH",
"277 155 OFFCURVE",
"243 184 OFFCURVE",
"243 233 CURVE",
"43 233 LINE",
"43 78 OFFCURVE",
"151 -13 OFFCURVE",
"334 -13 CURVE SMOOTH",
"523 -13 OFFCURVE",
"635 72 OFFCURVE",
"635 217 CURVE SMOOTH",
"635 289 OFFCURVE",
"594 346 OFFCURVE",
"524 371 CURVE",
"524 373 LINE",
"579 399 OFFCURVE",
"612 450 OFFCURVE",
"612 511 CURVE SMOOTH",
"612 646 OFFCURVE",
"508 726 OFFCURVE",
"332 726 CURVE SMOOTH",
"148 726 OFFCURVE",
"40 635 OFFCURVE",
"40 480 CURVE",
"240 480 LINE",
"240 529 OFFCURVE",
"274 558 OFFCURVE",
"332 558 CURVE SMOOTH",
"382 558 OFFCURVE",
"412 535 OFFCURVE",
"412 497 CURVE SMOOTH",
"412 459 OFFCURVE",
"385 437 OFFCURVE",
"338 437 CURVE SMOOTH",
"286 437 LINE",
"286 307 LINE",
"338 307 LINE SMOOTH",
"399 307 OFFCURVE",
"435 279 OFFCURVE",
"435 232 CURVE SMOOTH"
);
}
);
width = 675;
}
);
leftKerningGroup = "Ze-cy";
leftMetricsKey = O;
rightKerningGroup = "Ze-cy";
rightMetricsKey = O;
unicode = 0417;
},
{
color = 10;
glyphname = "Ii-cy";
lastChange = "2025-09-12 15:02:22 +0000";
layers = (
{
anchors = (
{
name = Bottom;
position = "{324, 0}";
},
{
name = Top;
position = "{319, 714}";
}
);
layerId = "FD4D3FDD-DE85-408F-A52A-FF600B1C6101";
paths = (
{
closed = 1;
nodes = (
"112 88 LINE",
"110 88 LINE",
"110 714 LINE",
"60 714 LINE",
"60 0 LINE",
"113 0 LINE",
"533 626 LINE",
"535 626 LINE",
"535 0 LINE",
"585 0 LINE",
"585 714 LINE",
"532 714 LINE"
);
}
);
width = 645;
},
{
anchors = (
{
name = Bottom;
position = "{408, 0}";
},
{
name = Top;
position = "{403, 714}";
}
);
layerId = m002;
paths = (
{
closed = 1;
nodes = (
"272 335 LINE",
"270 335 LINE",
"270 714 LINE",
"60 714 LINE",
"60 0 LINE",
"270 0 LINE",
"543 379 LINE",
"545 379 LINE",
"545 0 LINE",
"755 0 LINE",
"755 714 LINE",
"545 714 LINE"
);
}
);
width = 815;
}
);
leftKerningGroup = H;
leftMetricsKey = N;
rightKerningGroup = H;
rightMetricsKey = N;
unicode = 0418;
},
{
color = 10;
glyphname = "Ka-cy";
lastChange = "2025-09-10 23:11:20 +0000";
layers = (
{
anchors = (
{
name = Bottom;
position = "{254, 0}";
},
{
name = Top;
position = "{249, 714}";
}
);
layerId = "FD4D3FDD-DE85-408F-A52A-FF600B1C6101";
paths = (
{
closed = 1;
nodes = (
"60 0 LINE",
"110 0 LINE",
"110 369 LINE",
"112 369 LINE",
"436 0 LINE",
"506 0 LINE",
"166 383 LINE",
"506 714 LINE",
"436 714 LINE",
"113 401 LINE",
"110 401 LINE",
"110 714 LINE",
"60 714 LINE"
);
}
);
width = 546;
},
{
anchors = (
{
name = Bottom;
position = "{398, 0}";
},
{
name = Top;
position = "{393, 714}";
}
);
layerId = m002;
paths = (
{
closed = 1;
nodes = (
"60 0 LINE",
"270 0 LINE",
"270 288 LINE",
"273 288 LINE",
"526 0 LINE",
"796 0 LINE",
"456 383 LINE",
"796 714 LINE",
"526 714 LINE",
"272 468 LINE",
"270 468 LINE",
"270 714 LINE",
"60 714 LINE"
);
}
);
width = 836;
}
);
leftKerningGroup = H;
leftMetricsKey = K;
rightKerningGroup = K;
rightMetricsKey = K;
unicode = 041A;
},
{
color = 10;
glyphname = "El-cy";
lastChange = "2025-09-10 23:11:29 +0000";
layers = (
{
layerId = "FD4D3FDD-DE85-408F-A52A-FF600B1C6101";
paths = (
{
closed = 1;
nodes = (
"187 714 LINE",
"187 163 LINE SMOOTH",
"187 90 OFFCURVE",
"151 47 OFFCURVE",
"89 47 CURVE SMOOTH",
"70 47 OFFCURVE",
"52 48 OFFCURVE",
"40 51 CURVE",
"40 3 LINE",
"55 1 OFFCURVE",
"73 0 OFFCURVE",
"88 0 CURVE SMOOTH",
"182 0 OFFCURVE",
"237 61 OFFCURVE",
"237 163 CURVE SMOOTH",
"237 666 LINE",
"579 666 LINE",
"579 0 LINE",
"629 0 LINE",
"629 714 LINE"
);
}
);
width = 689;
},
{
layerId = m002;
paths = (
{
closed = 1;
nodes = (
"127 714 LINE",
"127 219 LINE SMOOTH",
"127 186 OFFCURVE",
"109 167 OFFCURVE",
"79 167 CURVE SMOOTH",
"61 167 OFFCURVE",
"53 168 OFFCURVE",
"40 171 CURVE",
"40 3 LINE",
"51 1 OFFCURVE",
"77 0 OFFCURVE",
"108 0 CURVE SMOOTH",
"252 0 OFFCURVE",
"337 83 OFFCURVE",
"337 223 CURVE SMOOTH",
"337 546 LINE",
"537 546 LINE",
"537 0 LINE",
"747 0 LINE",
"747 714 LINE"
);
}
);
width = 807;
}
);
leftKerningGroup = "El-cy";
leftMetricsKey = J;
rightKerningGroup = N;
rightMetricsKey = N;
unicode = 041B;
},
{
color = 10;
glyphname = "Pe-cy";
lastChange = "2025-09-10 23:11:33 +0000";
layers = (
{
layerId = "FD4D3FDD-DE85-408F-A52A-FF600B1C6101";
paths = (
{
closed = 1;
nodes = (
"110 666 LINE",
"554 666 LINE",
"554 0 LINE",
"604 0 LINE",
"604 714 LINE",
"60 714 LINE",
"60 0 LINE",
"110 0 LINE"
);
}
);
width = 664;
},
{
layerId = m002;
paths = (
{
closed = 1;
nodes = (
"270 546 LINE",
"524 546 LINE",
"524 0 LINE",
"734 0 LINE",
"734 714 LINE",
"60 714 LINE",
"60 0 LINE",
"270 0 LINE"
);
}
);
width = 794;
}
);
leftKerningGroup = H;
leftMetricsKey = H;
rightKerningGroup = H;
rightMetricsKey = H;
unicode = 041F;
},
{
color = 10;
glyphname = "U-cy";
lastChange = "2025-09-12 16:14:24 +0000";
layers = (
{
anchors = (
{
name = Top;
position = "{284, 714}";
}
);
layerId = "FD4D3FDD-DE85-408F-A52A-FF600B1C6101";
paths = (
{
closed = 1;
nodes = (
"527 714 LINE",
"472 714 LINE",
"301 280 LINE",
"299 280 LINE",
"95 714 LINE",
"40 714 LINE",
"275 215 LINE",
"241 130 LINE SMOOTH",
"217 70 OFFCURVE",
"181 34 OFFCURVE",
"133 34 CURVE SMOOTH",
"114 34 OFFCURVE",
"92 37 OFFCURVE",
"81 43 CURVE",
"81 -5 LINE",
"95 -10 OFFCURVE",
"113 -13 OFFCURVE",
"129 -13 CURVE SMOOTH",
"204 -13 OFFCURVE",
"255 30 OFFCURVE",
"293 125 CURVE SMOOTH"
);
}
);
width = 567;
},
{
anchors = (
{
name = Top;
position = "{362, 714}";
}
);
layerId = m002;
paths = (
{
closed = 1;
nodes = (
"683 714 LINE",
"460 714 LINE",
"371 497 LINE",
"369 497 LINE",
"263 714 LINE",
"40 714 LINE",
"269 245 LINE",
"254 210 LINE SMOOTH",
"238 173 OFFCURVE",
"208 154 OFFCURVE",
"157 154 CURVE SMOOTH",
"145 154 OFFCURVE",
"131 157 OFFCURVE",
"116 163 CURVE",
"116 -5 LINE",
"132 -10 OFFCURVE",
"157 -13 OFFCURVE",
"193 -13 CURVE SMOOTH",
"319 -13 OFFCURVE",
"413 61 OFFCURVE",
"479 221 CURVE SMOOTH"
);
}
);
width = 723;
}
);
leftKerningGroup = "U-cy";
leftMetricsKey = Y;
rightKerningGroup = "U-cy";
rightMetricsKey = Y;
unicode = 0423;
},
